<?xml version="1.0" encoding="utf-8"?>
<!-- Generator: Adobe Illustrator 17.1.0, SVG Export Plug-In . SVG Version: 6.00 Build 0)  -->
<!DOCTYPE svg PUBLIC "-//W3C//DTD SVG 1.1//EN" "http://www.w3.org/Graphics/SVG/1.1/DTD/svg11.dtd">
<svg version="1.1" id="svg8021" xmlns="http://www.w3.org/2000/svg" xmlns:xlink="http://www.w3.org/1999/xlink" x="0px" y="0px"
	 viewBox="0 0 500 500" enable-background="new 0 0 500 500" xml:space="preserve">
<path id="path4380" fill="#3F9C35" d="M129.4,500H500V127.7L129.4,500z"/>
<path id="path4384" fill="#92D400" d="M84.1,500h45.3L500,129.2V84.1L84.1,500z"/>
<g transform="translate(0 1200)">
	<g transform="rotate(-45)">
		<path fill="none" stroke="#92D400" stroke-miterlimit="10" d="M533.4-456.6c1.2-0.7,2.6-1.2,4.1-1.2 M537.4-473.1
			c-4.1,0-7.7-3.6-7.7-7.7c0-4.4,3.6-7.7,7.7-7.7 M537.4-496h-7.7c0,4.1-3.6,7.7-7.7,7.7s-7.7-3.6-7.7-7.7h-15.3
			c0,1.5-0.5,2.8-1.2,4 M518.1-471.9c1.2-0.7,2.6-1.2,4.1-1.2c4.1,0,7.7,3.1,7.7,7.7c0,1.8-0.1,2.7-1.2,4 M502.7-487.2
			c1.2-0.7,2.6-1.2,4.1-1.2c4.1,0,7.7,3.1,7.7,7.7c0,1.5-0.5,2.8-1.2,4 M514.5-480.7h15.3 M506.8-496v7.7 M522.1-488.4v15.3
			 M529.8-465.4h7.7"/>
		<path fill="none" stroke="#92D400" stroke-miterlimit="10" d="M568.1-442.4v7.7 M575.7-434.8c0-4.4,3.6-7.7,7.7-7.7
			c4.1,0,7.7,3.1,7.7,7.7 M598.7-442.4c-4.1,0-7.7-3.6-7.7-7.7c0-4.4,3.6-7.7,7.7-7.7 M598.7-473.1c-4.1,0-7.7-3.6-7.7-7.7
			c0-4.4,3.6-7.7,7.7-7.7 M598.7-496h-7.7c0,4.1-3.6,7.7-7.7,7.7c-4.1,0-7.7-3.6-7.7-7.7h-15.3c0,4.1-3.6,7.7-7.7,7.7
			c-4.1,0-7.7-3.6-7.7-7.7h-7.7v7.7c4.1,0,7.7,3.1,7.7,7.7c0,4.1-3.6,7.7-7.7,7.7v15.3c4.1,0,7.7,3.1,7.7,7.7c0,1.5-0.5,2.8-1.2,4
			 M548.7-441.3c1.2-0.7,2.6-1.2,4.1-1.2c4.1,0,7.7,3.1,7.7,7.7 M575.7-450.1h15.3 M545.1-450.1h15.3 M591.1-465.4
			c0,4.1-3.6,7.7-7.7,7.7c-4.1,0-7.7-3.6-7.7-7.7c0-4.4,3.6-7.7,7.7-7.7C587.5-473.1,591.1-470,591.1-465.4z M575.7-480.7
			c0,4.1-3.6,7.7-7.7,7.7s-7.7-3.6-7.7-7.7c0-4.4,3.6-7.7,7.7-7.7S575.7-485.3,575.7-480.7z M575.7-450.1c0,4.1-3.6,7.7-7.7,7.7
			s-7.7-3.6-7.7-7.7c0-4.4,3.6-7.7,7.7-7.7S575.7-454.7,575.7-450.1z M575.7-480.7h15.3 M545.1-480.7h15.3 M560.4-465.4h15.3
			 M537.4-465.4h7.7 M568.1-473.1v15.3 M568.1-496v7.7 M583.4-457.7v15.3 M583.4-488.4v15.3 M552.8-457.7v15.3 M552.8-488.4v15.3
			 M560.4-465.4c0,4.1-3.6,7.7-7.7,7.7c-4.1,0-7.7-3.6-7.7-7.7c0-4.4,3.6-7.7,7.7-7.7C556.8-473.1,560.4-470,560.4-465.4z
			 M591.1-465.4h7.7"/>
		<path fill="none" stroke="#92D400" stroke-miterlimit="10" d="M629.4-442.4v7.7 M637-434.8c0-4.4,3.6-7.7,7.7-7.7s7.7,3.1,7.7,7.7
			 M660-442.4c-4.1,0-7.7-3.6-7.7-7.7c0-4.4,3.6-7.7,7.7-7.7 M660-473.1c-4.1,0-7.7-3.6-7.7-7.7c0-4.4,3.6-7.7,7.7-7.7 M660-496
			h-7.7c0,4.1-3.6,7.7-7.7,7.7S637-492,637-496h-15.3c0,4.1-3.6,7.7-7.7,7.7c-4.1,0-7.7-3.6-7.7-7.7h-7.7v7.7c4.1,0,7.7,3.1,7.7,7.7
			c0,4.1-3.6,7.7-7.7,7.7v15.3c4.1,0,7.7,3.1,7.7,7.7c0,4.1-3.6,7.7-7.7,7.7v7.7 M606.4-434.8c0-4.4,3.6-7.7,7.7-7.7
			c4.1,0,7.7,3.1,7.7,7.7 M637-450.1h15.3 M606.4-450.1h15.3 M652.3-465.4c0,4.1-3.6,7.7-7.7,7.7s-7.7-3.6-7.7-7.7
			c0-4.4,3.6-7.7,7.7-7.7S652.3-470,652.3-465.4z M637-480.7c0,4.1-3.6,7.7-7.7,7.7c-4.1,0-7.7-3.6-7.7-7.7c0-4.4,3.6-7.7,7.7-7.7
			C633.4-488.4,637-485.3,637-480.7z M637-450.1c0,4.1-3.6,7.7-7.7,7.7c-4.1,0-7.7-3.6-7.7-7.7c0-4.4,3.6-7.7,7.7-7.7
			C633.4-457.7,637-454.7,637-450.1z M637-480.7h15.3 M606.4-480.7h15.3 M621.7-465.4H637 M598.7-465.4h7.7 M629.4-473.1v15.3
			 M629.4-496v7.7 M644.7-457.7v15.3 M644.7-488.4v15.3 M614-457.7v15.3 M614-488.4v15.3 M621.7-465.4c0,4.1-3.6,7.7-7.7,7.7
			c-4.1,0-7.7-3.6-7.7-7.7c0-4.4,3.6-7.7,7.7-7.7C618.1-473.1,621.7-470,621.7-465.4z M652.3-465.4h7.7"/>
		<path fill="none" stroke="#92D400" stroke-miterlimit="10" d="M690.6-442.4v7.7 M698.3-434.8c0-4.4,3.6-7.7,7.7-7.7
			c4.1,0,7.7,3.1,7.7,7.7 M721.3-442.4c-4.1,0-7.7-3.6-7.7-7.7c0-4.4,3.6-7.7,7.7-7.7 M721.3-473.1c-4.1,0-7.7-3.6-7.7-7.7
			c0-4.4,3.6-7.7,7.7-7.7 M721.3-496h-7.7c0,4.1-3.6,7.7-7.7,7.7c-4.1,0-7.7-3.6-7.7-7.7H683c0,4.1-3.6,7.7-7.7,7.7
			s-7.7-3.6-7.7-7.7H660v7.7c4.1,0,7.7,3.1,7.7,7.7c0,4.1-3.6,7.7-7.7,7.7v15.3c4.1,0,7.7,3.1,7.7,7.7c0,4.1-3.6,7.7-7.7,7.7v7.7
			 M667.6-434.8c0-4.4,3.6-7.7,7.7-7.7s7.7,3.1,7.7,7.7 M698.3-450.1h15.3 M667.6-450.1H683 M713.6-465.4c0,4.1-3.6,7.7-7.7,7.7
			c-4.1,0-7.7-3.6-7.7-7.7c0-4.4,3.6-7.7,7.7-7.7C710-473.1,713.6-470,713.6-465.4z M698.3-480.7c0,4.1-3.6,7.7-7.7,7.7
			c-4.1,0-7.7-3.6-7.7-7.7c0-4.4,3.6-7.7,7.7-7.7C694.7-488.4,698.3-485.3,698.3-480.7z M698.3-450.1c0,4.1-3.6,7.7-7.7,7.7
			c-4.1,0-7.7-3.6-7.7-7.7c0-4.4,3.6-7.7,7.7-7.7C694.7-457.7,698.3-454.7,698.3-450.1z M698.3-480.7h15.3 M667.6-480.7H683
			 M683-465.4h15.3 M660-465.4h7.7 M690.6-473.1v15.3 M690.6-496v7.7 M705.9-457.7v15.3 M705.9-488.4v15.3 M675.3-457.7v15.3
			 M675.3-488.4v15.3 M683-465.4c0,4.1-3.6,7.7-7.7,7.7s-7.7-3.6-7.7-7.7c0-4.4,3.6-7.7,7.7-7.7S683-470,683-465.4z M713.6-465.4
			h7.7"/>
		<path fill="none" stroke="#92D400" stroke-miterlimit="10" d="M751.9-442.4v7.7 M759.6-434.8c0-4.4,3.6-7.7,7.7-7.7
			s7.7,3.1,7.7,7.7 M782.5-442.4c-4.1,0-7.7-3.6-7.7-7.7c0-4.4,3.6-7.7,7.7-7.7 M782.5-473.1c-4.1,0-7.7-3.6-7.7-7.7
			c0-4.4,3.6-7.7,7.7-7.7 M782.5-496h-7.7c0,4.1-3.6,7.7-7.7,7.7s-7.7-3.6-7.7-7.7h-15.3c0,4.1-3.6,7.7-7.7,7.7s-7.7-3.6-7.7-7.7
			h-7.7v7.7c4.1,0,7.7,3.1,7.7,7.7c0,4.1-3.6,7.7-7.7,7.7v15.3c4.1,0,7.7,3.1,7.7,7.7c0,4.1-3.6,7.7-7.7,7.7v7.7 M728.9-434.8
			c0-4.4,3.6-7.7,7.7-7.7s7.7,3.1,7.7,7.7 M759.6-450.1h15.3 M728.9-450.1h15.3 M774.9-465.4c0,4.1-3.6,7.7-7.7,7.7
			s-7.7-3.6-7.7-7.7c0-4.4,3.6-7.7,7.7-7.7S774.9-470,774.9-465.4z M759.6-480.7c0,4.1-3.6,7.7-7.7,7.7c-4.1,0-7.7-3.6-7.7-7.7
			c0-4.4,3.6-7.7,7.7-7.7C756-488.4,759.6-485.3,759.6-480.7z M759.6-450.1c0,4.1-3.6,7.7-7.7,7.7c-4.1,0-7.7-3.6-7.7-7.7
			c0-4.4,3.6-7.7,7.7-7.7C756-457.7,759.6-454.7,759.6-450.1z M759.6-480.7h15.3 M728.9-480.7h15.3 M744.2-465.4h15.3 M721.3-465.4
			h7.7 M751.9-473.1v15.3 M751.9-496v7.7 M767.2-457.7v15.3 M767.2-488.4v15.3 M736.6-457.7v15.3 M736.6-488.4v15.3 M744.2-465.4
			c0,4.1-3.6,7.7-7.7,7.7s-7.7-3.6-7.7-7.7c0-4.4,3.6-7.7,7.7-7.7S744.2-470,744.2-465.4z M774.9-465.4h7.7"/>
		<path fill="none" stroke="#92D400" stroke-miterlimit="10" d="M813.2-442.4v7.7 M820.8-434.8c0-4.4,3.6-7.7,7.7-7.7
			s7.7,3.1,7.7,7.7 M843.8-442.4c-4.1,0-7.7-3.6-7.7-7.7c0-4.4,3.6-7.7,7.7-7.7 M843.8-473.1c-4.1,0-7.7-3.6-7.7-7.7
			c0-4.4,3.6-7.7,7.7-7.7 M843.8-496h-7.7c0,4.1-3.6,7.7-7.7,7.7s-7.7-3.6-7.7-7.7h-15.3c0,4.1-3.6,7.7-7.7,7.7
			c-4.1,0-7.7-3.6-7.7-7.7h-7.7v7.7c4.1,0,7.7,3.1,7.7,7.7c0,4.1-3.6,7.7-7.7,7.7v15.3c4.1,0,7.7,3.1,7.7,7.7c0,4.1-3.6,7.7-7.7,7.7
			v7.7 M790.2-434.8c0-4.4,3.6-7.7,7.7-7.7c4.1,0,7.7,3.1,7.7,7.7 M820.8-450.1h15.3 M790.2-450.1h15.3 M836.1-465.4
			c0,4.1-3.6,7.7-7.7,7.7s-7.7-3.6-7.7-7.7c0-4.4,3.6-7.7,7.7-7.7S836.1-470,836.1-465.4z M820.8-480.7c0,4.1-3.6,7.7-7.7,7.7
			c-4.1,0-7.7-3.6-7.7-7.7c0-4.4,3.6-7.7,7.7-7.7C817.3-488.4,820.8-485.3,820.8-480.7z M820.8-450.1c0,4.1-3.6,7.7-7.7,7.7
			c-4.1,0-7.7-3.6-7.7-7.7c0-4.4,3.6-7.7,7.7-7.7C817.3-457.7,820.8-454.7,820.8-450.1z M820.8-480.7h15.3 M790.2-480.7h15.3
			 M805.5-465.4h15.3 M782.5-465.4h7.7 M813.2-473.1v15.3 M813.2-496v7.7 M828.5-457.7v15.3 M828.5-488.4v15.3 M797.8-457.7v15.3
			 M797.8-488.4v15.3 M805.5-465.4c0,4.1-3.6,7.7-7.7,7.7c-4.1,0-7.7-3.6-7.7-7.7c0-4.4,3.6-7.7,7.7-7.7
			C801.9-473.1,805.5-470,805.5-465.4z M836.1-465.4h7.7"/>
		<path fill="none" stroke="#92D400" stroke-miterlimit="10" d="M874.4-442.4v7.7 M882.1-434.8c0-4.4,3.6-7.7,7.7-7.7
			s7.7,3.1,7.7,7.7 M905.1-442.4c-4.1,0-7.7-3.6-7.7-7.7c0-4.4,3.6-7.7,7.7-7.7 M905.1-473.1c-4.1,0-7.7-3.6-7.7-7.7
			c0-4.4,3.6-7.7,7.7-7.7 M905.1-496h-7.7c0,4.1-3.6,7.7-7.7,7.7s-7.7-3.6-7.7-7.7h-15.3c0,4.1-3.6,7.7-7.7,7.7
			c-4.1,0-7.7-3.6-7.7-7.7h-7.7v7.7c4.1,0,7.7,3.1,7.7,7.7c0,4.1-3.6,7.7-7.7,7.7v15.3c4.1,0,7.7,3.1,7.7,7.7c0,4.1-3.6,7.7-7.7,7.7
			v7.7 M851.5-434.8c0-4.4,3.6-7.7,7.7-7.7c4.1,0,7.7,3.1,7.7,7.7 M882.1-450.1h15.3 M851.5-450.1h15.3 M897.4-465.4
			c0,4.1-3.6,7.7-7.7,7.7s-7.7-3.6-7.7-7.7c0-4.4,3.6-7.7,7.7-7.7S897.4-470,897.4-465.4z M882.1-480.7c0,4.1-3.6,7.7-7.7,7.7
			s-7.7-3.6-7.7-7.7c0-4.4,3.6-7.7,7.7-7.7S882.1-485.3,882.1-480.7z M882.1-450.1c0,4.1-3.6,7.7-7.7,7.7s-7.7-3.6-7.7-7.7
			c0-4.4,3.6-7.7,7.7-7.7S882.1-454.7,882.1-450.1z M882.1-480.7h15.3 M851.5-480.7h15.3 M866.8-465.4h15.3 M843.8-465.4h7.7
			 M874.4-473.1v15.3 M874.4-496v7.7 M889.8-457.7v15.3 M889.8-488.4v15.3 M859.1-457.7v15.3 M859.1-488.4v15.3 M866.8-465.4
			c0,4.1-3.6,7.7-7.7,7.7c-4.1,0-7.7-3.6-7.7-7.7c0-4.4,3.6-7.7,7.7-7.7C863.2-473.1,866.8-470,866.8-465.4z M897.4-465.4h7.7"/>
		<path fill="none" stroke="#92D400" stroke-miterlimit="10" d="M935.7-442.4v7.7 M943.4-434.8c0-4.4,3.6-7.7,7.7-7.7
			c4.1,0,7.7,3.1,7.7,7.7 M966.3-442.4c-4.1,0-7.7-3.6-7.7-7.7c0-4.4,3.6-7.7,7.7-7.7 M966.3-473.1c-4.1,0-7.7-3.6-7.7-7.7
			c0-4.4,3.6-7.7,7.7-7.7 M966.3-496h-7.7c0,4.1-3.6,7.7-7.7,7.7c-4.1,0-7.7-3.6-7.7-7.7h-15.3c0,4.1-3.6,7.7-7.7,7.7
			c-4.1,0-7.7-3.6-7.7-7.7h-7.7v7.7c4.1,0,7.7,3.1,7.7,7.7c0,4.1-3.6,7.7-7.7,7.7v15.3c4.1,0,7.7,3.1,7.7,7.7c0,4.1-3.6,7.7-7.7,7.7
			v7.7 M912.7-434.8c0-4.4,3.6-7.7,7.7-7.7c4.1,0,7.7,3.1,7.7,7.7 M943.4-450.1h15.3 M912.7-450.1h15.3 M958.7-465.4
			c0,4.1-3.6,7.7-7.7,7.7c-4.1,0-7.7-3.6-7.7-7.7c0-4.4,3.6-7.7,7.7-7.7C955.1-473.1,958.7-470,958.7-465.4z M943.4-480.7
			c0,4.1-3.6,7.7-7.7,7.7s-7.7-3.6-7.7-7.7c0-4.4,3.6-7.7,7.7-7.7S943.4-485.3,943.4-480.7z M943.4-450.1c0,4.1-3.6,7.7-7.7,7.7
			s-7.7-3.6-7.7-7.7c0-4.4,3.6-7.7,7.7-7.7S943.4-454.7,943.4-450.1z M943.4-480.7h15.3 M912.7-480.7h15.3 M928.1-465.4h15.3
			 M905.1-465.4h7.7 M935.7-473.1v15.3 M935.7-496v7.7 M951-457.7v15.3 M951-488.4v15.3 M920.4-457.7v15.3 M920.4-488.4v15.3
			 M928.1-465.4c0,4.1-3.6,7.7-7.7,7.7c-4.1,0-7.7-3.6-7.7-7.7c0-4.4,3.6-7.7,7.7-7.7C924.5-473.1,928.1-470,928.1-465.4z
			 M958.7-465.4h7.7"/>
		<path fill="none" stroke="#92D400" stroke-miterlimit="10" d="M997-442.4v7.7 M1004.6-434.8c0-4.4,3.6-7.7,7.7-7.7
			c4.1,0,7.7,3.1,7.7,7.7 M1027.6-442.4c-4.1,0-7.7-3.6-7.7-7.7c0-4.4,3.6-7.7,7.7-7.7 M1027.6-473.1c-4.1,0-7.7-3.6-7.7-7.7
			c0-4.4,3.6-7.7,7.7-7.7 M1027.6-496h-7.7c0,4.1-3.6,7.7-7.7,7.7c-4.1,0-7.7-3.6-7.7-7.7h-15.3c0,4.1-3.6,7.7-7.7,7.7
			S974-492,974-496h-7.7v7.7c4.1,0,7.7,3.1,7.7,7.7c0,4.1-3.6,7.7-7.7,7.7v15.3c4.1,0,7.7,3.1,7.7,7.7c0,4.1-3.6,7.7-7.7,7.7v7.7
			 M974-434.8c0-4.4,3.6-7.7,7.7-7.7s7.7,3.1,7.7,7.7 M1004.6-450.1h15.3 M974-450.1h15.3 M1020-465.4c0,4.1-3.6,7.7-7.7,7.7
			c-4.1,0-7.7-3.6-7.7-7.7c0-4.4,3.6-7.7,7.7-7.7C1016.4-473.1,1020-470,1020-465.4z M1004.6-480.7c0,4.1-3.6,7.7-7.7,7.7
			s-7.7-3.6-7.7-7.7c0-4.4,3.6-7.7,7.7-7.7S1004.6-485.3,1004.6-480.7z M1004.6-450.1c0,4.1-3.6,7.7-7.7,7.7s-7.7-3.6-7.7-7.7
			c0-4.4,3.6-7.7,7.7-7.7S1004.6-454.7,1004.6-450.1z M1004.6-480.7h15.3 M974-480.7h15.3 M989.3-465.4h15.3 M966.3-465.4h7.7
			 M997-473.1v15.3 M997-496v7.7 M1012.3-457.7v15.3 M1012.3-488.4v15.3 M981.7-457.7v15.3 M981.7-488.4v15.3 M989.3-465.4
			c0,4.1-3.6,7.7-7.7,7.7s-7.7-3.6-7.7-7.7c0-4.4,3.6-7.7,7.7-7.7S989.3-470,989.3-465.4z M1020-465.4h7.7"/>
		<path fill="none" stroke="#92D400" stroke-miterlimit="10" d="M1058.3-442.4v7.7 M1065.9-434.8c0-4.4,3.6-7.7,7.7-7.7
			c4.1,0,7.7,3.1,7.7,7.7 M1088.9-442.4c-4.1,0-7.7-3.6-7.7-7.7c0-4.4,3.6-7.7,7.7-7.7 M1088.9-473.1c-4.1,0-7.7-3.6-7.7-7.7
			c0-4.4,3.6-7.7,7.7-7.7 M1088.9-496h-7.7c0,4.1-3.6,7.7-7.7,7.7c-4.1,0-7.7-3.6-7.7-7.7h-15.3c0,4.1-3.6,7.7-7.7,7.7
			s-7.7-3.6-7.7-7.7h-7.7v7.7c4.1,0,7.7,3.1,7.7,7.7c0,4.1-3.6,7.7-7.7,7.7v15.3c4.1,0,7.7,3.1,7.7,7.7c0,4.1-3.6,7.7-7.7,7.7v7.7
			 M1035.3-434.8c0-4.4,3.6-7.7,7.7-7.7s7.7,3.1,7.7,7.7 M1065.9-450.1h15.3 M1035.3-450.1h15.3 M1081.2-465.4
			c0,4.1-3.6,7.7-7.7,7.7c-4.1,0-7.7-3.6-7.7-7.7c0-4.4,3.6-7.7,7.7-7.7C1077.7-473.1,1081.2-470,1081.2-465.4z M1065.9-480.7
			c0,4.1-3.6,7.7-7.7,7.7c-4.1,0-7.7-3.6-7.7-7.7c0-4.4,3.6-7.7,7.7-7.7C1062.3-488.4,1065.9-485.3,1065.9-480.7z M1065.9-450.1
			c0,4.1-3.6,7.7-7.7,7.7c-4.1,0-7.7-3.6-7.7-7.7c0-4.4,3.6-7.7,7.7-7.7C1062.3-457.7,1065.9-454.7,1065.9-450.1z M1065.9-480.7
			h15.3 M1035.3-480.7h15.3 M1050.6-465.4h15.3 M1027.6-465.4h7.7 M1058.3-473.1v15.3 M1058.3-496v7.7 M1073.6-457.7v15.3
			 M1073.6-488.4v15.3 M1042.9-457.7v15.3 M1042.9-488.4v15.3 M1050.6-465.4c0,4.1-3.6,7.7-7.7,7.7s-7.7-3.6-7.7-7.7
			c0-4.4,3.6-7.7,7.7-7.7S1050.6-470,1050.6-465.4z M1081.2-465.4h7.7"/>
		<path fill="none" stroke="#92D400" stroke-miterlimit="10" d="M1119.5-442.4v7.7 M1127.2-434.8c0-4.4,3.6-7.7,7.7-7.7
			c3.9,0,7.3,2.8,7.6,7.1 M1149.3-442.2c-3.8-0.3-6.8-4-6.8-7.9c0-4.4,3.6-7.7,7.7-7.7 M1150.2-473.1c-4.1,0-7.7-3.6-7.7-7.7
			c0-4.4,3.6-7.7,7.7-7.7 M1150.2-496h-7.7c0,4.1-3.6,7.7-7.7,7.7s-7.7-3.6-7.7-7.7h-15.3c0,4.1-3.6,7.7-7.7,7.7
			c-4.1,0-7.7-3.6-7.7-7.7h-7.7v7.7c4.1,0,7.7,3.1,7.7,7.7c0,4.1-3.6,7.7-7.7,7.7v15.3c4.1,0,7.7,3.1,7.7,7.7c0,4.1-3.6,7.7-7.7,7.7
			v7.7 M1096.6-434.8c0-4.4,3.6-7.7,7.7-7.7c4.1,0,7.7,3.1,7.7,7.7 M1127.2-450.1h15.3 M1096.6-450.1h15.3 M1142.5-465.4
			c0,4.1-3.6,7.7-7.7,7.7s-7.7-3.6-7.7-7.7c0-4.4,3.6-7.7,7.7-7.7S1142.5-470,1142.5-465.4z M1127.2-480.7c0,4.1-3.6,7.7-7.7,7.7
			c-4.1,0-7.7-3.6-7.7-7.7c0-4.4,3.6-7.7,7.7-7.7C1123.6-488.4,1127.2-485.3,1127.2-480.7z M1127.2-450.1c0,4.1-3.6,7.7-7.7,7.7
			c-4.1,0-7.7-3.6-7.7-7.7c0-4.4,3.6-7.7,7.7-7.7C1123.6-457.7,1127.2-454.7,1127.2-450.1z M1127.2-480.7h15.3 M1096.6-480.7h15.3
			 M1111.9-465.4h15.3 M1088.9-465.4h7.7 M1119.5-473.1v15.3 M1119.5-496v7.7 M1134.8-457.7v15.3 M1134.8-488.4v15.3 M1104.2-457.7
			v15.3 M1104.2-488.4v15.3 M1111.9-465.4c0,4.1-3.6,7.7-7.7,7.7c-4.1,0-7.7-3.6-7.7-7.7c0-4.4,3.6-7.7,7.7-7.7
			C1108.3-473.1,1111.9-470,1111.9-465.4z M1142.5-465.4h7.7"/>
		<path fill="none" stroke="#92D400" stroke-miterlimit="10" d="M1195.5-488.4c-3.8-0.3-7.1-3.8-7.1-7.6h-15.3
			c0,4.1-3.6,7.7-7.7,7.7c-4.1,0-7.7-3.6-7.7-7.7h-7.7v7.7c4.1,0,7.7,3.1,7.7,7.7c0,4.1-3.6,7.7-7.7,7.7v15.3c3.5,0,7,3.3,7.9,6.8
			 M1157.8-450.1 M1180.2-473.1c-3.8-0.3-7.1-3.8-7.1-7.6c0-4.4,3.6-7.7,7.7-7.7c3.9,0,7.3,2.8,7.6,7 M1157.8-480.7h15.3
			 M1173.1-465.4 M1150.2-465.4h7.7 M1180.8-496v7.7 M1165.5-457.7 M1165.5-488.4v15.3 M1164.9-457.8c-0.2,0-1.2-0.2-1.4-0.2
			c-3.2-0.9-5.7-4-5.7-7.4c0-4.4,3.6-7.7,7.7-7.7c3.4,0,6.4,2.1,7.4,5.5c0,0.2,0.3,1.6,0.1,0.5"/>
	</g>
</g>
</svg>
