<?xml version="1.0" encoding="utf-8"?>
<!-- Generator: Adobe Illustrator 17.1.0, SVG Export Plug-In . SVG Version: 6.00 Build 0)  -->
<!DOCTYPE svg PUBLIC "-//W3C//DTD SVG 1.1//EN" "http://www.w3.org/Graphics/SVG/1.1/DTD/svg11.dtd">
<svg version="1.1" id="svg8021" xmlns="http://www.w3.org/2000/svg" xmlns:xlink="http://www.w3.org/1999/xlink" x="0px" y="0px"
	 viewBox="0 0 500 500" enable-background="new 0 0 500 500" xml:space="preserve">
<path id="path4380" fill="#0088CE" d="M129.4,500H500V127.7L129.4,500z"/>
<path id="path4384" fill="#4E9FDD" d="M84.1,500h45.3L500,129.2V84.1L84.1,500z"/>
<g transform="translate(0 1200)">
	<g transform="rotate(-45)">
		<path fill="none" stroke="#4E9FDD" stroke-miterlimit="10" d="M549.8-482.9c0-5.3-4.3-9.5-9.5-9.5s-9.5,4.3-9.5,9.5
			c0,5.3,4.3,9.5,9.5,9.5S549.8-477.7,549.8-482.9z M530.7-482.9c0-5.3-4.3-9.5-9.5-9.5s-9.5,4.3-9.5,9.5c0,5.3,4.3,9.5,9.5,9.5
			S530.7-477.7,530.7-482.9z M510.8-479.1c0.5-1.2,0.8-2.5,0.8-3.8c0-5.3-4.3-9.5-9.5-9.5c-1.4,0-2.7,0.3-3.8,0.8 M549.8-463.9
			c0-5.3-4.3-9.5-9.5-9.5s-9.5,4.3-9.5,9.5s4.3,9.5,9.5,9.5S549.8-458.6,549.8-463.9z M529.9-460c0.5-1.2,0.8-2.5,0.8-3.8
			c0-5.3-4.3-9.5-9.5-9.5c-1.4,0-2.7,0.3-3.8,0.8 M549-441c0.5-1.2,0.8-2.5,0.8-3.8c0-5.3-4.3-9.5-9.5-9.5c-1.4,0-2.7,0.3-3.8,0.8
			 M540.2-492.5c0,5.3,4.3,9.5,9.5,9.5 M521.2-492.5c0,5.3,4.3,9.5,9.5,9.5s9.5-4.3,9.5-9.5 M502.1-492.5c0,5.3,4.3,9.5,9.5,9.5
			c5.2,0,9.5-4.3,9.5-9.5 M549.8-482.9c-5.2,0-9.5,4.3-9.5,9.5c0,5.2,4.3,9.5,9.5,9.5 M540.2-473.4c0-5.3-4.3-9.5-9.5-9.5
			s-9.5,4.3-9.5,9.5c0,5.3,4.3,9.5,9.5,9.5S540.2-468.1,540.2-473.4z M520.4-469.6c0.5-1.2,0.8-2.5,0.8-3.8c0-5.3-4.3-9.5-9.5-9.5
			c-1.4,0-2.7,0.3-3.8,0.8 M549.8-463.9c-5.2,0-9.5,4.3-9.5,9.5c0,5.2,4.3,9.5,9.5,9.5 M539.4-450.5c0.5-1.2,0.8-2.5,0.8-3.8
			c0-5.3-4.3-9.5-9.5-9.5c-1.4,0-2.7,0.3-3.8,0.8 M501.3-488.7c0.5-1.2,0.8-2.5,0.8-3.8 M549.8-444.8c-1.4,0-2.7,0.3-3.8,0.8"/>
		<path fill="none" stroke="#4E9FDD" stroke-miterlimit="10" d="M607-482.9c0-5.3-4.3-9.5-9.5-9.5s-9.5,4.3-9.5,9.5
			c0,5.3,4.3,9.5,9.5,9.5S607-477.7,607-482.9z M587.9-482.9c0-5.3-4.3-9.5-9.5-9.5s-9.5,4.3-9.5,9.5c0,5.3,4.3,9.5,9.5,9.5
			S587.9-477.7,587.9-482.9z M568.9-482.9c0-5.3-4.3-9.5-9.5-9.5c-5.3,0-9.5,4.3-9.5,9.5c0,5.3,4.3,9.5,9.5,9.5
			C564.6-473.4,568.9-477.7,568.9-482.9z M607-463.9c0-5.3-4.3-9.5-9.5-9.5s-9.5,4.3-9.5,9.5s4.3,9.5,9.5,9.5S607-458.6,607-463.9z
			 M587.9-463.9c0-5.3-4.3-9.5-9.5-9.5s-9.5,4.3-9.5,9.5s4.3,9.5,9.5,9.5S587.9-458.6,587.9-463.9z M568.9-463.9
			c0-5.3-4.3-9.5-9.5-9.5c-5.3,0-9.5,4.3-9.5,9.5s4.3,9.5,9.5,9.5C564.6-454.3,568.9-458.6,568.9-463.9z M607-444.8
			c0-5.3-4.3-9.5-9.5-9.5s-9.5,4.3-9.5,9.5c0,5.3,4.3,9.5,9.5,9.5S607-439.5,607-444.8z M587.9-444.8c0-5.3-4.3-9.5-9.5-9.5
			s-9.5,4.3-9.5,9.5c0,5.3,4.3,9.5,9.5,9.5S587.9-439.5,587.9-444.8z M568.9-444.8c0-5.3-4.3-9.5-9.5-9.5c-5.3,0-9.5,4.3-9.5,9.5
			c0,5.3,4.3,9.5,9.5,9.5C564.6-435.3,568.9-439.5,568.9-444.8z M597.5-492.5c0,5.3,4.3,9.5,9.5,9.5 M578.4-492.5
			c0,5.3,4.3,9.5,9.5,9.5s9.5-4.3,9.5-9.5 M559.3-492.5c0,5.3,4.3,9.5,9.5,9.5c5.2,0,9.5-4.3,9.5-9.5 M607-482.9
			c-5.2,0-9.5,4.3-9.5,9.5c0,5.2,4.3,9.5,9.5,9.5 M597.5-473.4c0-5.3-4.3-9.5-9.5-9.5s-9.5,4.3-9.5,9.5c0,5.3,4.3,9.5,9.5,9.5
			S597.5-468.1,597.5-473.4z M578.4-473.4c0-5.3-4.3-9.5-9.5-9.5c-5.3,0-9.5,4.3-9.5,9.5c0,5.3,4.3,9.5,9.5,9.5
			C574.1-463.9,578.4-468.1,578.4-473.4z M607-463.9c-5.2,0-9.5,4.3-9.5,9.5c0,5.2,4.3,9.5,9.5,9.5 M597.5-454.3
			c0-5.3-4.3-9.5-9.5-9.5s-9.5,4.3-9.5,9.5c0,5.3,4.3,9.5,9.5,9.5S597.5-449.1,597.5-454.3z M578.4-454.3c0-5.3-4.3-9.5-9.5-9.5
			c-5.3,0-9.5,4.3-9.5,9.5c0,5.3,4.3,9.5,9.5,9.5C574.1-444.8,578.4-449.1,578.4-454.3z M549.8-482.9c5.3,0,9.5-4.3,9.5-9.5
			 M549.8-463.9c5.3,0,9.5-4.3,9.5-9.5c0-5.2-4.3-9.5-9.5-9.5 M549.8-444.8c5.3,0,9.5-4.3,9.5-9.5c0-5.2-4.3-9.5-9.5-9.5 M607-444.8
			c-5.2,0-9.5,4.3-9.5,9.5 M597.5-435.3c0-5.2-4.3-9.5-9.5-9.5s-9.5,4.3-9.5,9.5 M578.4-435.3c0-5.2-4.3-9.5-9.5-9.5
			c-5.2,0-9.5,4.3-9.5,9.5 M559.3-435.3c0-5.2-4.3-9.5-9.5-9.5"/>
		<path fill="none" stroke="#4E9FDD" stroke-miterlimit="10" d="M664.3-482.9c0-5.3-4.3-9.5-9.5-9.5c-5.3,0-9.5,4.3-9.5,9.5
			c0,5.3,4.3,9.5,9.5,9.5C660-473.4,664.3-477.7,664.3-482.9z M645.2-482.9c0-5.3-4.3-9.5-9.5-9.5s-9.5,4.3-9.5,9.5
			c0,5.3,4.3,9.5,9.5,9.5S645.2-477.7,645.2-482.9z M626.1-482.9c0-5.3-4.3-9.5-9.5-9.5s-9.5,4.3-9.5,9.5c0,5.3,4.3,9.5,9.5,9.5
			S626.1-477.7,626.1-482.9z M664.3-463.9c0-5.3-4.3-9.5-9.5-9.5c-5.3,0-9.5,4.3-9.5,9.5s4.3,9.5,9.5,9.5
			C660-454.3,664.3-458.6,664.3-463.9z M645.2-463.9c0-5.3-4.3-9.5-9.5-9.5s-9.5,4.3-9.5,9.5s4.3,9.5,9.5,9.5
			S645.2-458.6,645.2-463.9z M626.1-463.9c0-5.3-4.3-9.5-9.5-9.5s-9.5,4.3-9.5,9.5s4.3,9.5,9.5,9.5S626.1-458.6,626.1-463.9z
			 M664.3-444.8c0-5.3-4.3-9.5-9.5-9.5c-5.3,0-9.5,4.3-9.5,9.5c0,5.3,4.3,9.5,9.5,9.5C660-435.3,664.3-439.5,664.3-444.8z
			 M645.2-444.8c0-5.3-4.3-9.5-9.5-9.5s-9.5,4.3-9.5,9.5c0,5.3,4.3,9.5,9.5,9.5S645.2-439.5,645.2-444.8z M626.1-444.8
			c0-5.3-4.3-9.5-9.5-9.5s-9.5,4.3-9.5,9.5c0,5.3,4.3,9.5,9.5,9.5S626.1-439.5,626.1-444.8z M654.7-492.5c0,5.3,4.3,9.5,9.5,9.5
			 M635.6-492.5c0,5.3,4.3,9.5,9.5,9.5c5.2,0,9.5-4.3,9.5-9.5 M616.6-492.5c0,5.3,4.3,9.5,9.5,9.5s9.5-4.3,9.5-9.5 M664.3-482.9
			c-5.2,0-9.5,4.3-9.5,9.5c0,5.2,4.3,9.5,9.5,9.5 M654.7-473.4c0-5.3-4.3-9.5-9.5-9.5c-5.3,0-9.5,4.3-9.5,9.5c0,5.3,4.3,9.5,9.5,9.5
			C650.4-463.9,654.7-468.1,654.7-473.4z M635.6-473.4c0-5.3-4.3-9.5-9.5-9.5s-9.5,4.3-9.5,9.5c0,5.3,4.3,9.5,9.5,9.5
			S635.6-468.1,635.6-473.4z M664.3-463.9c-5.2,0-9.5,4.3-9.5,9.5c0,5.2,4.3,9.5,9.5,9.5 M654.7-454.3c0-5.3-4.3-9.5-9.5-9.5
			c-5.3,0-9.5,4.3-9.5,9.5c0,5.3,4.3,9.5,9.5,9.5C650.4-444.8,654.7-449.1,654.7-454.3z M635.6-454.3c0-5.3-4.3-9.5-9.5-9.5
			s-9.5,4.3-9.5,9.5c0,5.3,4.3,9.5,9.5,9.5S635.6-449.1,635.6-454.3z M607-482.9c5.3,0,9.5-4.3,9.5-9.5 M607-463.9
			c5.3,0,9.5-4.3,9.5-9.5c0-5.2-4.3-9.5-9.5-9.5 M607-444.8c5.3,0,9.5-4.3,9.5-9.5c0-5.2-4.3-9.5-9.5-9.5 M664.3-444.8
			c-5.2,0-9.5,4.3-9.5,9.5 M654.7-435.3c0-5.2-4.3-9.5-9.5-9.5c-5.2,0-9.5,4.3-9.5,9.5 M635.6-435.3c0-5.2-4.3-9.5-9.5-9.5
			s-9.5,4.3-9.5,9.5 M616.6-435.3c0-5.2-4.3-9.5-9.5-9.5"/>
		<path fill="none" stroke="#4E9FDD" stroke-miterlimit="10" d="M721.5-482.9c0-5.3-4.3-9.5-9.5-9.5s-9.5,4.3-9.5,9.5
			c0,5.3,4.3,9.5,9.5,9.5S721.5-477.7,721.5-482.9z M702.4-482.9c0-5.3-4.3-9.5-9.5-9.5s-9.5,4.3-9.5,9.5c0,5.3,4.3,9.5,9.5,9.5
			S702.4-477.7,702.4-482.9z M683.3-482.9c0-5.3-4.3-9.5-9.5-9.5s-9.5,4.3-9.5,9.5c0,5.3,4.3,9.5,9.5,9.5S683.3-477.7,683.3-482.9z
			 M721.5-463.9c0-5.3-4.3-9.5-9.5-9.5s-9.5,4.3-9.5,9.5s4.3,9.5,9.5,9.5S721.5-458.6,721.5-463.9z M702.4-463.9
			c0-5.3-4.3-9.5-9.5-9.5s-9.5,4.3-9.5,9.5s4.3,9.5,9.5,9.5S702.4-458.6,702.4-463.9z M683.3-463.9c0-5.3-4.3-9.5-9.5-9.5
			s-9.5,4.3-9.5,9.5s4.3,9.5,9.5,9.5S683.3-458.6,683.3-463.9z M721.5-444.8c0-5.3-4.3-9.5-9.5-9.5s-9.5,4.3-9.5,9.5
			c0,5.3,4.3,9.5,9.5,9.5S721.5-439.5,721.5-444.8z M702.4-444.8c0-5.3-4.3-9.5-9.5-9.5s-9.5,4.3-9.5,9.5c0,5.3,4.3,9.5,9.5,9.5
			S702.4-439.5,702.4-444.8z M683.3-444.8c0-5.3-4.3-9.5-9.5-9.5s-9.5,4.3-9.5,9.5c0,5.3,4.3,9.5,9.5,9.5S683.3-439.5,683.3-444.8z
			 M711.9-492.5c0,5.3,4.3,9.5,9.5,9.5 M692.9-492.5c0,5.3,4.3,9.5,9.5,9.5s9.5-4.3,9.5-9.5 M673.8-492.5c0,5.3,4.3,9.5,9.5,9.5
			s9.5-4.3,9.5-9.5 M721.5-482.9c-5.2,0-9.5,4.3-9.5,9.5c0,5.2,4.3,9.5,9.5,9.5 M711.9-473.4c0-5.3-4.3-9.5-9.5-9.5
			s-9.5,4.3-9.5,9.5c0,5.3,4.3,9.5,9.5,9.5S711.9-468.1,711.9-473.4z M692.9-473.4c0-5.3-4.3-9.5-9.5-9.5s-9.5,4.3-9.5,9.5
			c0,5.3,4.3,9.5,9.5,9.5S692.9-468.1,692.9-473.4z M721.5-463.9c-5.2,0-9.5,4.3-9.5,9.5c0,5.2,4.3,9.5,9.5,9.5 M711.9-454.3
			c0-5.3-4.3-9.5-9.5-9.5s-9.5,4.3-9.5,9.5c0,5.3,4.3,9.5,9.5,9.5S711.9-449.1,711.9-454.3z M692.9-454.3c0-5.3-4.3-9.5-9.5-9.5
			s-9.5,4.3-9.5,9.5c0,5.3,4.3,9.5,9.5,9.5S692.9-449.1,692.9-454.3z M664.3-482.9c5.3,0,9.5-4.3,9.5-9.5 M664.3-463.9
			c5.3,0,9.5-4.3,9.5-9.5c0-5.2-4.3-9.5-9.5-9.5 M664.3-444.8c5.3,0,9.5-4.3,9.5-9.5c0-5.2-4.3-9.5-9.5-9.5 M721.5-444.8
			c-5.2,0-9.5,4.3-9.5,9.5 M711.9-435.3c0-5.2-4.3-9.5-9.5-9.5s-9.5,4.3-9.5,9.5 M692.9-435.3c0-5.2-4.3-9.5-9.5-9.5
			s-9.5,4.3-9.5,9.5 M673.8-435.3c0-5.2-4.3-9.5-9.5-9.5"/>
		<path fill="none" stroke="#4E9FDD" stroke-miterlimit="10" d="M778.7-482.9c0-5.3-4.3-9.5-9.5-9.5s-9.5,4.3-9.5,9.5
			c0,5.3,4.3,9.5,9.5,9.5S778.7-477.7,778.7-482.9z M759.6-482.9c0-5.3-4.3-9.5-9.5-9.5s-9.5,4.3-9.5,9.5c0,5.3,4.3,9.5,9.5,9.5
			S759.6-477.7,759.6-482.9z M740.6-482.9c0-5.3-4.3-9.5-9.5-9.5s-9.5,4.3-9.5,9.5c0,5.3,4.3,9.5,9.5,9.5S740.6-477.7,740.6-482.9z
			 M778.7-463.9c0-5.3-4.3-9.5-9.5-9.5s-9.5,4.3-9.5,9.5s4.3,9.5,9.5,9.5S778.7-458.6,778.7-463.9z M759.6-463.9
			c0-5.3-4.3-9.5-9.5-9.5s-9.5,4.3-9.5,9.5s4.3,9.5,9.5,9.5S759.6-458.6,759.6-463.9z M740.6-463.9c0-5.3-4.3-9.5-9.5-9.5
			s-9.5,4.3-9.5,9.5s4.3,9.5,9.5,9.5S740.6-458.6,740.6-463.9z M778.7-444.8c0-5.3-4.3-9.5-9.5-9.5s-9.5,4.3-9.5,9.5
			c0,5.3,4.3,9.5,9.5,9.5S778.7-439.5,778.7-444.8z M759.6-444.8c0-5.3-4.3-9.5-9.5-9.5s-9.5,4.3-9.5,9.5c0,5.3,4.3,9.5,9.5,9.5
			S759.6-439.5,759.6-444.8z M740.6-444.8c0-5.3-4.3-9.5-9.5-9.5s-9.5,4.3-9.5,9.5c0,5.3,4.3,9.5,9.5,9.5S740.6-439.5,740.6-444.8z
			 M769.2-492.5c0,5.3,4.3,9.5,9.5,9.5 M750.1-492.5c0,5.3,4.3,9.5,9.5,9.5s9.5-4.3,9.5-9.5 M731-492.5c0,5.3,4.3,9.5,9.5,9.5
			s9.5-4.3,9.5-9.5 M778.7-482.9c-5.2,0-9.5,4.3-9.5,9.5c0,5.2,4.3,9.5,9.5,9.5 M769.2-473.4c0-5.3-4.3-9.5-9.5-9.5
			s-9.5,4.3-9.5,9.5c0,5.3,4.3,9.5,9.5,9.5S769.2-468.1,769.2-473.4z M750.1-473.4c0-5.3-4.3-9.5-9.5-9.5s-9.5,4.3-9.5,9.5
			c0,5.3,4.3,9.5,9.5,9.5S750.1-468.1,750.1-473.4z M778.7-463.9c-5.2,0-9.5,4.3-9.5,9.5c0,5.2,4.3,9.5,9.5,9.5 M769.2-454.3
			c0-5.3-4.3-9.5-9.5-9.5s-9.5,4.3-9.5,9.5c0,5.3,4.3,9.5,9.5,9.5S769.2-449.1,769.2-454.3z M750.1-454.3c0-5.3-4.3-9.5-9.5-9.5
			s-9.5,4.3-9.5,9.5c0,5.3,4.3,9.5,9.5,9.5S750.1-449.1,750.1-454.3z M721.5-482.9c5.3,0,9.5-4.3,9.5-9.5 M721.5-463.9
			c5.3,0,9.5-4.3,9.5-9.5c0-5.2-4.3-9.5-9.5-9.5 M721.5-444.8c5.3,0,9.5-4.3,9.5-9.5c0-5.2-4.3-9.5-9.5-9.5 M778.7-444.8
			c-5.2,0-9.5,4.3-9.5,9.5 M769.2-435.3c0-5.2-4.3-9.5-9.5-9.5s-9.5,4.3-9.5,9.5 M750.1-435.3c0-5.2-4.3-9.5-9.5-9.5
			s-9.5,4.3-9.5,9.5 M731-435.3c0-5.2-4.3-9.5-9.5-9.5"/>
		<path fill="none" stroke="#4E9FDD" stroke-miterlimit="10" d="M836-482.9c0-5.3-4.3-9.5-9.5-9.5s-9.5,4.3-9.5,9.5
			c0,5.3,4.3,9.5,9.5,9.5S836-477.7,836-482.9z M816.9-482.9c0-5.3-4.3-9.5-9.5-9.5s-9.5,4.3-9.5,9.5c0,5.3,4.3,9.5,9.5,9.5
			S816.9-477.7,816.9-482.9z M797.8-482.9c0-5.3-4.3-9.5-9.5-9.5s-9.5,4.3-9.5,9.5c0,5.3,4.3,9.5,9.5,9.5S797.8-477.7,797.8-482.9z
			 M836-463.9c0-5.3-4.3-9.5-9.5-9.5s-9.5,4.3-9.5,9.5s4.3,9.5,9.5,9.5S836-458.6,836-463.9z M816.9-463.9c0-5.3-4.3-9.5-9.5-9.5
			s-9.5,4.3-9.5,9.5s4.3,9.5,9.5,9.5S816.9-458.6,816.9-463.9z M797.8-463.9c0-5.3-4.3-9.5-9.5-9.5s-9.5,4.3-9.5,9.5
			s4.3,9.5,9.5,9.5S797.8-458.6,797.8-463.9z M836-444.8c0-5.3-4.3-9.5-9.5-9.5s-9.5,4.3-9.5,9.5c0,5.3,4.3,9.5,9.5,9.5
			S836-439.5,836-444.8z M816.9-444.8c0-5.3-4.3-9.5-9.5-9.5s-9.5,4.3-9.5,9.5c0,5.3,4.3,9.5,9.5,9.5S816.9-439.5,816.9-444.8z
			 M797.8-444.8c0-5.3-4.3-9.5-9.5-9.5s-9.5,4.3-9.5,9.5c0,5.3,4.3,9.5,9.5,9.5S797.8-439.5,797.8-444.8z M826.4-492.5
			c0,5.3,4.3,9.5,9.5,9.5 M807.3-492.5c0,5.3,4.3,9.5,9.5,9.5s9.5-4.3,9.5-9.5 M788.3-492.5c0,5.3,4.3,9.5,9.5,9.5s9.5-4.3,9.5-9.5
			 M836-482.9c-5.2,0-9.5,4.3-9.5,9.5c0,5.2,4.3,9.5,9.5,9.5 M826.4-473.4c0-5.3-4.3-9.5-9.5-9.5s-9.5,4.3-9.5,9.5
			c0,5.3,4.3,9.5,9.5,9.5S826.4-468.1,826.4-473.4z M807.3-473.4c0-5.3-4.3-9.5-9.5-9.5s-9.5,4.3-9.5,9.5c0,5.3,4.3,9.5,9.5,9.5
			S807.3-468.1,807.3-473.4z M836-463.9c-5.2,0-9.5,4.3-9.5,9.5c0,5.2,4.3,9.5,9.5,9.5 M826.4-454.3c0-5.3-4.3-9.5-9.5-9.5
			s-9.5,4.3-9.5,9.5c0,5.3,4.3,9.5,9.5,9.5S826.4-449.1,826.4-454.3z M807.3-454.3c0-5.3-4.3-9.5-9.5-9.5s-9.5,4.3-9.5,9.5
			c0,5.3,4.3,9.5,9.5,9.5S807.3-449.1,807.3-454.3z M778.7-482.9c5.3,0,9.5-4.3,9.5-9.5 M778.7-463.9c5.3,0,9.5-4.3,9.5-9.5
			c0-5.2-4.3-9.5-9.5-9.5 M778.7-444.8c5.3,0,9.5-4.3,9.5-9.5c0-5.2-4.3-9.5-9.5-9.5 M836-444.8c-5.2,0-9.5,4.3-9.5,9.5
			 M826.4-435.3c0-5.2-4.3-9.5-9.5-9.5s-9.5,4.3-9.5,9.5 M807.3-435.3c0-5.2-4.3-9.5-9.5-9.5s-9.5,4.3-9.5,9.5 M788.3-435.3
			c0-5.2-4.3-9.5-9.5-9.5"/>
		<path fill="none" stroke="#4E9FDD" stroke-miterlimit="10" d="M893.2-482.9c0-5.3-4.3-9.5-9.5-9.5s-9.5,4.3-9.5,9.5
			c0,5.3,4.3,9.5,9.5,9.5S893.2-477.7,893.2-482.9z M874.1-482.9c0-5.3-4.3-9.5-9.5-9.5c-5.3,0-9.5,4.3-9.5,9.5
			c0,5.3,4.3,9.5,9.5,9.5C869.8-473.4,874.1-477.7,874.1-482.9z M855-482.9c0-5.3-4.3-9.5-9.5-9.5c-5.3,0-9.5,4.3-9.5,9.5
			c0,5.3,4.3,9.5,9.5,9.5C850.8-473.4,855-477.7,855-482.9z M893.2-463.9c0-5.3-4.3-9.5-9.5-9.5s-9.5,4.3-9.5,9.5s4.3,9.5,9.5,9.5
			S893.2-458.6,893.2-463.9z M874.1-463.9c0-5.3-4.3-9.5-9.5-9.5c-5.3,0-9.5,4.3-9.5,9.5s4.3,9.5,9.5,9.5
			C869.8-454.3,874.1-458.6,874.1-463.9z M855-463.9c0-5.3-4.3-9.5-9.5-9.5c-5.3,0-9.5,4.3-9.5,9.5s4.3,9.5,9.5,9.5
			C850.8-454.3,855-458.6,855-463.9z M893.2-444.8c0-5.3-4.3-9.5-9.5-9.5s-9.5,4.3-9.5,9.5c0,5.3,4.3,9.5,9.5,9.5
			S893.2-439.5,893.2-444.8z M874.1-444.8c0-5.3-4.3-9.5-9.5-9.5c-5.3,0-9.5,4.3-9.5,9.5c0,5.3,4.3,9.5,9.5,9.5
			C869.8-435.3,874.1-439.5,874.1-444.8z M855-444.8c0-5.3-4.3-9.5-9.5-9.5c-5.3,0-9.5,4.3-9.5,9.5c0,5.3,4.3,9.5,9.5,9.5
			C850.8-435.3,855-439.5,855-444.8z M883.6-492.5c0,5.3,4.3,9.5,9.5,9.5 M864.6-492.5c0,5.3,4.3,9.5,9.5,9.5s9.5-4.3,9.5-9.5
			 M845.5-492.5c0,5.3,4.3,9.5,9.5,9.5c5.2,0,9.5-4.3,9.5-9.5 M893.2-482.9c-5.2,0-9.5,4.3-9.5,9.5c0,5.2,4.3,9.5,9.5,9.5
			 M883.6-473.4c0-5.3-4.3-9.5-9.5-9.5s-9.5,4.3-9.5,9.5c0,5.3,4.3,9.5,9.5,9.5S883.6-468.1,883.6-473.4z M864.6-473.4
			c0-5.3-4.3-9.5-9.5-9.5c-5.3,0-9.5,4.3-9.5,9.5c0,5.3,4.3,9.5,9.5,9.5C860.3-463.9,864.6-468.1,864.6-473.4z M893.2-463.9
			c-5.2,0-9.5,4.3-9.5,9.5c0,5.2,4.3,9.5,9.5,9.5 M883.6-454.3c0-5.3-4.3-9.5-9.5-9.5s-9.5,4.3-9.5,9.5c0,5.3,4.3,9.5,9.5,9.5
			S883.6-449.1,883.6-454.3z M864.6-454.3c0-5.3-4.3-9.5-9.5-9.5c-5.3,0-9.5,4.3-9.5,9.5c0,5.3,4.3,9.5,9.5,9.5
			C860.3-444.8,864.6-449.1,864.6-454.3z M836-482.9c5.3,0,9.5-4.3,9.5-9.5 M836-463.9c5.3,0,9.5-4.3,9.5-9.5c0-5.2-4.3-9.5-9.5-9.5
			 M836-444.8c5.3,0,9.5-4.3,9.5-9.5c0-5.2-4.3-9.5-9.5-9.5 M893.2-444.8c-5.2,0-9.5,4.3-9.5,9.5 M883.6-435.3
			c0-5.2-4.3-9.5-9.5-9.5s-9.5,4.3-9.5,9.5 M864.6-435.3c0-5.2-4.3-9.5-9.5-9.5c-5.2,0-9.5,4.3-9.5,9.5 M845.5-435.3
			c0-5.2-4.3-9.5-9.5-9.5"/>
		<path fill="none" stroke="#4E9FDD" stroke-miterlimit="10" d="M950.4-482.9c0-5.3-4.3-9.5-9.5-9.5c-5.3,0-9.5,4.3-9.5,9.5
			c0,5.3,4.3,9.5,9.5,9.5C946.2-473.4,950.4-477.7,950.4-482.9z M931.3-482.9c0-5.3-4.3-9.5-9.5-9.5s-9.5,4.3-9.5,9.5
			c0,5.3,4.3,9.5,9.5,9.5S931.3-477.7,931.3-482.9z M912.3-482.9c0-5.3-4.3-9.5-9.5-9.5s-9.5,4.3-9.5,9.5c0,5.3,4.3,9.5,9.5,9.5
			S912.3-477.7,912.3-482.9z M950.4-463.9c0-5.3-4.3-9.5-9.5-9.5c-5.3,0-9.5,4.3-9.5,9.5s4.3,9.5,9.5,9.5
			C946.2-454.3,950.4-458.6,950.4-463.9z M931.3-463.9c0-5.3-4.3-9.5-9.5-9.5s-9.5,4.3-9.5,9.5s4.3,9.5,9.5,9.5
			S931.3-458.6,931.3-463.9z M912.3-463.9c0-5.3-4.3-9.5-9.5-9.5s-9.5,4.3-9.5,9.5s4.3,9.5,9.5,9.5S912.3-458.6,912.3-463.9z
			 M950.4-444.8c0-5.3-4.3-9.5-9.5-9.5c-5.3,0-9.5,4.3-9.5,9.5c0,5.3,4.3,9.5,9.5,9.5C946.2-435.3,950.4-439.5,950.4-444.8z
			 M931.3-444.8c0-5.3-4.3-9.5-9.5-9.5s-9.5,4.3-9.5,9.5c0,5.3,4.3,9.5,9.5,9.5S931.3-439.5,931.3-444.8z M912.3-444.8
			c0-5.3-4.3-9.5-9.5-9.5s-9.5,4.3-9.5,9.5c0,5.3,4.3,9.5,9.5,9.5S912.3-439.5,912.3-444.8z M940.9-492.5c0,5.3,4.3,9.5,9.5,9.5
			 M921.8-492.5c0,5.3,4.3,9.5,9.5,9.5c5.2,0,9.5-4.3,9.5-9.5 M902.7-492.5c0,5.3,4.3,9.5,9.5,9.5s9.5-4.3,9.5-9.5 M950.4-482.9
			c-5.2,0-9.5,4.3-9.5,9.5c0,5.2,4.3,9.5,9.5,9.5 M940.9-473.4c0-5.3-4.3-9.5-9.5-9.5c-5.3,0-9.5,4.3-9.5,9.5c0,5.3,4.3,9.5,9.5,9.5
			C936.6-463.9,940.9-468.1,940.9-473.4z M921.8-473.4c0-5.3-4.3-9.5-9.5-9.5s-9.5,4.3-9.5,9.5c0,5.3,4.3,9.5,9.5,9.5
			S921.8-468.1,921.8-473.4z M950.4-463.9c-5.2,0-9.5,4.3-9.5,9.5c0,5.2,4.3,9.5,9.5,9.5 M940.9-454.3c0-5.3-4.3-9.5-9.5-9.5
			c-5.3,0-9.5,4.3-9.5,9.5c0,5.3,4.3,9.5,9.5,9.5C936.6-444.8,940.9-449.1,940.9-454.3z M921.8-454.3c0-5.3-4.3-9.5-9.5-9.5
			s-9.5,4.3-9.5,9.5c0,5.3,4.3,9.5,9.5,9.5S921.8-449.1,921.8-454.3z M893.2-482.9c5.3,0,9.5-4.3,9.5-9.5 M893.2-463.9
			c5.3,0,9.5-4.3,9.5-9.5c0-5.2-4.3-9.5-9.5-9.5 M893.2-444.8c5.3,0,9.5-4.3,9.5-9.5c0-5.2-4.3-9.5-9.5-9.5 M950.4-444.8
			c-5.2,0-9.5,4.3-9.5,9.5 M940.9-435.3c0-5.2-4.3-9.5-9.5-9.5c-5.2,0-9.5,4.3-9.5,9.5 M921.8-435.3c0-5.2-4.3-9.5-9.5-9.5
			s-9.5,4.3-9.5,9.5 M902.7-435.3c0-5.2-4.3-9.5-9.5-9.5"/>
		<path fill="none" stroke="#4E9FDD" stroke-miterlimit="10" d="M1007.7-482.9c0-5.3-4.3-9.5-9.5-9.5s-9.5,4.3-9.5,9.5
			c0,5.3,4.3,9.5,9.5,9.5S1007.7-477.7,1007.7-482.9z M988.6-482.9c0-5.3-4.3-9.5-9.5-9.5s-9.5,4.3-9.5,9.5c0,5.3,4.3,9.5,9.5,9.5
			S988.6-477.7,988.6-482.9z M969.5-482.9c0-5.3-4.3-9.5-9.5-9.5c-5.3,0-9.5,4.3-9.5,9.5c0,5.3,4.3,9.5,9.5,9.5
			C965.2-473.4,969.5-477.7,969.5-482.9z M1007.7-463.9c0-5.3-4.3-9.5-9.5-9.5s-9.5,4.3-9.5,9.5s4.3,9.5,9.5,9.5
			S1007.7-458.6,1007.7-463.9z M988.6-463.9c0-5.3-4.3-9.5-9.5-9.5s-9.5,4.3-9.5,9.5s4.3,9.5,9.5,9.5S988.6-458.6,988.6-463.9z
			 M969.5-463.9c0-5.3-4.3-9.5-9.5-9.5c-5.3,0-9.5,4.3-9.5,9.5s4.3,9.5,9.5,9.5C965.2-454.3,969.5-458.6,969.5-463.9z M1007.7-444.8
			c0-5.3-4.3-9.5-9.5-9.5s-9.5,4.3-9.5,9.5c0,5.3,4.3,9.5,9.5,9.5S1007.7-439.5,1007.7-444.8z M988.6-444.8c0-5.3-4.3-9.5-9.5-9.5
			s-9.5,4.3-9.5,9.5c0,5.3,4.3,9.5,9.5,9.5S988.6-439.5,988.6-444.8z M969.5-444.8c0-5.3-4.3-9.5-9.5-9.5c-5.3,0-9.5,4.3-9.5,9.5
			c0,5.3,4.3,9.5,9.5,9.5C965.2-435.3,969.5-439.5,969.5-444.8z M998.1-492.5c0,5.3,4.3,9.5,9.5,9.5 M979-492.5
			c0,5.3,4.3,9.5,9.5,9.5s9.5-4.3,9.5-9.5 M960-492.5c0,5.3,4.3,9.5,9.5,9.5s9.5-4.3,9.5-9.5 M1007.7-482.9c-5.2,0-9.5,4.3-9.5,9.5
			c0,5.2,4.3,9.5,9.5,9.5 M998.1-473.4c0-5.3-4.3-9.5-9.5-9.5s-9.5,4.3-9.5,9.5c0,5.3,4.3,9.5,9.5,9.5S998.1-468.1,998.1-473.4z
			 M979-473.4c0-5.3-4.3-9.5-9.5-9.5s-9.5,4.3-9.5,9.5c0,5.3,4.3,9.5,9.5,9.5S979-468.1,979-473.4z M1007.7-463.9
			c-5.2,0-9.5,4.3-9.5,9.5c0,5.2,4.3,9.5,9.5,9.5 M998.1-454.3c0-5.3-4.3-9.5-9.5-9.5s-9.5,4.3-9.5,9.5c0,5.3,4.3,9.5,9.5,9.5
			S998.1-449.1,998.1-454.3z M979-454.3c0-5.3-4.3-9.5-9.5-9.5s-9.5,4.3-9.5,9.5c0,5.3,4.3,9.5,9.5,9.5S979-449.1,979-454.3z
			 M950.4-482.9c5.3,0,9.5-4.3,9.5-9.5 M950.4-463.9c5.3,0,9.5-4.3,9.5-9.5c0-5.2-4.3-9.5-9.5-9.5 M950.4-444.8
			c5.3,0,9.5-4.3,9.5-9.5c0-5.2-4.3-9.5-9.5-9.5 M1007.7-444.8c-5.2,0-9.5,4.3-9.5,9.5 M998.1-435.3c0-5.2-4.3-9.5-9.5-9.5
			s-9.5,4.3-9.5,9.5 M979-435.3c0-5.2-4.3-9.5-9.5-9.5s-9.5,4.3-9.5,9.5 M960-435.3c0-5.2-4.3-9.5-9.5-9.5"/>
		<path fill="none" stroke="#4E9FDD" stroke-miterlimit="10" d="M1064.9-482.9c0-5.3-4.3-9.5-9.5-9.5c-5.3,0-9.5,4.3-9.5,9.5
			c0,5.3,4.3,9.5,9.5,9.5C1060.6-473.4,1064.9-477.7,1064.9-482.9z M1045.8-482.9c0-5.3-4.3-9.5-9.5-9.5c-5.3,0-9.5,4.3-9.5,9.5
			c0,5.3,4.3,9.5,9.5,9.5C1041.5-473.4,1045.8-477.7,1045.8-482.9z M1026.7-482.9c0-5.3-4.3-9.5-9.5-9.5s-9.5,4.3-9.5,9.5
			c0,5.3,4.3,9.5,9.5,9.5S1026.7-477.7,1026.7-482.9z M1064.9-463.9c0-5.3-4.3-9.5-9.5-9.5c-5.3,0-9.5,4.3-9.5,9.5s4.3,9.5,9.5,9.5
			C1060.6-454.3,1064.9-458.6,1064.9-463.9z M1045.8-463.9c0-5.3-4.3-9.5-9.5-9.5c-5.3,0-9.5,4.3-9.5,9.5s4.3,9.5,9.5,9.5
			C1041.5-454.3,1045.8-458.6,1045.8-463.9z M1026.7-463.9c0-5.3-4.3-9.5-9.5-9.5s-9.5,4.3-9.5,9.5s4.3,9.5,9.5,9.5
			S1026.7-458.6,1026.7-463.9z M1064.9-444.8c0-5.3-4.3-9.5-9.5-9.5c-5.3,0-9.5,4.3-9.5,9.5c0,5.3,4.3,9.5,9.5,9.5
			C1060.6-435.3,1064.9-439.5,1064.9-444.8z M1045.8-444.8c0-5.3-4.3-9.5-9.5-9.5c-5.3,0-9.5,4.3-9.5,9.5c0,5.3,4.3,9.5,9.5,9.5
			C1041.5-435.3,1045.8-439.5,1045.8-444.8z M1026.7-444.8c0-5.3-4.3-9.5-9.5-9.5s-9.5,4.3-9.5,9.5c0,5.3,4.3,9.5,9.5,9.5
			S1026.7-439.5,1026.7-444.8z M1055.4-492.5c0,5.3,4.3,9.5,9.5,9.5 M1036.3-492.5c0,5.3,4.3,9.5,9.5,9.5s9.5-4.3,9.5-9.5
			 M1017.2-492.5c0,5.3,4.3,9.5,9.5,9.5s9.5-4.3,9.5-9.5 M1064.9-482.9c-5.2,0-9.5,4.3-9.5,9.5c0,5.2,4.3,9.5,9.5,9.5 M1055.4-473.4
			c0-5.3-4.3-9.5-9.5-9.5c-5.3,0-9.5,4.3-9.5,9.5c0,5.3,4.3,9.5,9.5,9.5C1051.1-463.9,1055.4-468.1,1055.4-473.4z M1036.3-473.4
			c0-5.3-4.3-9.3-9.5-9.5c-6.6-0.3-12,3.7-9.5,9.5c2,4.9,4.3,9.5,9.5,9.5C1032-463.9,1036.3-468.1,1036.3-473.4z M1064.9-463.9
			c-5.2,0-9.5,4.3-9.5,9.5c0,5.2,4.3,9.5,9.5,9.5 M1055.4-454.3c0-5.3-4.3-9.5-9.5-9.5c-5.3,0-9.5,4.3-9.5,9.5
			c0,5.3,4.3,9.5,9.5,9.5C1051.1-444.8,1055.4-449.1,1055.4-454.3z M1036.3-454.3c0-5.3-4.3-9.5-9.5-9.5c-5.3,0-9.5,4.3-9.5,9.5
			c0,5.3,4.3,9.5,9.5,9.5C1032-444.8,1036.3-449.1,1036.3-454.3z M1007.7-482.9c5.3,0,9.5-4.3,9.5-9.5 M1007.7-463.9
			c5.3,0,9.5-4.3,9.5-9.5c0-5.2-4.3-9.5-9.5-9.5 M1007.7-444.8c5.3,0,9.5-4.3,9.5-9.5c0-5.2-4.3-9.5-9.5-9.5 M1064.9-444.8
			c-5.2,0-9.5,4.3-9.5,9.5 M1055.4-435.3c0-5.2-4.3-9.5-9.5-9.5s-9.5,4.3-9.5,9.5 M1036.3-435.3c0-5.2-4.3-9.5-9.5-9.5
			s-9.5,4.3-9.5,9.5 M1017.2-435.3c0-5.2-4.3-9.5-9.5-9.5"/>
		<path fill="none" stroke="#4E9FDD" stroke-miterlimit="10" d="M1122.1-482.9c0-5.3-4.3-9.5-9.5-9.5c-5.3,0-9.5,4.3-9.5,9.5
			c0,5.3,4.3,9.5,9.5,9.5C1117.9-473.4,1122.1-477.7,1122.1-482.9z M1103-482.9c0-5.3-4.3-9.5-9.5-9.5c-5.3,0-9.5,4.3-9.5,9.5
			c0,5.3,4.3,9.5,9.5,9.5C1098.8-473.4,1103-477.7,1103-482.9z M1084-482.9c0-5.3-4.3-9.5-9.5-9.5c-5.3,0-9.5,4.3-9.5,9.5
			c0,5.3,4.3,9.5,9.5,9.5C1079.7-473.4,1084-477.7,1084-482.9z M1122.1-463.9c0-5.3-4.3-9.5-9.5-9.5c-5.3,0-9.5,4.3-9.5,9.5
			s4.3,9.5,9.5,9.5C1117.9-454.3,1122.1-458.6,1122.1-463.9z M1103-463.9c0-5.3-4.3-9.5-9.5-9.5c-5.3,0-9.5,4.3-9.5,9.5
			s4.3,9.5,9.5,9.5C1098.8-454.3,1103-458.6,1103-463.9z M1084-463.9c0-5.3-4.3-9.5-9.5-9.5c-5.3,0-9.5,4.3-9.5,9.5s4.3,9.5,9.5,9.5
			C1079.7-454.3,1084-458.6,1084-463.9z M1122.1-444.8c0-5.3-4.3-9.5-9.5-9.5c-5.3,0-9.5,4.3-9.5,9.5c0,5.3,4.3,9.5,9.5,9.5
			C1117.9-435.3,1122.1-439.5,1122.1-444.8z M1103-444.8c0-5.3-4.3-9.5-9.5-9.5c-5.3,0-9.5,4.3-9.5,9.5c0,5.3,4.3,9.5,9.5,9.5
			C1098.8-435.3,1103-439.5,1103-444.8z M1084-444.8c0-5.3-4.3-9.5-9.5-9.5c-5.3,0-9.5,4.3-9.5,9.5c0,5.3,4.3,9.5,9.5,9.5
			C1079.7-435.3,1084-439.5,1084-444.8z M1112.6-492.5c0,5.3,4.3,9.5,9.5,9.5 M1093.5-492.5c0,5.3,4.3,9.5,9.5,9.5s9.5-4.3,9.5-9.5
			 M1074.4-492.5c0,5.3,4.3,9.5,9.5,9.5s9.5-4.3,9.5-9.5 M1122.1-482.9c-5.2,0-9.5,4.3-9.5,9.5c0,5.2,4.3,9.5,9.5,9.5 M1112.6-473.4
			c0-5.3-4.3-9.5-9.5-9.5s-9.5,4.3-9.5,9.5c0,5.3,4.3,9.5,9.5,9.5S1112.6-468.1,1112.6-473.4z M1093.5-473.4c0-5.3-4.3-9.5-9.5-9.5
			c-5.3,0-9.5,4.3-9.5,9.5c0,5.3,4.3,9.5,9.5,9.5C1089.2-463.9,1093.5-468.1,1093.5-473.4z M1122.1-463.9c-5.2,0-9.5,4.3-9.5,9.5
			c0,5.2,4.3,9.5,9.5,9.5 M1112.6-454.3c0-5.3-4.3-9.5-9.5-9.5s-9.5,4.3-9.5,9.5c0,5.3,4.3,9.5,9.5,9.5S1112.6-449.1,1112.6-454.3z
			 M1093.5-454.3c0-5.3-4.3-9.5-9.5-9.5c-5.3,0-9.5,4.3-9.5,9.5c0,5.3,4.3,9.5,9.5,9.5C1089.2-444.8,1093.5-449.1,1093.5-454.3z
			 M1064.9-482.9c5.3,0,9.5-4.3,9.5-9.5 M1064.9-463.9c5.3,0,9.5-4.3,9.5-9.5c0-5.2-4.3-9.5-9.5-9.5 M1064.9-444.8
			c5.3,0,9.5-4.3,9.5-9.5c0-5.2-4.3-9.5-9.5-9.5 M1122.1-444.8c-5.2,0-9.5,4.3-9.5,9.5 M1112.6-435.3c0-5.2-4.3-9.5-9.5-9.5
			s-9.5,4.3-9.5,9.5 M1093.5-435.3c0-5.2-4.3-9.5-9.5-9.5s-9.5,4.3-9.5,9.5 M1074.4-435.3c0-5.2-4.3-9.5-9.5-9.5"/>
		<path fill="none" stroke="#4E9FDD" stroke-miterlimit="10" d="M1179.4-482.9c0-5.3-4.3-9.5-9.5-9.5c-5.3,0-9.5,4.3-9.5,9.5
			c0,5.3,4.3,9.5,9.5,9.5C1175.1-473.4,1179.4-477.7,1179.4-482.9z M1160.3-482.9c0-5.3-4.3-9.5-9.5-9.5c-5.3,0-9.5,4.3-9.5,9.5
			c0,5.3,4.3,9.5,9.5,9.5C1156-473.4,1160.3-477.7,1160.3-482.9z M1141.2-482.9c0-5.3-4.3-9.5-9.5-9.5c-5.3,0-9.5,4.3-9.5,9.5
			c0,5.3,4.3,9.5,9.5,9.5C1136.9-473.4,1141.2-477.7,1141.2-482.9z M1177.1-470c-1.7-2.1-4.4-3.4-7.3-3.4c-5.3,0-9.5,4.3-9.5,9.5
			c0,2.9,1.3,5.5,3.4,7.3 M1160.3-463.9c0-5.3-4.3-9.5-9.5-9.5c-5.3,0-9.5,4.3-9.5,9.5s4.3,9.5,9.5,9.5
			C1156-454.3,1160.3-458.6,1160.3-463.9z M1141.2-463.9c0-5.3-4.3-9.5-9.5-9.5c-5.3,0-9.5,4.3-9.5,9.5s4.3,9.5,9.5,9.5
			C1136.9-454.3,1141.2-458.6,1141.2-463.9z M1158-450.9c-1.7-2.1-4.4-3.4-7.3-3.4c-5.3,0-9.5,4.3-9.5,9.5c0,2.9,1.3,5.5,3.4,7.3
			 M1141.2-444.8c0-5.3-4.3-9.5-9.5-9.5c-5.3,0-9.5,4.3-9.5,9.5c0,5.3,4.3,9.5,9.5,9.5C1136.9-435.3,1141.2-439.5,1141.2-444.8z
			 M1169.8-492.5c0,5.3,4.3,9.5,9.5,9.5 M1150.7-492.5c0,5.3,4.3,9.5,9.5,9.5s9.5-4.3,9.5-9.5 M1131.7-492.5c0,5.3,4.3,9.5,9.5,9.5
			s9.5-4.3,9.5-9.5 M1179.4-482.9c-5.2,0-9.5,4.3-9.5,9.5c0,2.9,1.3,5.5,3.4,7.3 M1169.8-473.4c0-5.3-4.3-9.5-9.5-9.5
			c-5.3,0-9.5,4.3-9.5,9.5c0,5.3,4.3,9.5,9.5,9.5C1165.5-463.9,1169.8-468.1,1169.8-473.4z M1150.7-473.4c0-5.3-4.3-9.5-9.5-9.5
			c-5.3,0-9.5,4.3-9.5,9.5c0,5.3,4.3,9.5,9.5,9.5C1146.5-463.9,1150.7-468.1,1150.7-473.4z M1167.6-460.5c-1.7-2.1-4.4-3.4-7.3-3.4
			c-5.3,0-9.5,4.3-9.5,9.5c0,2.9,1.3,5.5,3.4,7.3 M1150.7-454.3c0-5.3-4.3-9.5-9.5-9.5c-5.3,0-9.5,4.3-9.5,9.5
			c0,5.3,4.3,9.5,9.5,9.5C1146.5-444.8,1150.7-449.1,1150.7-454.3z M1122.1-482.9c5.3,0,9.5-4.3,9.5-9.5 M1122.1-463.9
			c5.3,0,9.5-4.3,9.5-9.5c0-5.2-4.3-9.5-9.5-9.5 M1122.1-444.8c5.3,0,9.5-4.3,9.5-9.5c0-5.2-4.3-9.5-9.5-9.5 M1148.5-441.4
			c-1.8-2.1-4.4-3.4-7.3-3.4c-5.2,0-9.5,4.3-9.5,9.5 M1131.7-435.3c0-5.2-4.3-9.5-9.5-9.5"/>
		<path fill="none" stroke="#4E9FDD" stroke-miterlimit="10" d="M1196.2-489.1c-1.7-2.1-4.4-3.4-7.3-3.4c-5.3,0-9.5,4.3-9.5,9.5
			c0,2.9,1.3,5.5,3.4,7.3 M1188.9-492.5c0,2.9,1.3,5.5,3.4,7.3 M1179.4-482.9c5.3,0,9.5-4.3,9.5-9.5 M1186.7-479.5
			c-1.8-2.1-4.4-3.4-7.3-3.4"/>
	</g>
</g>
</svg>
