<?xml version="1.0" encoding="utf-8"?>
<!-- Generator: Adobe Illustrator 17.1.0, SVG Export Plug-In . SVG Version: 6.00 Build 0)  -->
<!DOCTYPE svg PUBLIC "-//W3C//DTD SVG 1.1//EN" "http://www.w3.org/Graphics/SVG/1.1/DTD/svg11.dtd">
<svg version="1.1" id="svg8021" xmlns="http://www.w3.org/2000/svg" xmlns:xlink="http://www.w3.org/1999/xlink" x="0px" y="0px"
	 viewBox="0 0 500 500" enable-background="new 0 0 500 500" xml:space="preserve">
<path id="path4380" fill="#3F9C35" d="M129.4,500H500V127.7L129.4,500z"/>
<path id="path4384" fill="#92D400" d="M84.1,500h45.3L500,129.2V84.1L84.1,500z"/>
<g transform="translate(400 1200)">
	<g transform="rotate(-45)">
		<path fill="none" stroke="#92D400" stroke-miterlimit="10" d="M213.8-775.9 M228.2-775.9c0,3.9-3.3,7.2-7.2,7.2 M221-768.7"/>
		<path fill="none" stroke="#92D400" stroke-miterlimit="10" d="M257.9-775.9c0,3.9-3.3,7.2-7.2,7.2c-3.9,0-7.2-3.3-7.2-7.2
			 M243.5-766.3c0,4-3.2,7.2-7.2,7.2c-4,0-7.2-3.2-7.2-7.2c0-4,3.2-7.2,7.2-7.2C240.3-773.5,243.5-770.3,243.5-766.3z M271.6-766.3
			c0,4-3.2,7.2-7.2,7.2s-7.2-3.2-7.2-7.2c0-4,3.2-7.2,7.2-7.2S271.6-770.3,271.6-766.3z M257.9-756.7c0,4-3.2,7.2-7.2,7.2
			s-7.2-3.2-7.2-7.2c0-4,3.2-7.2,7.2-7.2S257.9-760.7,257.9-756.7z M246.5-743.4c1.2-0.8,2.6-1.4,4.2-1.4c4,0,7.2,3.2,7.2,7.2
			c0,1.6-0.5,3-1.4,4.2 M271.3-718.4c0-3.9,3.3-7.2,7.2-7.2c3.9,0,7.2,3.3,7.2,7.2 M285.7-775.9c0,3.9-3.3,7.2-7.2,7.2
			c-3.9,0-7.2-3.3-7.2-7.2 M285.7-756.3c0,4-3.2,7.2-7.2,7.2s-7.2-3.2-7.2-7.2c0-4,3.2-7.2,7.2-7.2S285.7-760.2,285.7-756.3z
			 M285.7-737.1c0,4-3.2,7.2-7.2,7.2s-7.2-3.2-7.2-7.2c0-4,3.2-7.2,7.2-7.2S285.7-741.1,285.7-737.1z M235.6-754.3
			c0.2,0,0.5,0,0.7,0c4,0,7.2,3.2,7.2,7.2c0,0.2,0,0.5,0,0.7 M271.6-747.2c0,4-3.2,7.2-7.2,7.2s-7.2-3.2-7.2-7.2
			c0-4,3.2-7.2,7.2-7.2S271.6-751.1,271.6-747.2z M258.3-731.7c1.3-2.1,3.6-3.5,6.2-3.5c4,0,7.2,3.2,7.2,7.2c0,2.6-1.4,4.9-3.5,6.2
			 M236.3-775.9v2.4 M236.3-759.1v4.8 M264.5-775.9v2.4 M264.5-759.1v4.8 M264.5-740v4.8 M250.7-768.7v4.8 M250.7-749.6v4.8
			 M278.5-768.7v5.3 M278.5-749.1v4.8 M278.5-729.9v4.3"/>
		<path fill="none" stroke="#92D400" stroke-miterlimit="10" d="M315.4-775.9c0,3.9-3.3,7.2-7.2,7.2s-7.2-3.3-7.2-7.2 M301-718.4
			c0-3.9,3.3-7.2,7.2-7.2s7.2,3.3,7.2,7.2 M301-766.3c0,4-3.2,7.2-7.2,7.2c-4,0-7.2-3.2-7.2-7.2c0-4,3.2-7.2,7.2-7.2
			C297.8-773.5,301-770.3,301-766.3z M329.1-766.3c0,4-3.2,7.2-7.2,7.2s-7.2-3.2-7.2-7.2c0-4,3.2-7.2,7.2-7.2
			S329.1-770.3,329.1-766.3z M315.4-756.7c0,4-3.2,7.2-7.2,7.2s-7.2-3.2-7.2-7.2c0-4,3.2-7.2,7.2-7.2S315.4-760.7,315.4-756.7z
			 M315.4-737.6c0,4-3.2,7.2-7.2,7.2s-7.2-3.2-7.2-7.2c0-4,3.2-7.2,7.2-7.2S315.4-741.6,315.4-737.6z M328.8-718.4
			c0-3.9,3.3-7.2,7.2-7.2s7.2,3.3,7.2,7.2 M343.2-775.9c0,3.9-3.3,7.2-7.2,7.2s-7.2-3.3-7.2-7.2 M343.2-756.3c0,4-3.2,7.2-7.2,7.2
			s-7.2-3.2-7.2-7.2c0-4,3.2-7.2,7.2-7.2S343.2-760.2,343.2-756.3z M343.2-737.1c0,4-3.2,7.2-7.2,7.2s-7.2-3.2-7.2-7.2
			c0-4,3.2-7.2,7.2-7.2S343.2-741.1,343.2-737.1z M301-747.2c0,4-3.2,7.2-7.2,7.2c-4,0-7.2-3.2-7.2-7.2c0-4,3.2-7.2,7.2-7.2
			C297.8-754.4,301-751.1,301-747.2z M329.1-747.2c0,4-3.2,7.2-7.2,7.2s-7.2-3.2-7.2-7.2c0-4,3.2-7.2,7.2-7.2
			S329.1-751.1,329.1-747.2z M329.1-728c0,4-3.2,7.2-7.2,7.2s-7.2-3.2-7.2-7.2c0-4,3.2-7.2,7.2-7.2S329.1-732,329.1-728z M301-728
			c0,4-3.2,7.2-7.2,7.2c-4,0-7.2-3.2-7.2-7.2c0-4,3.2-7.2,7.2-7.2C297.8-735.2,301-732,301-728z M293.8-775.9v2.4 M293.8-759.1v4.8
			 M293.8-740v4.8 M293.8-720.8v2.4 M321.9-775.9v2.4 M321.9-759.1v4.8 M321.9-740v4.8 M321.9-720.8v2.4 M308.2-768.7v4.8
			 M308.2-749.6v4.8 M308.2-730.4v4.8 M336-768.7v5.3 M336-749.1v4.8 M336-729.9v4.3"/>
		<path fill="none" stroke="#92D400" stroke-miterlimit="10" d="M372.9-775.9c0,3.9-3.3,7.2-7.2,7.2s-7.2-3.3-7.2-7.2 M358.5-718.4
			c0-3.9,3.3-7.2,7.2-7.2s7.2,3.3,7.2,7.2 M358.5-766.3c0,4-3.2,7.2-7.2,7.2c-4,0-7.2-3.2-7.2-7.2c0-4,3.2-7.2,7.2-7.2
			C355.3-773.5,358.5-770.3,358.5-766.3z M386.6-766.3c0,4-3.2,7.2-7.2,7.2s-7.2-3.2-7.2-7.2c0-4,3.2-7.2,7.2-7.2
			S386.6-770.3,386.6-766.3z M372.9-756.7c0,4-3.2,7.2-7.2,7.2s-7.2-3.2-7.2-7.2c0-4,3.2-7.2,7.2-7.2S372.9-760.7,372.9-756.7z
			 M372.9-737.6c0,4-3.2,7.2-7.2,7.2s-7.2-3.2-7.2-7.2c0-4,3.2-7.2,7.2-7.2S372.9-741.6,372.9-737.6z M386.3-718.4
			c0-3.9,3.3-7.2,7.2-7.2s7.2,3.3,7.2,7.2 M400.7-775.9c0,3.9-3.3,7.2-7.2,7.2s-7.2-3.3-7.2-7.2 M400.7-756.3c0,4-3.2,7.2-7.2,7.2
			s-7.2-3.2-7.2-7.2c0-4,3.2-7.2,7.2-7.2S400.7-760.2,400.7-756.3z M400.7-737.1c0,4-3.2,7.2-7.2,7.2s-7.2-3.2-7.2-7.2
			c0-4,3.2-7.2,7.2-7.2S400.7-741.1,400.7-737.1z M358.5-747.2c0,4-3.2,7.2-7.2,7.2c-4,0-7.2-3.2-7.2-7.2c0-4,3.2-7.2,7.2-7.2
			C355.3-754.4,358.5-751.1,358.5-747.2z M386.6-747.2c0,4-3.2,7.2-7.2,7.2s-7.2-3.2-7.2-7.2c0-4,3.2-7.2,7.2-7.2
			S386.6-751.1,386.6-747.2z M386.6-728c0,4-3.2,7.2-7.2,7.2s-7.2-3.2-7.2-7.2c0-4,3.2-7.2,7.2-7.2S386.6-732,386.6-728z M358.5-728
			c0,4-3.2,7.2-7.2,7.2c-4,0-7.2-3.2-7.2-7.2c0-4,3.2-7.2,7.2-7.2C355.3-735.2,358.5-732,358.5-728z M351.3-775.9v2.4 M351.3-759.1
			v4.8 M351.3-740v4.8 M351.3-720.8v2.4 M379.4-775.9v2.4 M379.4-759.1v4.8 M379.4-740v4.8 M379.4-720.8v2.4 M365.7-768.7v4.8
			 M365.7-749.6v4.8 M365.7-730.4v4.8 M393.5-768.7v5.3 M393.5-749.1v4.8 M393.5-729.9v4.3"/>
		<path fill="none" stroke="#92D400" stroke-miterlimit="10" d="M430.4-775.9c0,3.9-3.3,7.2-7.2,7.2s-7.2-3.3-7.2-7.2 M416-718.4
			c0-3.9,3.3-7.2,7.2-7.2s7.2,3.3,7.2,7.2 M416-766.3c0,4-3.2,7.2-7.2,7.2c-4,0-7.2-3.2-7.2-7.2c0-4,3.2-7.2,7.2-7.2
			C412.8-773.5,416-770.3,416-766.3z M444.1-766.3c0,4-3.2,7.2-7.2,7.2s-7.2-3.2-7.2-7.2c0-4,3.2-7.2,7.2-7.2
			S444.1-770.3,444.1-766.3z M430.4-756.7c0,4-3.2,7.2-7.2,7.2s-7.2-3.2-7.2-7.2c0-4,3.2-7.2,7.2-7.2S430.4-760.7,430.4-756.7z
			 M430.4-737.6c0,4-3.2,7.2-7.2,7.2s-7.2-3.2-7.2-7.2c0-4,3.2-7.2,7.2-7.2S430.4-741.6,430.4-737.6z M443.8-718.4
			c0-3.9,3.3-7.2,7.2-7.2s7.2,3.3,7.2,7.2 M458.2-775.9c0,3.9-3.3,7.2-7.2,7.2s-7.2-3.3-7.2-7.2 M458.2-756.3c0,4-3.2,7.2-7.2,7.2
			s-7.2-3.2-7.2-7.2c0-4,3.2-7.2,7.2-7.2S458.2-760.2,458.2-756.3z M458.2-737.1c0,4-3.2,7.2-7.2,7.2s-7.2-3.2-7.2-7.2
			c0-4,3.2-7.2,7.2-7.2S458.2-741.1,458.2-737.1z M416-747.2c0,4-3.2,7.2-7.2,7.2c-4,0-7.2-3.2-7.2-7.2c0-4,3.2-7.2,7.2-7.2
			C412.8-754.4,416-751.1,416-747.2z M444.1-747.2c0,4-3.2,7.2-7.2,7.2s-7.2-3.2-7.2-7.2c0-4,3.2-7.2,7.2-7.2
			S444.1-751.1,444.1-747.2z M444.1-728c0,4-3.2,7.2-7.2,7.2s-7.2-3.2-7.2-7.2c0-4,3.2-7.2,7.2-7.2S444.1-732,444.1-728z M416-728
			c0,4-3.2,7.2-7.2,7.2c-4,0-7.2-3.2-7.2-7.2c0-4,3.2-7.2,7.2-7.2C412.8-735.2,416-732,416-728z M408.8-775.9v2.4 M408.8-759.1v4.8
			 M408.8-740v4.8 M408.8-720.8v2.4 M436.9-775.9v2.4 M436.9-759.1v4.8 M436.9-740v4.8 M436.9-720.8v2.4 M423.2-768.7v4.8
			 M423.2-749.6v4.8 M423.2-730.4v4.8 M451-768.7v5.3 M451-749.1v4.8 M451-729.9v4.3"/>
		<path fill="none" stroke="#92D400" stroke-miterlimit="10" d="M487.9-775.9c0,3.9-3.3,7.2-7.2,7.2c-3.9,0-7.2-3.3-7.2-7.2
			 M473.5-718.4c0-3.9,3.3-7.2,7.2-7.2c3.9,0,7.2,3.3,7.2,7.2 M473.5-766.3c0,4-3.2,7.2-7.2,7.2c-4,0-7.2-3.2-7.2-7.2
			c0-4,3.2-7.2,7.2-7.2C470.3-773.5,473.5-770.3,473.5-766.3z M501.6-766.3c0,4-3.2,7.2-7.2,7.2s-7.2-3.2-7.2-7.2
			c0-4,3.2-7.2,7.2-7.2S501.6-770.3,501.6-766.3z M487.9-756.7c0,4-3.2,7.2-7.2,7.2s-7.2-3.2-7.2-7.2c0-4,3.2-7.2,7.2-7.2
			S487.9-760.7,487.9-756.7z M487.9-737.6c0,4-3.2,7.2-7.2,7.2s-7.2-3.2-7.2-7.2c0-4,3.2-7.2,7.2-7.2S487.9-741.6,487.9-737.6z
			 M501.3-718.4c0-3.9,3.3-7.2,7.2-7.2c3.9,0,7.2,3.3,7.2,7.2 M515.6-775.9c0,3.9-3.3,7.2-7.2,7.2c-3.9,0-7.2-3.3-7.2-7.2
			 M515.6-756.3c0,4-3.2,7.2-7.2,7.2c-4,0-7.2-3.2-7.2-7.2c0-4,3.2-7.2,7.2-7.2C512.4-763.5,515.6-760.2,515.6-756.3z M515.6-737.1
			c0,4-3.2,7.2-7.2,7.2c-4,0-7.2-3.2-7.2-7.2c0-4,3.2-7.2,7.2-7.2C512.4-744.3,515.6-741.1,515.6-737.1z M473.5-747.2
			c0,4-3.2,7.2-7.2,7.2c-4,0-7.2-3.2-7.2-7.2c0-4,3.2-7.2,7.2-7.2C470.3-754.4,473.5-751.1,473.5-747.2z M501.6-747.2
			c0,4-3.2,7.2-7.2,7.2s-7.2-3.2-7.2-7.2c0-4,3.2-7.2,7.2-7.2S501.6-751.1,501.6-747.2z M501.6-728c0,4-3.2,7.2-7.2,7.2
			s-7.2-3.2-7.2-7.2c0-4,3.2-7.2,7.2-7.2S501.6-732,501.6-728z M473.5-728c0,4-3.2,7.2-7.2,7.2c-4,0-7.2-3.2-7.2-7.2
			c0-4,3.2-7.2,7.2-7.2C470.3-735.2,473.5-732,473.5-728z M466.3-775.9v2.4 M466.3-759.1v4.8 M466.3-740v4.8 M466.3-720.8v2.4
			 M494.4-775.9v2.4 M494.4-759.1v4.8 M494.4-740v4.8 M494.4-720.8v2.4 M480.7-768.7v4.8 M480.7-749.6v4.8 M480.7-730.4v4.8
			 M508.5-768.7v5.3 M508.5-749.1v4.8 M508.5-729.9v4.3"/>
		<path fill="none" stroke="#92D400" stroke-miterlimit="10" d="M545.4-775.9c0,3.9-3.3,7.2-7.2,7.2c-3.9,0-7.2-3.3-7.2-7.2
			 M531-718.4c0-3.9,3.3-7.2,7.2-7.2c3.9,0,7.2,3.3,7.2,7.2 M531-766.3c0,4-3.2,7.2-7.2,7.2c-4,0-7.2-3.2-7.2-7.2
			c0-4,3.2-7.2,7.2-7.2C527.8-773.5,531-770.3,531-766.3z M559.1-766.3c0,4-3.2,7.2-7.2,7.2c-4,0-7.2-3.2-7.2-7.2
			c0-4,3.2-7.2,7.2-7.2C555.9-773.5,559.1-770.3,559.1-766.3z M545.4-756.7c0,4-3.2,7.2-7.2,7.2c-4,0-7.2-3.2-7.2-7.2
			c0-4,3.2-7.2,7.2-7.2C542.1-763.9,545.4-760.7,545.4-756.7z M545.4-737.6c0,4-3.2,7.2-7.2,7.2c-4,0-7.2-3.2-7.2-7.2
			c0-4,3.2-7.2,7.2-7.2C542.1-744.8,545.4-741.6,545.4-737.6z M558.8-718.4c0-3.9,3.3-7.2,7.2-7.2c3.9,0,7.2,3.3,7.2,7.2
			 M573.1-775.9c0,3.9-3.3,7.2-7.2,7.2c-3.9,0-7.2-3.3-7.2-7.2 M573.1-756.3c0,4-3.2,7.2-7.2,7.2c-4,0-7.2-3.2-7.2-7.2
			c0-4,3.2-7.2,7.2-7.2C569.9-763.5,573.1-760.2,573.1-756.3z M573.1-737.1c0,4-3.2,7.2-7.2,7.2c-4,0-7.2-3.2-7.2-7.2
			c0-4,3.2-7.2,7.2-7.2C569.9-744.3,573.1-741.1,573.1-737.1z M531-747.2c0,4-3.2,7.2-7.2,7.2c-4,0-7.2-3.2-7.2-7.2
			c0-4,3.2-7.2,7.2-7.2C527.8-754.4,531-751.1,531-747.2z M559.1-747.2c0,4-3.2,7.2-7.2,7.2c-4,0-7.2-3.2-7.2-7.2
			c0-4,3.2-7.2,7.2-7.2C555.9-754.4,559.1-751.1,559.1-747.2z M559.1-728c0,4-3.2,7.2-7.2,7.2c-4,0-7.2-3.2-7.2-7.2
			c0-4,3.2-7.2,7.2-7.2C555.9-735.2,559.1-732,559.1-728z M531-728c0,4-3.2,7.2-7.2,7.2c-4,0-7.2-3.2-7.2-7.2c0-4,3.2-7.2,7.2-7.2
			C527.8-735.2,531-732,531-728z M523.8-775.9v2.4 M523.8-759.1v4.8 M523.8-740v4.8 M523.8-720.8v2.4 M551.9-775.9v2.4 M551.9-759.1
			v4.8 M551.9-740v4.8 M551.9-720.8v2.4 M538.2-768.7v4.8 M538.2-749.6v4.8 M538.2-730.4v4.8 M566-768.7v5.3 M566-749.1v4.8
			 M566-729.9v4.3"/>
		<path fill="none" stroke="#92D400" stroke-miterlimit="10" d="M602.8-775.9c0,3.9-3.3,7.2-7.2,7.2c-3.9,0-7.2-3.3-7.2-7.2
			 M588.5-718.4c0-3.9,3.3-7.2,7.2-7.2c3.9,0,7.2,3.3,7.2,7.2 M588.5-766.3c0,4-3.2,7.2-7.2,7.2c-4,0-7.2-3.2-7.2-7.2
			c0-4,3.2-7.2,7.2-7.2C585.2-773.5,588.5-770.3,588.5-766.3z M616.6-766.3c0,4-3.2,7.2-7.2,7.2s-7.2-3.2-7.2-7.2
			c0-4,3.2-7.2,7.2-7.2S616.6-770.3,616.6-766.3z M602.8-756.7c0,4-3.2,7.2-7.2,7.2c-4,0-7.2-3.2-7.2-7.2c0-4,3.2-7.2,7.2-7.2
			C599.6-763.9,602.8-760.7,602.8-756.7z M602.8-737.6c0,4-3.2,7.2-7.2,7.2c-4,0-7.2-3.2-7.2-7.2c0-4,3.2-7.2,7.2-7.2
			C599.6-744.8,602.8-741.6,602.8-737.6z M616.3-718.4c0-3.9,3.3-7.2,7.2-7.2c3.9,0,7.2,3.3,7.2,7.2 M630.6-775.9
			c0,3.9-3.3,7.2-7.2,7.2c-3.9,0-7.2-3.3-7.2-7.2 M630.6-756.3c0,4-3.2,7.2-7.2,7.2c-4,0-7.2-3.2-7.2-7.2c0-4,3.2-7.2,7.2-7.2
			C627.4-763.5,630.6-760.2,630.6-756.3z M630.6-737.1c0,4-3.2,7.2-7.2,7.2c-4,0-7.2-3.2-7.2-7.2c0-4,3.2-7.2,7.2-7.2
			C627.4-744.3,630.6-741.1,630.6-737.1z M588.5-747.2c0,4-3.2,7.2-7.2,7.2c-4,0-7.2-3.2-7.2-7.2c0-4,3.2-7.2,7.2-7.2
			C585.2-754.4,588.5-751.1,588.5-747.2z M616.6-747.2c0,4-3.2,7.2-7.2,7.2s-7.2-3.2-7.2-7.2c0-4,3.2-7.2,7.2-7.2
			S616.6-751.1,616.6-747.2z M616.6-728c0,4-3.2,7.2-7.2,7.2s-7.2-3.2-7.2-7.2c0-4,3.2-7.2,7.2-7.2S616.6-732,616.6-728z M588.5-728
			c0,4-3.2,7.2-7.2,7.2c-4,0-7.2-3.2-7.2-7.2c0-4,3.2-7.2,7.2-7.2C585.2-735.2,588.5-732,588.5-728z M581.3-775.9v2.4 M581.3-759.1
			v4.8 M581.3-740v4.8 M581.3-720.8v2.4 M609.4-775.9v2.4 M609.4-759.1v4.8 M609.4-740v4.8 M609.4-720.8v2.4 M595.7-768.7v4.8
			 M595.7-749.6v4.8 M595.7-730.4v4.8 M623.4-768.7v5.3 M623.4-749.1v4.8 M623.4-729.9v4.3"/>
		<path fill="none" stroke="#92D400" stroke-miterlimit="10" d="M660.3-775.9c0,3.9-3.3,7.2-7.2,7.2c-3.9,0-7.2-3.3-7.2-7.2
			 M646-718.4c0-3.9,3.3-7.2,7.2-7.2c3.9,0,7.2,3.3,7.2,7.2 M646-766.3c0,4-3.2,7.2-7.2,7.2c-4,0-7.2-3.2-7.2-7.2
			c0-4,3.2-7.2,7.2-7.2C642.7-773.5,646-770.3,646-766.3z M674.1-766.3c0,4-3.2,7.2-7.2,7.2c-4,0-7.2-3.2-7.2-7.2
			c0-4,3.2-7.2,7.2-7.2C670.8-773.5,674.1-770.3,674.1-766.3z M660.3-756.7c0,4-3.2,7.2-7.2,7.2c-4,0-7.2-3.2-7.2-7.2
			c0-4,3.2-7.2,7.2-7.2C657.1-763.9,660.3-760.7,660.3-756.7z M660.3-737.6c0,4-3.2,7.2-7.2,7.2c-4,0-7.2-3.2-7.2-7.2
			c0-4,3.2-7.2,7.2-7.2C657.1-744.8,660.3-741.6,660.3-737.6z M673.7-718.4c0-3.9,3.3-7.2,7.2-7.2c3.9,0,7.2,3.3,7.2,7.2
			 M688.1-775.9c0,3.9-3.3,7.2-7.2,7.2c-3.9,0-7.2-3.3-7.2-7.2 M688.1-756.3c0,4-3.2,7.2-7.2,7.2c-4,0-7.2-3.2-7.2-7.2
			c0-4,3.2-7.2,7.2-7.2C684.9-763.5,688.1-760.2,688.1-756.3z M688.1-737.1c0,4-3.2,7.2-7.2,7.2c-4,0-7.2-3.2-7.2-7.2
			c0-4,3.2-7.2,7.2-7.2C684.9-744.3,688.1-741.1,688.1-737.1z M646-747.2c0,4-3.2,7.2-7.2,7.2c-4,0-7.2-3.2-7.2-7.2
			c0-4,3.2-7.2,7.2-7.2C642.7-754.4,646-751.1,646-747.2z M674.1-747.2c0,4-3.2,7.2-7.2,7.2c-4,0-7.2-3.2-7.2-7.2
			c0-4,3.2-7.2,7.2-7.2C670.8-754.4,674.1-751.1,674.1-747.2z M674.1-728c0,4-3.2,7.2-7.2,7.2c-4,0-7.2-3.2-7.2-7.2
			c0-4,3.2-7.2,7.2-7.2C670.8-735.2,674.1-732,674.1-728z M646-728c0,4-3.2,7.2-7.2,7.2c-4,0-7.2-3.2-7.2-7.2c0-4,3.2-7.2,7.2-7.2
			C642.7-735.2,646-732,646-728z M638.8-775.9v2.4 M638.8-759.1v4.8 M638.8-740v4.8 M638.8-720.8v2.4 M666.9-775.9v2.4 M666.9-759.1
			v4.8 M666.9-740v4.8 M666.9-720.8v2.4 M653.1-768.7v4.8 M653.1-749.6v4.8 M653.1-730.4v4.8 M680.9-768.7v5.3 M680.9-749.1v4.8
			 M680.9-729.9v4.3"/>
		<path fill="none" stroke="#92D400" stroke-miterlimit="10" d="M717.8-775.9c0,3.9-3.3,7.2-7.2,7.2c-3.9,0-7.2-3.3-7.2-7.2
			 M703.4-718.4c0-3.9,3.3-7.2,7.2-7.2c3.9,0,7.2,3.3,7.2,7.2 M703.4-766.3c0,4-3.2,7.2-7.2,7.2c-4,0-7.2-3.2-7.2-7.2
			c0-4,3.2-7.2,7.2-7.2C700.2-773.5,703.4-770.3,703.4-766.3z M731.5-766.3c0,4-3.2,7.2-7.2,7.2c-4,0-7.2-3.2-7.2-7.2
			c0-4,3.2-7.2,7.2-7.2C728.3-773.5,731.5-770.3,731.5-766.3z M717.8-756.7c0,4-3.2,7.2-7.2,7.2c-4,0-7.2-3.2-7.2-7.2
			c0-4,3.2-7.2,7.2-7.2C714.6-763.9,717.8-760.7,717.8-756.7z M717.8-737.6c0,4-3.2,7.2-7.2,7.2c-4,0-7.2-3.2-7.2-7.2
			c0-4,3.2-7.2,7.2-7.2C714.6-744.8,717.8-741.6,717.8-737.6z M731.2-718.4c0-3.9,3.3-7.2,7.2-7.2c3.9,0,7.2,3.3,7.2,7.2
			 M745.6-775.9c0,3.9-3.3,7.2-7.2,7.2c-3.9,0-7.2-3.3-7.2-7.2 M745.6-756.3c0,4-3.2,7.2-7.2,7.2c-4,0-7.2-3.2-7.2-7.2
			c0-4,3.2-7.2,7.2-7.2C742.4-763.5,745.6-760.2,745.6-756.3z M745.6-737.1c0,4-3.2,7.2-7.2,7.2c-4,0-7.2-3.2-7.2-7.2
			c0-4,3.2-7.2,7.2-7.2C742.4-744.3,745.6-741.1,745.6-737.1z M703.4-747.2c0,4-3.2,7.2-7.2,7.2c-4,0-7.2-3.2-7.2-7.2
			c0-4,3.2-7.2,7.2-7.2C700.2-754.4,703.4-751.1,703.4-747.2z M731.5-747.2c0,4-3.2,7.2-7.2,7.2c-4,0-7.2-3.2-7.2-7.2
			c0-4,3.2-7.2,7.2-7.2C728.3-754.4,731.5-751.1,731.5-747.2z M731.5-728c0,4-3.2,7.2-7.2,7.2c-4,0-7.2-3.2-7.2-7.2
			c0-4,3.2-7.2,7.2-7.2C728.3-735.2,731.5-732,731.5-728z M703.4-728c0,4-3.2,7.2-7.2,7.2c-4,0-7.2-3.2-7.2-7.2c0-4,3.2-7.2,7.2-7.2
			C700.2-735.2,703.4-732,703.4-728z M696.3-775.9v2.4 M696.3-759.1v4.8 M696.3-740v4.8 M696.3-720.8v2.4 M724.4-775.9v2.4
			 M724.4-759.1v4.8 M724.4-740v4.8 M724.4-720.8v2.4 M710.6-768.7v4.8 M710.6-749.6v4.8 M710.6-730.4v4.8 M738.4-768.7v5.3
			 M738.4-749.1v4.8 M738.4-729.9v4.3"/>
		<path fill="none" stroke="#92D400" stroke-miterlimit="10" d="M775.3-775.9c0,3.9-3.3,7.2-7.2,7.2c-3.9,0-7.2-3.3-7.2-7.2
			 M760.9-718.4c0-3.9,3.3-7.2,7.2-7.2c3.9,0,7.2,3.3,7.2,7.2 M760.9-766.3c0,4-3.2,7.2-7.2,7.2c-4,0-7.2-3.2-7.2-7.2
			c0-4,3.2-7.2,7.2-7.2C757.7-773.5,760.9-770.3,760.9-766.3z M789-766.3c0,4-3.2,7.2-7.2,7.2c-4,0-7.2-3.2-7.2-7.2
			c0-4,3.2-7.2,7.2-7.2C785.8-773.5,789-770.3,789-766.3z M775.3-756.7c0,4-3.2,7.2-7.2,7.2c-4,0-7.2-3.2-7.2-7.2
			c0-4,3.2-7.2,7.2-7.2C772.1-763.9,775.3-760.7,775.3-756.7z M775.3-737.6c0,4-3.2,7.2-7.2,7.2c-4,0-7.2-3.2-7.2-7.2
			c0-4,3.2-7.2,7.2-7.2C772.1-744.8,775.3-741.6,775.3-737.6z M788.7-718.4c0-3.9,3.3-7.2,7.2-7.2c3.9,0,7.2,3.3,7.2,7.2
			 M803.1-775.9c0,3.9-3.3,7.2-7.2,7.2c-3.9,0-7.2-3.3-7.2-7.2 M803.1-756.3c0,4-3.2,7.2-7.2,7.2c-4,0-7.2-3.2-7.2-7.2
			c0-4,3.2-7.2,7.2-7.2C799.9-763.5,803.1-760.2,803.1-756.3z M803.1-737.1c0,4-3.2,7.2-7.2,7.2c-4,0-7.2-3.2-7.2-7.2
			c0-4,3.2-7.2,7.2-7.2C799.9-744.3,803.1-741.1,803.1-737.1z M760.9-747.2c0,4-3.2,7.2-7.2,7.2c-4,0-7.2-3.2-7.2-7.2
			c0-4,3.2-7.2,7.2-7.2C757.7-754.4,760.9-751.1,760.9-747.2z M789-747.2c0,4-3.2,7.2-7.2,7.2c-4,0-7.2-3.2-7.2-7.2
			c0-4,3.2-7.2,7.2-7.2C785.8-754.4,789-751.1,789-747.2z M789-728c0,4-3.2,7.2-7.2,7.2c-4,0-7.2-3.2-7.2-7.2c0-4,3.2-7.2,7.2-7.2
			C785.8-735.2,789-732,789-728z M760.9-728c0,4-3.2,7.2-7.2,7.2c-4,0-7.2-3.2-7.2-7.2c0-4,3.2-7.2,7.2-7.2
			C757.7-735.2,760.9-732,760.9-728z M753.7-775.9v2.4 M753.7-759.1v4.8 M753.7-740v4.8 M753.7-720.8v2.4 M781.8-775.9v2.4
			 M781.8-759.1v4.8 M781.8-740v4.8 M781.8-720.8v2.4 M768.1-768.7v4.8 M768.1-749.6v4.8 M768.1-730.4v4.8 M795.9-768.7v5.3
			 M795.9-749.1v4.8 M795.9-729.9v4.3"/>
		<path fill="none" stroke="#92D400" stroke-miterlimit="10" d="M832.8-775.9c0,3.9-3.3,7.2-7.2,7.2c-3.9,0-7.2-3.3-7.2-7.2
			 M818.4-718.4c0-3.9,3.3-7.2,7.2-7.2c3.9,0,7.2,3.3,7.2,7.2 M818.4-766.3c0,4-3.2,7.2-7.2,7.2c-4,0-7.2-3.2-7.2-7.2
			c0-4,3.2-7.2,7.2-7.2C815.2-773.5,818.4-770.3,818.4-766.3z M846.5-766.3c0,4-3.2,7.2-7.2,7.2c-4,0-7.2-3.2-7.2-7.2
			c0-4,3.2-7.2,7.2-7.2C843.3-773.5,846.5-770.3,846.5-766.3z M832.8-756.7c0,4-3.2,7.2-7.2,7.2c-4,0-7.2-3.2-7.2-7.2
			c0-4,3.2-7.2,7.2-7.2C829.6-763.9,832.8-760.7,832.8-756.7z M832.8-737.6c0,4-3.2,7.2-7.2,7.2c-4,0-7.2-3.2-7.2-7.2
			c0-4,3.2-7.2,7.2-7.2C829.6-744.8,832.8-741.6,832.8-737.6z M846.2-718.4c0-3.9,3.3-7.2,7.2-7.2c3.9,0,6.8,2.9,6.8,6.8
			 M860.6-775.9c0,3.9-3.3,7.2-7.2,7.2c-3.9,0-7.2-3.3-7.2-7.2 M860.6-756.3c0,4-3.2,7.2-7.2,7.2c-4,0-7.2-3.2-7.2-7.2
			c0-4,3.2-7.2,7.2-7.2C857.4-763.5,860.6-760.2,860.6-756.3z M860.6-737.1c0,4-3.2,7.2-7.2,7.2c-4,0-7.2-3.2-7.2-7.2
			c0-4,3.2-7.2,7.2-7.2C857.4-744.3,860.6-741.1,860.6-737.1z M818.4-747.2c0,4-3.2,7.2-7.2,7.2c-4,0-7.2-3.2-7.2-7.2
			c0-4,3.2-7.2,7.2-7.2C815.2-754.4,818.4-751.1,818.4-747.2z M846.5-747.2c0,4-3.2,7.2-7.2,7.2c-4,0-7.2-3.2-7.2-7.2
			c0-4,3.2-7.2,7.2-7.2C843.3-754.4,846.5-751.1,846.5-747.2z M846.5-728c0,4-3.2,7.2-7.2,7.2c-4,0-7.2-3.2-7.2-7.2
			c0-4,3.2-7.2,7.2-7.2C843.3-735.2,846.5-732,846.5-728z M818.4-728c0,4-3.2,7.2-7.2,7.2c-4,0-7.2-3.2-7.2-7.2c0-4,3.2-7.2,7.2-7.2
			C815.2-735.2,818.4-732,818.4-728z M811.2-775.9v2.4 M811.2-759.1v4.8 M811.2-740v4.8 M811.2-720.8v2.4 M839.3-775.9v2.4
			 M839.3-759.1v4.8 M839.3-740v4.8 M839.3-720.8v2.4 M825.6-768.7v4.8 M825.6-749.6v4.8 M825.6-730.4v4.8 M853.4-768.7v5.3
			 M853.4-749.1v4.8 M853.4-729.9v4.3"/>
		<path fill="none" stroke="#92D400" stroke-miterlimit="10" d="M890.3-775.9c0,3.9-3.3,7.2-7.2,7.2s-7.2-3.3-7.2-7.2 M875.9-766.3
			c0,4-3.2,7.2-7.2,7.2c-4,0-7.2-3.2-7.2-7.2c0-4,3.2-7.2,7.2-7.2C872.7-773.5,875.9-770.3,875.9-766.3z M904-766.3
			c0,4-3.2,7.2-7.2,7.2c-4,0-7.2-3.2-7.2-7.2c0-4,3.2-7.2,7.2-7.2C900.8-773.5,904-770.3,904-766.3z M890.3-756.7
			c0,4-3.2,7.2-7.2,7.2c-4,0-7.2-3.2-7.2-7.2c0-4,3.2-7.2,7.2-7.2C887.1-763.9,890.3-760.7,890.3-756.7z M876.4-735
			c-0.3-0.8-0.5-1.7-0.5-2.6c0-4,3.2-7.2,7.2-7.2c0.9,0,1.8,0.2,2.6,0.5 M909.9-768.8c-3.6-0.4-6.3-3.4-6.3-7.1 M875.9-747.2
			c0,4-3.2,7.2-7.2,7.2c-4,0-7.2-3.2-7.2-7.2c0-4,3.2-7.2,7.2-7.2C872.7-754.4,875.9-751.1,875.9-747.2z M896.8-754.4 M864-722.6
			c-1.5-1.3-2.5-3.3-2.5-5.4c0-4,3.2-7.2,7.2-7.2c2.2,0,4.1,1,5.4,2.5 M868.7-775.9v2.4 M868.7-759.1v4.8 M868.7-740v4.8
			 M896.8-775.9v2.4 M896.8-759.1v3.7 M883.1-768.7v4.8 M883.1-749.6v4.8"/>
	</g>
</g>
</svg>
