<?xml version="1.0" encoding="utf-8"?>
<!-- Generator: Adobe Illustrator 17.1.0, SVG Export Plug-In . SVG Version: 6.00 Build 0)  -->
<!DOCTYPE svg PUBLIC "-//W3C//DTD SVG 1.1//EN" "http://www.w3.org/Graphics/SVG/1.1/DTD/svg11.dtd">
<svg version="1.1" id="svg8021" xmlns="http://www.w3.org/2000/svg" xmlns:xlink="http://www.w3.org/1999/xlink" x="0px" y="0px"
	 viewBox="0 0 500 500" enable-background="new 0 0 500 500" xml:space="preserve">
<path id="path4380" fill="#AA0000" d="M129.4,500H500V127.7L129.4,500z"/>
<path id="path4384" fill="#CC0000" d="M84.1,500h45.3L500,129.2V84.1L84.1,500z"/>
<path id="t-pattern" fill="none" stroke="#CC0000" stroke-linecap="square" stroke-miterlimit="10" d="M12.5,487.7h10.6v-10.6
	 M7.2,493h21v-21.1 M2.1,498.2h31.4v-31.7 M54.3,477.1v10.6h10.4 M49,471.8V493h21 M44.1,466.5v31.7h31.2 M38.8,500v-38.8
	 M54.3,445.4h10.4v-10.6 M49,450.6h21v-21.1 M44.1,455.9h31.2v-31.7 M106.6,477.1H96.2v10.6 M111.9,471.8h-21V493 M117.2,466.5H85.8
	v31.7 M96.2,434.8v10.6h10.4 M90.9,429.5v21.1h21 M85.7,424.2v31.7h31.2 M64.9,487.7v-10.6H54.6 M70,493v-21.1H49 M75.3,498.2v-31.7
	H44.1 M80.5,500v-81.1 M122.5,461.2H38.8 M96.2,403.8h10.4v-10.2 M90.9,408.4h21v-20.1 M85.8,413.6h31.4v-30.5 M148.6,434.8h-10.2
	v10.6 M153.7,429.5h-21v21.1 M159,424.2h-31.2v31.7 M138,393.6v10.2h10.4 M132.7,388.3v20.1h21 M127.8,383v30.7H159 M106.8,445.4
	v-10.6H96.4 M111.9,450.6v-21.1h-21 M117.2,455.9v-31.7H85.8 M122.5,461.2v-83.5 M164.3,418.9H80.5 M138.3,361.8h10.2v-10.4
	 M133.1,367.1h20.8v-21 M127.8,372.4H159V341 M190.5,393.2h-10.4v10.4 M195.8,387.9h-21v20.4 M201.1,382.6h-31.4v31 M180.1,351.4
	v10.4h10.4 M174.8,346.1v21h21 M169.5,340.9V372h31.4 M148.6,403.6V393h-10.2 M153.9,408.4V388h-20.8 M159.1,413.6V383h-31.2
	 M164.4,418.9v-83.4 M206.2,377.7h-83.7 M180.1,320.1h10.4v-10.2 M174.8,325.2h21v-21 M169.5,330.5h31.4v-31.2 M232.3,351.4h-10.2
	v10.4 M237.6,346.1h-20.8v21 M242.9,340.9h-31.2V372 M222.1,309.5v10.4h10.2 M216.8,304.2v21h20.8 M190.5,361.8v-10.4h-10.4
	 M195.8,367.1v-21h-21 M201.1,372.4V341h-31.4 M274.2,309.5h-10.4v10.4 M279.5,304.2h-21v21 M284.8,298.9h-31.4v31.4 M263.8,267.7
	v10.4h10.4 M258.5,262.4v21h21 M253.3,257.1v31.2h31.4 M232.3,319.9v-10.4h-10.2 M237.6,325.2v-21h-20.8 M242.9,330.5v-31.2h-31.4
	v31.2h31.2 M248.1,335.6v-83.7 M289.9,294h-83.7 M264.4,236h10.2v-10.6 M259.1,241.1h20.8v-21 M253.8,246.4H285V215 M316.5,267.2
	h-10.4v10.4 M321.8,261.9h-21v21 M326.9,257h-31.4v31.2 M306,225.4v10.4h10.4 M300.8,220.3v21h21 M295.6,215v31.4H327 M274.6,277.8
	v-10.2h-10.2 M279.9,282.9v-21h-20.8 M285.2,288.2V257H254 M290.3,293.4v-83.7 M332.2,251.7h-83.7 M306,194h10.4v-10.2 M300.8,199.3
	h21v-20.8 M295.6,204.4H327V173 M358.3,225.4h-10.2v10.4 M363.6,220.3h-20.8v21 M368.7,215h-31.2v31.4 M347.7,183.5v10.4h10.4
	 M342.8,178.5v20.8h20.8 M337.5,173.1v31.4h31.2 M316.5,236v-10.6h-10.4 M321.8,241.1v-21h-21 M326.9,246.4V215h-31.4 M332.2,251.7
	v-83.9 M374,209.7h-83.7 M348.1,152.3h10.2v-10.4 M342.8,157.2h20.8v-20.8 M337.5,162.5h31.2v-31.2 M400.2,183.5h-10.4v10.4
	 M405.5,178.2h-21v21 M410.6,173.1h-31.4v31.4 M389.7,141.7v10.2h10.4 M384.6,136.6v21h21 M379.3,131.3v31.2h31.4 M358.3,194v-10.2
	h-10.2 M363.6,199.2v-21h-20.8 M368.9,204.4V173h-31.2 M374,209.7V126 M415.9,167.8h-83.7 M390,110h10.4V99.6 M385.1,115.3h20.8v-21
	 M379.8,120.2H411V89 M442.5,141.2h-10.4v10.4 M447.7,136.1h-21v21 M452.9,130.8h-31.4v31.4 M432,99.6V110h10.4 M426.7,94.3v21h21
	 M421.6,89v31.2H453 M400.6,151.7v-10.4h-10.2 M405.7,157v-21h-21 M411,162.1v-31.4h-31.2 M416.3,167.4V83.7 M458.2,125.5h-83.7
	 M432,68h10.4V57.6 M426.7,73.3h21v-21 M421.6,78.6H453V47.4 M484.3,99.6h-10.2V110 M489.4,94.3h-21v21 M494.7,89h-31.2v31.2
	 M473.7,57.6V68h10.4 M468.5,52.3v21h21 M463.5,47.1v31.4h31.2 M442.5,110V99.6h-10.4 M447.7,115.3v-21h-21 M452.9,120.2V89h-31.4
	 M458.2,125.5V41.8 M500,83.7h-83.7 M473.7,26.3h10.4V15.9 M468.8,31.5h20.8v-21 M463.5,36.5h31.2V5.3 M484.3,68V57.6h-10.2
	 M489.6,73.3v-21h-20.8 M494.7,78.4V47.1h-31.2 M500,83.7V0 M500,41.8h-41.8 M206.2,377.7V294 M248,335.7h-83.7 M222.1,278.1h10.2
	v-10.4 M216.8,283.4h20.8v-21 M211.5,288.7h31.2v-31.4"/>
</svg>
