<?xml version="1.0" encoding="utf-8"?>
<!-- Generator: Adobe Illustrator 17.1.0, SVG Export Plug-In . SVG Version: 6.00 Build 0)  -->
<!DOCTYPE svg PUBLIC "-//W3C//DTD SVG 1.1//EN" "http://www.w3.org/Graphics/SVG/1.1/DTD/svg11.dtd">
<svg version="1.1" id="svg8021" xmlns="http://www.w3.org/2000/svg" xmlns:xlink="http://www.w3.org/1999/xlink" x="0px" y="0px"
	 viewBox="0 0 500 500" enable-background="new 0 0 500 500" xml:space="preserve">
<path id="path4380" fill="#0088CE" d="M129.4,500H500V127.7L129.4,500z"/>
<path id="path4384" fill="#4E9FDD" d="M84.1,500h45.3L500,129.2V84.1L84.1,500z"/>
<g>
	<g transform="translate(300 1200)">
		<g transform="rotate(-45)">
			<path fill="none" stroke="#4E9FDD" stroke-miterlimit="10" d="M297.2-692.8l5.6-5.6 M301.3-701.5c0,2.6,2,4.6,4.6,4.6
				 M292.6-697.4l4.1-4.1l-4.6-4.6l-4.1,4.1 M310.5-687.7l-4.6-4.6"/>
			<path fill="none" stroke="#4E9FDD" stroke-miterlimit="10" d="M324.8-665.1L324.8-665.1l5.5-5.5 M336.8-677.1l7.5-7.5
				 M350.6-690.9l7.5-7.5 M316.6-690.7l-7.6-7.6 M330.4-676.9l-7.6-7.6 M344.2-663.1l-7.5-7.5 M358-649.3l-7.5-7.5 M336.7-698.4
				l7.5,7.5 M358.2-676.9l-7.6-7.6 M358.2-670.8l-7.6,7.6 M344.2-656.8l-5.5,5.5 M311-678.9l5.5-5.5 M330.4-698.4l-7.5,7.5
				 M333.6-669.2c2.6,0,4.6-2,4.6-4.6s-2-4.6-4.6-4.6s-4.6,2-4.6,4.6S331-669.2,333.6-669.2z M347.4-683.1c2.6,0,4.6-2,4.6-4.6
				s-2-4.6-4.6-4.6s-4.6,2-4.6,4.6S344.8-683.1,347.4-683.1z M347.4-655.4c2.6,0,4.6-2,4.6-4.6s-2-4.6-4.6-4.6s-4.6,2-4.6,4.6
				S344.8-655.4,347.4-655.4z M319.7-683.1c2.6,0,4.6-2,4.6-4.6s-2-4.6-4.6-4.6s-4.6,2-4.6,4.6S317.1-683.1,319.7-683.1z
				 M361.2-678.4c-2.6,0-4.6,2-4.6,4.6s2,4.6,4.6,4.6 M356.6-701.5c0,2.6,2,4.6,4.6,4.6 M361.2-650.8c-2.6,0-4.6,2-4.6,4.6
				 M305.9-696.9c2.6,0,4.6-2,4.6-4.6 M329-701.5c0,2.6,2,4.6,4.6,4.6s4.6-2,4.6-4.6 M338.2-687.7l-4.6-4.6l-4.6,4.6l4.6,4.6
				L338.2-687.7z M352-673.8l-4.6-4.6l-4.6,4.6l4.6,4.6L352-673.8z M320.2-669.7l4.1-4.1l-4.6-4.6l-4.1,4.1 M306.4-683.6l4.1-4.1
				l-4.6-4.6l-4.1,4.1 M324.3-701.5l-4.6-4.6l-4.6,4.6l4.6,4.6L324.3-701.5z M352-701.5l-4.6-4.6l-4.6,4.6l4.6,4.6L352-701.5z
				 M347.9-642l4.1-4.1l-4.6-4.6l-4.1,4.1 M365.9-687.7l-4.6-4.6l-4.6,4.6l4.6,4.6L365.9-687.7z M365.9-660l-4.6-4.6l-4.6,4.6
				l4.6,4.6L365.9-660z M334.1-655.9l4.1-4.1l-4.6-4.6l-4.1,4.1"/>
			<path fill="none" stroke="#4E9FDD" stroke-miterlimit="10" d="M364.5-649.4l7.5-7.5 M378.2-663.1l7.5-7.5 M392.1-677.1l7.5-7.5
				 M406-690.9l7.5-7.5 M371.9-690.7l-7.6-7.6 M385.8-676.9l-7.6-7.6 M399.5-663.1l-7.5-7.5 M413.4-649.3l-7.5-7.5 M392-698.4
				l7.5,7.5 M413.5-676.9l-7.6-7.6 M413.5-670.8l-7.6,7.6 M399.5-656.8l-7.6,7.6 M378.2-656.9l7.7,7.7 M371.9-663.1l-7.7-7.7
				 M364.3-676.9l7.6-7.6 M385.8-698.4l-7.5,7.5 M388.9-669.2c2.6,0,4.6-2,4.6-4.6s-2-4.6-4.6-4.6s-4.6,2-4.6,4.6
				S386.3-669.2,388.9-669.2z M402.7-683.1c2.6,0,4.6-2,4.6-4.6s-2-4.6-4.6-4.6s-4.6,2-4.6,4.6S400.2-683.1,402.7-683.1z
				 M402.7-655.4c2.6,0,4.6-2,4.6-4.6s-2-4.6-4.6-4.6s-4.6,2-4.6,4.6S400.2-655.4,402.7-655.4z M375.1-683.1c2.6,0,4.6-2,4.6-4.6
				s-2-4.6-4.6-4.6s-4.6,2-4.6,4.6S372.5-683.1,375.1-683.1z M375.1-655.4c2.6,0,4.6-2,4.6-4.6s-2-4.6-4.6-4.6s-4.6,2-4.6,4.6
				S372.5-655.4,375.1-655.4z M416.6-678.4c-2.6,0-4.6,2-4.6,4.6s2,4.6,4.6,4.6 M412-701.5c0,2.6,2,4.6,4.6,4.6 M365.9-646.2
				c0-2.6-2-4.6-4.6-4.6 M416.6-650.8c-2.6,0-4.6,2-4.6,4.6 M361.2-696.9c2.6,0,4.6-2,4.6-4.6 M361.2-669.2c2.6,0,4.6-2,4.6-4.6
				s-2-4.6-4.6-4.6 M384.3-701.5c0,2.6,2,4.6,4.6,4.6s4.6-2,4.6-4.6 M393.5-646.2c0-2.6-2-4.6-4.6-4.6s-4.6,2-4.6,4.6 M393.5-687.7
				l-4.6-4.6l-4.6,4.6l4.6,4.6L393.5-687.7z M407.4-673.8l-4.6-4.6l-4.6,4.6l4.6,4.6L407.4-673.8z M379.7-673.8l-4.6-4.6l-4.6,4.6
				l4.6,4.6L379.7-673.8z M365.9-687.7l-4.6-4.6l-4.6,4.6l4.6,4.6L365.9-687.7z M379.7-701.5l-4.6-4.6l-4.6,4.6l4.6,4.6L379.7-701.5
				z M407.4-701.5l-4.6-4.6l-4.6,4.6l4.6,4.6L407.4-701.5z M379.7-646.2l-4.6-4.6l-4.6,4.6l4.6,4.6L379.7-646.2z M407.4-646.2
				l-4.6-4.6l-4.6,4.6l4.6,4.6L407.4-646.2z M421.2-687.7l-4.6-4.6l-4.6,4.6l4.6,4.6L421.2-687.7z M421.2-660l-4.6-4.6L412-660
				l4.6,4.6L421.2-660z M365.9-660l-4.6-4.6l-4.6,4.6l4.6,4.6L365.9-660z M393.5-660l-4.6-4.6l-4.6,4.6l4.6,4.6L393.5-660z"/>
			<path fill="none" stroke="#4E9FDD" stroke-miterlimit="10" d="M419.8-649.4l7.5-7.5 M433.6-663.1l7.5-7.5 M447.5-677.1l7.5-7.5
				 M461.3-690.9l7.5-7.5 M427.3-690.7l-7.6-7.6 M441.1-676.9l-7.6-7.6 M454.9-663.1l-7.5-7.5 M468.7-649.3l-7.5-7.5 M447.4-698.4
				l7.5,7.5 M468.9-676.9l-7.6-7.6 M468.9-670.8l-7.6,7.6 M454.9-656.8l-7.6,7.6 M433.6-656.9l7.7,7.7 M427.3-663.1l-7.7-7.7
				 M419.6-676.9l7.6-7.6 M441.1-698.4l-7.5,7.5 M444.3-669.2c2.6,0,4.6-2,4.6-4.6s-2-4.6-4.6-4.6s-4.6,2-4.6,4.6
				S441.7-669.2,444.3-669.2z M458.1-683.1c2.6,0,4.6-2,4.6-4.6s-2-4.6-4.6-4.6s-4.6,2-4.6,4.6S455.5-683.1,458.1-683.1z
				 M458.1-655.4c2.6,0,4.6-2,4.6-4.6s-2-4.6-4.6-4.6s-4.6,2-4.6,4.6S455.5-655.4,458.1-655.4z M430.4-683.1c2.6,0,4.6-2,4.6-4.6
				s-2-4.6-4.6-4.6s-4.6,2-4.6,4.6S427.8-683.1,430.4-683.1z M430.4-655.4c2.6,0,4.6-2,4.6-4.6s-2-4.6-4.6-4.6s-4.6,2-4.6,4.6
				S427.8-655.4,430.4-655.4z M471.9-678.4c-2.6,0-4.6,2-4.6,4.6s2,4.6,4.6,4.6 M467.3-701.5c0,2.6,2,4.6,4.6,4.6 M421.2-646.2
				c0-2.6-2-4.6-4.6-4.6 M471.9-650.8c-2.6,0-4.6,2-4.6,4.6 M416.6-696.9c2.6,0,4.6-2,4.6-4.6 M416.6-669.2c2.6,0,4.6-2,4.6-4.6
				s-2-4.6-4.6-4.6 M439.6-701.5c0,2.6,2,4.6,4.6,4.6s4.6-2,4.6-4.6 M448.9-646.2c0-2.6-2-4.6-4.6-4.6s-4.6,2-4.6,4.6 M448.9-687.7
				l-4.6-4.6l-4.6,4.6l4.6,4.6L448.9-687.7z M462.7-673.8l-4.6-4.6l-4.6,4.6l4.6,4.6L462.7-673.8z M435-673.8l-4.6-4.6l-4.6,4.6
				l4.6,4.6L435-673.8z M421.2-687.7l-4.6-4.6l-4.6,4.6l4.6,4.6L421.2-687.7z M435-701.5l-4.6-4.6l-4.6,4.6l4.6,4.6L435-701.5z
				 M462.7-701.5l-4.6-4.6l-4.6,4.6l4.6,4.6L462.7-701.5z M435-646.2l-4.6-4.6l-4.6,4.6l4.6,4.6L435-646.2z M462.7-646.2l-4.6-4.6
				l-4.6,4.6l4.6,4.6L462.7-646.2z M476.5-687.7l-4.6-4.6l-4.6,4.6l4.6,4.6L476.5-687.7z M476.5-660l-4.6-4.6l-4.6,4.6l4.6,4.6
				L476.5-660z M421.2-660l-4.6-4.6L412-660l4.6,4.6L421.2-660z M448.9-660l-4.6-4.6l-4.6,4.6l4.6,4.6L448.9-660z"/>
			<path fill="none" stroke="#4E9FDD" stroke-miterlimit="10" d="M475.2-649.4l7.5-7.5 M488.9-663.1l7.5-7.5 M502.8-677.1l7.5-7.5
				 M516.7-690.9l7.5-7.5 M482.6-690.7l-7.6-7.6 M496.5-676.9l-7.6-7.6 M510.2-663.1l-7.5-7.5 M524-649.3l-7.5-7.5 M502.7-698.4
				l7.5,7.5 M524.2-676.9l-7.6-7.6 M524.2-670.8l-7.6,7.6 M510.2-656.8l-7.6,7.6 M488.9-656.9l7.7,7.7 M482.6-663.1l-7.7-7.7
				 M475-676.9l7.6-7.6 M496.5-698.4l-7.5,7.5 M499.6-669.2c2.6,0,4.6-2,4.6-4.6s-2-4.6-4.6-4.6c-2.6,0-4.6,2-4.6,4.6
				S497-669.2,499.6-669.2z M513.4-683.1c2.6,0,4.6-2,4.6-4.6s-2-4.6-4.6-4.6c-2.6,0-4.6,2-4.6,4.6S510.9-683.1,513.4-683.1z
				 M513.4-655.4c2.6,0,4.6-2,4.6-4.6s-2-4.6-4.6-4.6c-2.6,0-4.6,2-4.6,4.6S510.9-655.4,513.4-655.4z M485.8-683.1
				c2.6,0,4.6-2,4.6-4.6s-2-4.6-4.6-4.6s-4.6,2-4.6,4.6S483.2-683.1,485.8-683.1z M485.8-655.4c2.6,0,4.6-2,4.6-4.6s-2-4.6-4.6-4.6
				s-4.6,2-4.6,4.6S483.2-655.4,485.8-655.4z M527.3-678.4c-2.6,0-4.6,2-4.6,4.6s2,4.6,4.6,4.6 M522.7-701.5c0,2.6,2,4.6,4.6,4.6
				 M476.5-646.2c0-2.6-2-4.6-4.6-4.6 M527.3-650.8c-2.6,0-4.6,2-4.6,4.6 M471.9-696.9c2.6,0,4.6-2,4.6-4.6 M471.9-669.2
				c2.6,0,4.6-2,4.6-4.6s-2-4.6-4.6-4.6 M495-701.5c0,2.6,2,4.6,4.6,4.6c2.6,0,4.6-2,4.6-4.6 M504.2-646.2c0-2.6-2-4.6-4.6-4.6
				c-2.6,0-4.6,2-4.6,4.6 M504.2-687.7l-4.6-4.6l-4.6,4.6l4.6,4.6L504.2-687.7z M518.1-673.8l-4.6-4.6l-4.6,4.6l4.6,4.6L518.1-673.8
				z M490.4-673.8l-4.6-4.6l-4.6,4.6l4.6,4.6L490.4-673.8z M476.5-687.7l-4.6-4.6l-4.6,4.6l4.6,4.6L476.5-687.7z M490.4-701.5
				l-4.6-4.6l-4.6,4.6l4.6,4.6L490.4-701.5z M518.1-701.5l-4.6-4.6l-4.6,4.6l4.6,4.6L518.1-701.5z M490.4-646.2l-4.6-4.6l-4.6,4.6
				l4.6,4.6L490.4-646.2z M518.1-646.2l-4.6-4.6l-4.6,4.6l4.6,4.6L518.1-646.2z M531.9-687.7l-4.6-4.6l-4.6,4.6l4.6,4.6L531.9-687.7
				z M531.9-660l-4.6-4.6l-4.6,4.6l4.6,4.6L531.9-660z M476.5-660l-4.6-4.6l-4.6,4.6l4.6,4.6L476.5-660z M504.2-660l-4.6-4.6
				L495-660l4.6,4.6L504.2-660z"/>
			<path fill="none" stroke="#4E9FDD" stroke-miterlimit="10" d="M530.5-649.4l7.5-7.5 M544.3-663.1l7.5-7.5 M558.2-677.1l7.5-7.5
				 M572-690.9l7.5-7.5 M538-690.7l-7.6-7.6 M551.8-676.9l-7.6-7.6 M565.6-663.1l-7.5-7.5 M579.4-649.3l-7.5-7.5 M558.1-698.4
				l7.5,7.5 M579.6-676.9l-7.6-7.6 M579.6-670.8l-7.6,7.6 M565.6-656.8l-7.6,7.6 M544.3-656.9l7.7,7.7 M538-663.1l-7.7-7.7
				 M530.3-676.9l7.6-7.6 M551.8-698.4l-7.5,7.5 M555-669.2c2.6,0,4.6-2,4.6-4.6s-2-4.6-4.6-4.6s-4.6,2-4.6,4.6
				S552.4-669.2,555-669.2z M568.8-683.1c2.6,0,4.6-2,4.6-4.6s-2-4.6-4.6-4.6s-4.6,2-4.6,4.6S566.2-683.1,568.8-683.1z M568.8-655.4
				c2.6,0,4.6-2,4.6-4.6s-2-4.6-4.6-4.6s-4.6,2-4.6,4.6S566.2-655.4,568.8-655.4z M541.1-683.1c2.6,0,4.6-2,4.6-4.6s-2-4.6-4.6-4.6
				s-4.6,2-4.6,4.6S538.5-683.1,541.1-683.1z M541.1-655.4c2.6,0,4.6-2,4.6-4.6s-2-4.6-4.6-4.6s-4.6,2-4.6,4.6
				S538.5-655.4,541.1-655.4z M582.6-678.4c-2.6,0-4.6,2-4.6,4.6s2,4.6,4.6,4.6 M578-701.5c0,2.6,2,4.6,4.6,4.6 M531.9-646.2
				c0-2.6-2-4.6-4.6-4.6 M582.6-650.8c-2.6,0-4.6,2-4.6,4.6 M527.3-696.9c2.6,0,4.6-2,4.6-4.6 M527.3-669.2c2.6,0,4.6-2,4.6-4.6
				s-2-4.6-4.6-4.6 M550.3-701.5c0,2.6,2,4.6,4.6,4.6s4.6-2,4.6-4.6 M559.6-646.2c0-2.6-2-4.6-4.6-4.6s-4.6,2-4.6,4.6 M559.6-687.7
				l-4.6-4.6l-4.6,4.6l4.6,4.6L559.6-687.7z M573.4-673.8l-4.6-4.6l-4.6,4.6l4.6,4.6L573.4-673.8z M545.7-673.8l-4.6-4.6l-4.6,4.6
				l4.6,4.6L545.7-673.8z M531.9-687.7l-4.6-4.6l-4.6,4.6l4.6,4.6L531.9-687.7z M545.7-701.5l-4.6-4.6l-4.6,4.6l4.6,4.6L545.7-701.5
				z M573.4-701.5l-4.6-4.6l-4.6,4.6l4.6,4.6L573.4-701.5z M545.7-646.2l-4.6-4.6l-4.6,4.6l4.6,4.6L545.7-646.2z M573.4-646.2
				l-4.6-4.6l-4.6,4.6l4.6,4.6L573.4-646.2z M587.2-687.7l-4.6-4.6l-4.6,4.6l4.6,4.6L587.2-687.7z M587.2-660l-4.6-4.6L578-660
				l4.6,4.6L587.2-660z M531.9-660l-4.6-4.6l-4.6,4.6l4.6,4.6L531.9-660z M559.6-660l-4.6-4.6l-4.6,4.6l4.6,4.6L559.6-660z"/>
			<path fill="none" stroke="#4E9FDD" stroke-miterlimit="10" d="M585.9-649.4l7.5-7.5 M599.6-663.1l7.5-7.5 M613.5-677.1l7.5-7.5
				 M627.4-690.9l7.5-7.5 M593.3-690.7l-7.6-7.6 M607.2-676.9l-7.6-7.6 M620.9-663.1l-7.5-7.5 M634.7-649.3l-7.5-7.5 M613.4-698.4
				l7.5,7.5 M634.9-676.9l-7.6-7.6 M634.9-670.8l-7.6,7.6 M620.9-656.8l-7.6,7.6 M599.6-656.9l7.7,7.7 M593.3-663.1l-7.7-7.7
				 M585.7-676.9l7.6-7.6 M607.2-698.4l-7.5,7.5 M610.3-669.2c2.6,0,4.6-2,4.6-4.6s-2-4.6-4.6-4.6s-4.6,2-4.6,4.6
				S607.7-669.2,610.3-669.2z M624.1-683.1c2.6,0,4.6-2,4.6-4.6s-2-4.6-4.6-4.6s-4.6,2-4.6,4.6S621.6-683.1,624.1-683.1z
				 M624.1-655.4c2.6,0,4.6-2,4.6-4.6s-2-4.6-4.6-4.6s-4.6,2-4.6,4.6S621.6-655.4,624.1-655.4z M596.5-683.1c2.6,0,4.6-2,4.6-4.6
				s-2-4.6-4.6-4.6c-2.6,0-4.6,2-4.6,4.6S593.9-683.1,596.5-683.1z M596.5-655.4c2.6,0,4.6-2,4.6-4.6s-2-4.6-4.6-4.6
				c-2.6,0-4.6,2-4.6,4.6S593.9-655.4,596.5-655.4z M638-678.4c-2.6,0-4.6,2-4.6,4.6s2,4.6,4.6,4.6 M633.4-701.5
				c0,2.6,2,4.6,4.6,4.6 M587.2-646.2c0-2.6-2-4.6-4.6-4.6 M638-650.8c-2.6,0-4.6,2-4.6,4.6 M582.6-696.9c2.6,0,4.6-2,4.6-4.6
				 M582.6-669.2c2.6,0,4.6-2,4.6-4.6s-2-4.6-4.6-4.6 M605.7-701.5c0,2.6,2,4.6,4.6,4.6s4.6-2,4.6-4.6 M614.9-646.2
				c0-2.6-2-4.6-4.6-4.6s-4.6,2-4.6,4.6 M614.9-687.7l-4.6-4.6l-4.6,4.6l4.6,4.6L614.9-687.7z M628.7-673.8l-4.6-4.6l-4.6,4.6
				l4.6,4.6L628.7-673.8z M601.1-673.8l-4.6-4.6l-4.6,4.6l4.6,4.6L601.1-673.8z M587.2-687.7l-4.6-4.6l-4.6,4.6l4.6,4.6L587.2-687.7
				z M601.1-701.5l-4.6-4.6l-4.6,4.6l4.6,4.6L601.1-701.5z M628.7-701.5l-4.6-4.6l-4.6,4.6l4.6,4.6L628.7-701.5z M601.1-646.2
				l-4.6-4.6l-4.6,4.6l4.6,4.6L601.1-646.2z M628.7-646.2l-4.6-4.6l-4.6,4.6l4.6,4.6L628.7-646.2z M642.6-687.7l-4.6-4.6l-4.6,4.6
				l4.6,4.6L642.6-687.7z M642.6-660l-4.6-4.6l-4.6,4.6l4.6,4.6L642.6-660z M587.2-660l-4.6-4.6L578-660l4.6,4.6L587.2-660z
				 M614.9-660l-4.6-4.6l-4.6,4.6l4.6,4.6L614.9-660z"/>
			<path fill="none" stroke="#4E9FDD" stroke-miterlimit="10" d="M641.2-649.4l7.5-7.5 M654.9-663.1l7.5-7.5 M668.9-677.1l7.5-7.5
				 M682.7-690.9l7.5-7.5 M648.7-690.7l-7.6-7.6 M662.5-676.9l-7.6-7.6 M676.3-663.1l-7.5-7.5 M690.1-649.3l-7.5-7.5 M668.8-698.4
				l7.5,7.5 M690.3-676.9l-7.6-7.6 M690.3-670.8l-7.6,7.6 M676.3-656.8l-7.6,7.6 M654.9-656.9l7.7,7.7 M648.7-663.1l-7.7-7.7
				 M641-676.9l7.6-7.6 M662.5-698.4l-7.5,7.5 M665.6-669.2c2.6,0,4.6-2,4.6-4.6s-2-4.6-4.6-4.6s-4.6,2-4.6,4.6
				S663.1-669.2,665.6-669.2z M679.5-683.1c2.6,0,4.6-2,4.6-4.6s-2-4.6-4.6-4.6s-4.6,2-4.6,4.6S676.9-683.1,679.5-683.1z
				 M679.5-655.4c2.6,0,4.6-2,4.6-4.6s-2-4.6-4.6-4.6s-4.6,2-4.6,4.6S676.9-655.4,679.5-655.4z M651.8-683.1c2.6,0,4.6-2,4.6-4.6
				s-2-4.6-4.6-4.6s-4.6,2-4.6,4.6S649.2-683.1,651.8-683.1z M651.8-655.4c2.6,0,4.6-2,4.6-4.6s-2-4.6-4.6-4.6s-4.6,2-4.6,4.6
				S649.2-655.4,651.8-655.4z M693.3-678.4c-2.6,0-4.6,2-4.6,4.6s2,4.6,4.6,4.6 M688.7-701.5c0,2.6,2,4.6,4.6,4.6 M642.6-646.2
				c0-2.6-2-4.6-4.6-4.6 M693.3-650.8c-2.6,0-4.6,2-4.6,4.6 M638-696.9c2.6,0,4.6-2,4.6-4.6 M638-669.2c2.6,0,4.6-2,4.6-4.6
				s-2-4.6-4.6-4.6 M661-701.5c0,2.6,2,4.6,4.6,4.6s4.6-2,4.6-4.6 M670.3-646.2c0-2.6-2-4.6-4.6-4.6s-4.6,2-4.6,4.6 M670.3-687.7
				l-4.6-4.6l-4.6,4.6l4.6,4.6L670.3-687.7z M684.1-673.8l-4.6-4.6l-4.6,4.6l4.6,4.6L684.1-673.8z M656.4-673.8l-4.6-4.6l-4.6,4.6
				l4.6,4.6L656.4-673.8z M642.6-687.7l-4.6-4.6l-4.6,4.6l4.6,4.6L642.6-687.7z M656.4-701.5l-4.6-4.6l-4.6,4.6l4.6,4.6L656.4-701.5
				z M684.1-701.5l-4.6-4.6l-4.6,4.6l4.6,4.6L684.1-701.5z M656.4-646.2l-4.6-4.6l-4.6,4.6l4.6,4.6L656.4-646.2z M684.1-646.2
				l-4.6-4.6l-4.6,4.6l4.6,4.6L684.1-646.2z M697.9-687.7l-4.6-4.6l-4.6,4.6l4.6,4.6L697.9-687.7z M697.9-660l-4.6-4.6l-4.6,4.6
				l4.6,4.6L697.9-660z M642.6-660l-4.6-4.6l-4.6,4.6l4.6,4.6L642.6-660z M670.3-660l-4.6-4.6L661-660l4.6,4.6L670.3-660z"/>
			<path fill="none" stroke="#4E9FDD" stroke-miterlimit="10" d="M696.5-649.4l7.5-7.5 M710.3-663.1l7.5-7.5 M724.2-677.1l7.5-7.5
				 M738.1-690.9l7.5-7.5 M704-690.7l-7.6-7.6 M717.9-676.9l-7.6-7.6 M731.6-663.1l-7.5-7.5 M745.4-649.3l-7.5-7.5 M724.1-698.4
				l7.5,7.5 M745.6-676.9l-7.6-7.6 M745.6-670.8l-7.6,7.6 M731.6-656.8l-7.6,7.6 M710.3-656.9l7.7,7.7 M704-663.1l-7.7-7.7
				 M696.4-676.9l7.6-7.6 M717.9-698.4l-7.5,7.5 M721-669.2c2.6,0,4.6-2,4.6-4.6s-2-4.6-4.6-4.6s-4.6,2-4.6,4.6
				S718.4-669.2,721-669.2z M734.8-683.1c2.6,0,4.6-2,4.6-4.6s-2-4.6-4.6-4.6s-4.6,2-4.6,4.6S732.2-683.1,734.8-683.1z M734.8-655.4
				c2.6,0,4.6-2,4.6-4.6s-2-4.6-4.6-4.6s-4.6,2-4.6,4.6S732.2-655.4,734.8-655.4z M707.2-683.1c2.6,0,4.6-2,4.6-4.6s-2-4.6-4.6-4.6
				s-4.6,2-4.6,4.6S704.6-683.1,707.2-683.1z M707.2-655.4c2.6,0,4.6-2,4.6-4.6s-2-4.6-4.6-4.6s-4.6,2-4.6,4.6
				S704.6-655.4,707.2-655.4z M748.7-678.4c-2.6,0-4.6,2-4.6,4.6s2,4.6,4.6,4.6 M744.1-701.5c0,2.6,2,4.6,4.6,4.6 M697.9-646.2
				c0-2.6-2-4.6-4.6-4.6 M748.7-650.8c-2.6,0-4.6,2-4.6,4.6 M693.3-696.9c2.6,0,4.6-2,4.6-4.6 M693.3-669.2c2.6,0,4.6-2,4.6-4.6
				s-2-4.6-4.6-4.6 M716.4-701.5c0,2.6,2,4.6,4.6,4.6s4.6-2,4.6-4.6 M725.6-646.2c0-2.6-2-4.6-4.6-4.6s-4.6,2-4.6,4.6 M725.6-687.7
				l-4.6-4.6l-4.6,4.6l4.6,4.6L725.6-687.7z M739.4-673.8l-4.6-4.6l-4.6,4.6l4.6,4.6L739.4-673.8z M711.8-673.8l-4.6-4.6l-4.6,4.6
				l4.6,4.6L711.8-673.8z M697.9-687.7l-4.6-4.6l-4.6,4.6l4.6,4.6L697.9-687.7z M711.8-701.5l-4.6-4.6l-4.6,4.6l4.6,4.6L711.8-701.5
				z M739.4-701.5l-4.6-4.6l-4.6,4.6l4.6,4.6L739.4-701.5z M711.8-646.2l-4.6-4.6l-4.6,4.6l4.6,4.6L711.8-646.2z M739.4-646.2
				l-4.6-4.6l-4.6,4.6l4.6,4.6L739.4-646.2z M753.3-687.7l-4.6-4.6l-4.6,4.6l4.6,4.6L753.3-687.7z M753.3-660l-4.6-4.6l-4.6,4.6
				l4.6,4.6L753.3-660z M697.9-660l-4.6-4.6l-4.6,4.6l4.6,4.6L697.9-660z M725.6-660l-4.6-4.6l-4.6,4.6l4.6,4.6L725.6-660z"/>
			<path fill="none" stroke="#4E9FDD" stroke-miterlimit="10" d="M751.9-649.4l7.5-7.5 M765.6-663.1l7.5-7.5 M779.6-677.1l7.5-7.5
				 M793.4-690.9l7.5-7.5 M759.4-690.7l-7.6-7.6 M773.2-676.9l-7.6-7.6 M786.9-663.1l-7.5-7.5 M800.8-649.3l-7.5-7.5 M779.5-698.4
				l7.5,7.5 M801-676.9l-7.6-7.6 M801-670.8l-7.6,7.6 M786.9-656.8l-7.6,7.6 M765.6-656.9l7.7,7.7 M759.4-663.1l-7.7-7.7
				 M751.7-676.9l7.6-7.6 M773.2-698.4l-7.5,7.5 M776.3-669.2c2.6,0,4.6-2,4.6-4.6s-2-4.6-4.6-4.6s-4.6,2-4.6,4.6
				S773.8-669.2,776.3-669.2z M790.2-683.1c2.6,0,4.6-2,4.6-4.6s-2-4.6-4.6-4.6s-4.6,2-4.6,4.6S787.6-683.1,790.2-683.1z
				 M790.2-655.4c2.6,0,4.6-2,4.6-4.6s-2-4.6-4.6-4.6s-4.6,2-4.6,4.6S787.6-655.4,790.2-655.4z M762.5-683.1c2.6,0,4.6-2,4.6-4.6
				s-2-4.6-4.6-4.6s-4.6,2-4.6,4.6S759.9-683.1,762.5-683.1z M762.5-655.4c2.6,0,4.6-2,4.6-4.6s-2-4.6-4.6-4.6s-4.6,2-4.6,4.6
				S759.9-655.4,762.5-655.4z M804-678.4c-2.6,0-4.6,2-4.6,4.6s2,4.6,4.6,4.6 M799.4-701.5c0,2.6,2,4.6,4.6,4.6 M753.3-646.2
				c0-2.6-2-4.6-4.6-4.6 M804-650.8c-2.6,0-4.6,2-4.6,4.6 M748.7-696.9c2.6,0,4.6-2,4.6-4.6 M748.7-669.2c2.6,0,4.6-2,4.6-4.6
				s-2-4.6-4.6-4.6 M771.7-701.5c0,2.6,2,4.6,4.6,4.6s4.6-2,4.6-4.6 M780.9-646.2c0-2.6-2-4.6-4.6-4.6s-4.6,2-4.6,4.6 M780.9-687.7
				l-4.6-4.6l-4.6,4.6l4.6,4.6L780.9-687.7z M794.8-673.8l-4.6-4.6l-4.6,4.6l4.6,4.6L794.8-673.8z M767.1-673.8l-4.6-4.6l-4.6,4.6
				l4.6,4.6L767.1-673.8z M753.3-687.7l-4.6-4.6l-4.6,4.6l4.6,4.6L753.3-687.7z M767.1-701.5l-4.6-4.6l-4.6,4.6l4.6,4.6L767.1-701.5
				z M794.8-701.5l-4.6-4.6l-4.6,4.6l4.6,4.6L794.8-701.5z M767.1-646.2l-4.6-4.6l-4.6,4.6l4.6,4.6L767.1-646.2z M794.8-646.2
				l-4.6-4.6l-4.6,4.6l4.6,4.6L794.8-646.2z M808.6-687.7l-4.6-4.6l-4.6,4.6l4.6,4.6L808.6-687.7z M808.6-660l-4.6-4.6l-4.6,4.6
				l4.6,4.6L808.6-660z M753.3-660l-4.6-4.6l-4.6,4.6l4.6,4.6L753.3-660z M780.9-660l-4.6-4.6l-4.6,4.6l4.6,4.6L780.9-660z"/>
			<path fill="none" stroke="#4E9FDD" stroke-miterlimit="10" d="M807.2-649.4l7.5-7.5 M821-663.1l7.5-7.5 M834.9-677.1l7.5-7.5
				 M848.7-690.9l7.5-7.5 M814.7-690.7l-7.6-7.6 M828.5-676.9l-7.6-7.6 M842.3-663.1l-7.5-7.5 M856.1-649.3l-7.5-7.5 M834.8-698.4
				l7.5,7.5 M856.3-676.9l-7.6-7.6 M856.3-670.8l-7.6,7.6 M842.3-656.8l-7.6,7.6 M821-656.9l7.7,7.7 M814.7-663.1l-7.7-7.7
				 M807.1-676.9l7.6-7.6 M828.5-698.4l-7.5,7.5 M831.7-669.2c2.6,0,4.6-2,4.6-4.6s-2-4.6-4.6-4.6s-4.6,2-4.6,4.6
				S829.1-669.2,831.7-669.2z M845.5-683.1c2.6,0,4.6-2,4.6-4.6s-2-4.6-4.6-4.6s-4.6,2-4.6,4.6S842.9-683.1,845.5-683.1z
				 M845.5-655.4c2.6,0,4.6-2,4.6-4.6s-2-4.6-4.6-4.6s-4.6,2-4.6,4.6S842.9-655.4,845.5-655.4z M817.8-683.1c2.6,0,4.6-2,4.6-4.6
				s-2-4.6-4.6-4.6s-4.6,2-4.6,4.6S815.3-683.1,817.8-683.1z M817.8-655.4c2.6,0,4.6-2,4.6-4.6s-2-4.6-4.6-4.6s-4.6,2-4.6,4.6
				S815.3-655.4,817.8-655.4z M859.4-678.4c-2.6,0-4.6,2-4.6,4.6s2,4.6,4.6,4.6 M854.7-701.5c0,2.6,2,4.6,4.6,4.6 M808.6-646.2
				c0-2.6-2-4.6-4.6-4.6 M859.4-650.8c-2.6,0-4.6,2-4.6,4.6 M804-696.9c2.6,0,4.6-2,4.6-4.6 M804-669.2c2.6,0,4.6-2,4.6-4.6
				s-2-4.6-4.6-4.6 M827.1-701.5c0,2.6,2,4.6,4.6,4.6s4.6-2,4.6-4.6 M836.3-646.2c0-2.6-2-4.6-4.6-4.6s-4.6,2-4.6,4.6 M836.3-687.7
				l-4.6-4.6l-4.6,4.6l4.6,4.6L836.3-687.7z M850.1-673.8l-4.6-4.6l-4.6,4.6l4.6,4.6L850.1-673.8z M822.5-673.8l-4.6-4.6l-4.6,4.6
				l4.6,4.6L822.5-673.8z M808.6-687.7l-4.6-4.6l-4.6,4.6l4.6,4.6L808.6-687.7z M822.5-701.5l-4.6-4.6l-4.6,4.6l4.6,4.6L822.5-701.5
				z M850.1-701.5l-4.6-4.6l-4.6,4.6l4.6,4.6L850.1-701.5z M822.5-646.2l-4.6-4.6l-4.6,4.6l4.6,4.6L822.5-646.2z M850.1-646.2
				l-4.6-4.6l-4.6,4.6l4.6,4.6L850.1-646.2z M864-687.7l-4.6-4.6l-4.6,4.6l4.6,4.6L864-687.7z M864-660l-4.6-4.6l-4.6,4.6l4.6,4.6
				L864-660z M808.6-660l-4.6-4.6l-4.6,4.6l4.6,4.6L808.6-660z M836.3-660l-4.6-4.6l-4.6,4.6l4.6,4.6L836.3-660z"/>
			<path fill="none" stroke="#4E9FDD" stroke-miterlimit="10" d="M862.6-649.4l7.5-7.5 M876.3-663.1l7.5-7.5 M890.3-677.1l7.5-7.5
				 M904.1-690.9l7.5-7.5 M870.1-690.7l-7.6-7.6 M883.9-676.9l-7.6-7.6 M897.6-663.1l-7.5-7.5 M911.5-649.3l-7.5-7.5 M890.2-698.4
				l7.5,7.5 M911.7-676.9l-7.6-7.6 M911.7-670.8l-7.6,7.6 M897.6-656.8l-7.6,7.6 M876.3-656.9l7.7,7.7 M870.1-663.1l-7.7-7.7
				 M862.4-676.9l7.6-7.6 M883.9-698.4l-7.5,7.5 M887-669.2c2.6,0,4.6-2,4.6-4.6s-2-4.6-4.6-4.6s-4.6,2-4.6,4.6
				S884.4-669.2,887-669.2z M900.9-683.1c2.6,0,4.6-2,4.6-4.6s-2-4.6-4.6-4.6s-4.6,2-4.6,4.6S898.3-683.1,900.9-683.1z M900.9-655.4
				c2.6,0,4.6-2,4.6-4.6s-2-4.6-4.6-4.6s-4.6,2-4.6,4.6S898.3-655.4,900.9-655.4z M873.2-683.1c2.6,0,4.6-2,4.6-4.6s-2-4.6-4.6-4.6
				s-4.6,2-4.6,4.6S870.6-683.1,873.2-683.1z M873.2-655.4c2.6,0,4.6-2,4.6-4.6s-2-4.6-4.6-4.6s-4.6,2-4.6,4.6
				S870.6-655.4,873.2-655.4z M914.7-678.4c-2.6,0-4.6,2-4.6,4.6s2,4.6,4.6,4.6 M910.1-701.5c0,2.6,2,4.6,4.6,4.6 M864-646.2
				c0-2.6-2-4.6-4.6-4.6 M914.7-650.8c-2.6,0-4.6,2-4.6,4.6 M859.4-696.9c2.6,0,4.6-2,4.6-4.6 M859.4-669.2c2.6,0,4.6-2,4.6-4.6
				s-2-4.6-4.6-4.6 M882.4-701.5c0,2.6,2,4.6,4.6,4.6s4.6-2,4.6-4.6 M891.6-646.2c0-2.6-2-4.6-4.6-4.6s-4.6,2-4.6,4.6 M891.6-687.7
				l-4.6-4.6l-4.6,4.6l4.6,4.6L891.6-687.7z M905.5-673.8l-4.6-4.6l-4.6,4.6l4.6,4.6L905.5-673.8z M877.8-673.8l-4.6-4.6l-4.6,4.6
				l4.6,4.6L877.8-673.8z M864-687.7l-4.6-4.6l-4.6,4.6l4.6,4.6L864-687.7z M877.8-701.5l-4.6-4.6l-4.6,4.6l4.6,4.6L877.8-701.5z
				 M905.5-701.5l-4.6-4.6l-4.6,4.6l4.6,4.6L905.5-701.5z M877.8-646.2l-4.6-4.6l-4.6,4.6l4.6,4.6L877.8-646.2z M905.5-646.2
				l-4.6-4.6l-4.6,4.6l4.6,4.6L905.5-646.2z M919.3-687.7l-4.6-4.6l-4.6,4.6l4.6,4.6L919.3-687.7z M919.3-660l-4.6-4.6l-4.6,4.6
				l4.6,4.6L919.3-660z M864-660l-4.6-4.6l-4.6,4.6l4.6,4.6L864-660z M891.6-660l-4.6-4.6l-4.6,4.6l4.6,4.6L891.6-660z"/>
			<path fill="none" stroke="#4E9FDD" stroke-miterlimit="10" d="M917.9-649.4l7.5-7.5 M931.7-663.1l7.5-7.5 M945.6-677.1l7.5-7.5
				 M959.4-690.9l7.5-7.5 M925.4-690.7l-7.6-7.6 M939.2-676.9l-7.6-7.6 M949.5-666.6l-4-4 M945.5-698.4l7.5,7.5 M963.4-680.5
				l-3.9-3.9 M931.7-656.9l4,4 M925.4-663.1l-7.7-7.7 M917.7-676.9l7.6-7.6 M939.2-698.4l-7.5,7.5 M942.4-669.2c2.6,0,4.6-2,4.6-4.6
				s-2-4.6-4.6-4.6s-4.6,2-4.6,4.6S939.8-669.2,942.4-669.2z M956.2-683.1c2.6,0,4.6-2,4.6-4.6s-2-4.6-4.6-4.6s-4.6,2-4.6,4.6
				S953.6-683.1,956.2-683.1z M928.5-683.1c2.6,0,4.6-2,4.6-4.6s-2-4.6-4.6-4.6s-4.6,2-4.6,4.6S926-683.1,928.5-683.1z M928.5-655.4
				c2.6,0,4.6-2,4.6-4.6s-2-4.6-4.6-4.6s-4.6,2-4.6,4.6S926-655.4,928.5-655.4z M965.4-701.5c0,2.6,2,4.6,4.6,4.6 M919.3-646.2
				c0-2.6-2-4.6-4.6-4.6 M914.7-696.9c2.6,0,4.6-2,4.6-4.6 M914.7-669.2c2.6,0,4.6-2,4.6-4.6s-2-4.6-4.6-4.6 M937.8-701.5
				c0,2.6,2,4.6,4.6,4.6s4.6-2,4.6-4.6 M947-687.7l-4.6-4.6l-4.6,4.6l4.6,4.6L947-687.7z M958.7-675.9l-2.5-2.5l-4.6,4.6l2.5,2.5
				 M933.2-673.8l-4.6-4.6l-4.6,4.6l4.6,4.6L933.2-673.8z M919.3-687.7l-4.6-4.6l-4.6,4.6l4.6,4.6L919.3-687.7z M933.2-701.5
				l-4.6-4.6l-4.6,4.6l4.6,4.6L933.2-701.5z M960.8-701.5l-4.6-4.6l-4.6,4.6l4.6,4.6L960.8-701.5z M931.1-648.2l-2.5-2.5l-4.6,4.6
				 M970-692.3l-4.6,4.6 M919.3-660l-4.6-4.6l-4.6,4.6l4.6,4.6L919.3-660z M944.9-662.1l-2.5-2.5l-4.6,4.6l2.5,2.5"/>
			<path fill="none" stroke="#4E9FDD" stroke-miterlimit="10" d="M977.2-694.3l-4-4 M970-696.9c2.6,0,4.6-2,4.6-4.6 M972.6-689.7
				l-2.5-2.5l-4.6,4.6l2.5,2.5 M986.4-703.6l-2.5-2.5l-4.6,4.6l2.5,2.5"/>
		</g>
	</g>
</g>
</svg>
