<?xml version="1.0" encoding="utf-8"?>
<!-- Generator: Adobe Illustrator 17.1.0, SVG Export Plug-In . SVG Version: 6.00 Build 0)  -->
<!DOCTYPE svg PUBLIC "-//W3C//DTD SVG 1.1//EN" "http://www.w3.org/Graphics/SVG/1.1/DTD/svg11.dtd">
<svg version="1.1" id="svg8021" xmlns="http://www.w3.org/2000/svg" xmlns:xlink="http://www.w3.org/1999/xlink" x="0px" y="0px"
	 viewBox="0 0 500 500" enable-background="new 0 0 500 500" xml:space="preserve">
<path id="path4380" fill="#37424A" d="M129.4,500H500V127.7L129.4,500z"/>
<path id="path4384" fill="#5E6A71" d="M84.1,500h45.3L500,129.2V84.1L84.1,500z"/>
<g transform="translate(-200 1200)">
	<g transform="rotate(-45)">
		<path fill="none" stroke="#5E6A71" stroke-linecap="square" stroke-miterlimit="10" d="M668.5-325 M638.2-355.3l30.3,30.3
			 M651-339l17.6-17.6 M644.8-356.6l-5.7,5.7 M662.8-327.2l5.7-5.7 M668.5-340.8l-15.8-15.8 M660.6-356.6l7.9,7.9 M654.9-335
			l5.7-5.7l-7.9-7.9l-5.7,5.7 M652.7-356.6l-9.7,9.7 M668.5-340.8l-9.7,9.7"/>
		<path fill="none" stroke="#5E6A71" stroke-linecap="square" stroke-miterlimit="10" d="M668.5-325l31.6-31.6 M700.1-293.4
			l31.6-31.6 M668.5-325l31.6,31.6 M700.1-356.6l31.6,31.6 M682.5-307.4l49.1-49.1 M668.5-356.6l63.1,63.1 M708-293.4l-7.9-7.9
			l-5.7,5.7 M708-356.6l-7.9,7.9l-7.9-7.9 M731.6-317.1l-7.9-7.9l7.9-7.9 M731.6-309.2l-15.8,15.8 M731.6-340.8l-15.8-15.8
			 M668.5-340.8l15.8-15.8 M723.7-356.6l7.9,7.9 M731.6-301.3l-7.9,7.9 M676.4-356.6l-7.9,7.9 M670.7-319.3l5.7-5.7l-7.9-7.9
			 M700.1-332.9l-7.9,7.9l7.9,7.9l7.9-7.9L700.1-332.9z M715.9-317.1l-7.9,7.9l7.9,7.9l7.9-7.9L715.9-317.1z M686.5-303.5l5.7-5.7
			l-7.9-7.9l-5.7,5.7 M715.9-348.7l-7.9,7.9l7.9,7.9l7.9-7.9L715.9-348.7z M684.3-348.7l-7.9,7.9l7.9,7.9l7.9-7.9L684.3-348.7z
			 M715.9-356.6l-41.2,41.2 M731.6-340.8l-41.2,41.2 M684.3-356.6l47.3,47.3 M668.5-340.8l47.3,47.3"/>
		<path fill="none" stroke="#5E6A71" stroke-linecap="square" stroke-miterlimit="10" d="M731.6-325l31.6-31.6 M763.2-293.4
			l31.6-31.6 M731.6-325l31.6,31.6 M763.2-356.6l31.6,31.6 M731.6-293.4l63.1-63.1 M731.6-356.6l63.1,63.1 M771.1-293.4l-7.9-7.9
			l-7.9,7.9 M771.1-356.6l-7.9,7.9l-7.9-7.9 M794.8-317.1l-7.9-7.9l7.9-7.9 M794.8-309.2L779-293.4 M794.8-340.8L779-356.6
			 M731.6-340.8l15.8-15.8 M731.6-309.2l15.8,15.8 M786.9-356.6l7.9,7.9 M794.8-301.3l-7.9,7.9 M739.5-356.6l-7.9,7.9 M731.6-301.3
			l7.9,7.9 M731.6-317.1l7.9-7.9l-7.9-7.9 M763.2-332.9l-7.9,7.9l7.9,7.9l7.9-7.9L763.2-332.9z M779-317.1l-7.9,7.9l7.9,7.9l7.9-7.9
			L779-317.1z M747.4-317.1l-7.9,7.9l7.9,7.9l7.9-7.9L747.4-317.1z M779-348.7l-7.9,7.9l7.9,7.9l7.9-7.9L779-348.7z M747.4-348.7
			l-7.9,7.9l7.9,7.9l7.9-7.9L747.4-348.7z M779-356.6l-47.3,47.3 M794.8-340.8l-47.3,47.3 M747.4-356.6l47.3,47.3 M731.6-340.8
			l47.3,47.3"/>
		<path fill="none" stroke="#5E6A71" stroke-linecap="square" stroke-miterlimit="10" d="M794.8-325l31.6-31.6 M826.3-293.4
			l31.6-31.6 M794.8-325l31.6,31.6 M826.3-356.6l31.6,31.6 M794.8-293.4l63.1-63.1 M794.8-356.6l63.1,63.1 M834.2-293.4l-7.9-7.9
			l-7.9,7.9 M834.2-356.6l-7.9,7.9l-7.9-7.9 M857.9-317.1L850-325l7.9-7.9 M857.9-309.2l-15.8,15.8 M857.9-340.8l-15.8-15.8
			 M794.8-340.8l15.8-15.8 M794.8-309.2l15.8,15.8 M850-356.6l7.9,7.9 M857.9-301.3l-7.9,7.9 M802.7-356.6l-7.9,7.9 M794.8-301.3
			l7.9,7.9 M794.8-317.1l7.9-7.9l-7.9-7.9 M826.3-332.9l-7.9,7.9l7.9,7.9l7.9-7.9L826.3-332.9z M842.1-317.1l-7.9,7.9l7.9,7.9
			l7.9-7.9L842.1-317.1z M810.6-317.1l-7.9,7.9l7.9,7.9l7.9-7.9L810.6-317.1z M842.1-348.7l-7.9,7.9l7.9,7.9l7.9-7.9L842.1-348.7z
			 M810.6-348.7l-7.9,7.9l7.9,7.9l7.9-7.9L810.6-348.7z M842.1-356.6l-47.3,47.3 M857.9-340.8l-47.3,47.3 M810.6-356.6l47.3,47.3
			 M794.8-340.8l47.3,47.3"/>
		<path fill="none" stroke="#5E6A71" stroke-linecap="square" stroke-miterlimit="10" d="M857.9-325l31.6-31.6 M889.5-293.4L921-325
			 M857.9-325l31.6,31.6 M889.5-356.6L921-325 M857.9-293.4l63.1-63.1 M857.9-356.6l63.1,63.1 M897.4-293.4l-7.9-7.9l-7.9,7.9
			 M897.4-356.6l-7.9,7.9l-7.9-7.9 M921-317.1l-7.9-7.9l7.9-7.9 M921-309.2l-15.8,15.8 M921-340.8l-15.8-15.8 M857.9-340.8
			l15.8-15.8 M857.9-309.2l15.8,15.8 M913.1-356.6l7.9,7.9 M921-301.3l-7.9,7.9 M865.8-356.6l-7.9,7.9 M857.9-301.3l7.9,7.9
			 M857.9-317.1l7.9-7.9l-7.9-7.9 M889.5-332.9l-7.9,7.9l7.9,7.9l7.9-7.9L889.5-332.9z M905.3-317.1l-7.9,7.9l7.9,7.9l7.9-7.9
			L905.3-317.1z M873.7-317.1l-7.9,7.9l7.9,7.9l7.9-7.9L873.7-317.1z M905.3-348.7l-7.9,7.9l7.9,7.9l7.9-7.9L905.3-348.7z
			 M873.7-348.7l-7.9,7.9l7.9,7.9l7.9-7.9L873.7-348.7z M905.3-356.6l-47.3,47.3 M921-340.8l-47.3,47.3 M873.7-356.6l47.3,47.3
			 M857.9-340.8l47.3,47.3"/>
		<path fill="none" stroke="#5E6A71" stroke-linecap="square" stroke-miterlimit="10" d="M921-325l31.6-31.6 M952.6-293.4l31.6-31.6
			 M921-325l31.6,31.6 M952.6-356.6l31.6,31.6 M921-293.4l63.1-63.1 M921-356.6l63.1,63.1 M960.5-293.4l-7.9-7.9l-7.9,7.9
			 M960.5-356.6l-7.9,7.9l-7.9-7.9 M984.2-317.1l-7.9-7.9l7.9-7.9 M984.2-309.2l-15.8,15.8 M984.2-340.8l-15.8-15.8 M921-340.8
			l15.8-15.8 M921-309.2l15.8,15.8 M976.3-356.6l7.9,7.9 M984.2-301.3l-7.9,7.9 M928.9-356.6l-7.9,7.9 M921-301.3l7.9,7.9
			 M921-317.1l7.9-7.9l-7.9-7.9 M952.6-332.9l-7.9,7.9l7.9,7.9l7.9-7.9L952.6-332.9z M968.4-317.1l-7.9,7.9l7.9,7.9l7.9-7.9
			L968.4-317.1z M936.8-317.1l-7.9,7.9l7.9,7.9l7.9-7.9L936.8-317.1z M968.4-348.7l-7.9,7.9l7.9,7.9l7.9-7.9L968.4-348.7z
			 M936.8-348.7l-7.9,7.9l7.9,7.9l7.9-7.9L936.8-348.7z M968.4-356.6L921-309.2 M984.2-340.8l-47.3,47.3 M936.8-356.6l47.3,47.3
			 M921-340.8l47.3,47.3"/>
		<path fill="none" stroke="#5E6A71" stroke-linecap="square" stroke-miterlimit="10" d="M984.2-325l31.6-31.6 M1015.7-293.4
			l31.6-31.6 M984.2-325l31.6,31.6 M1015.7-356.6l31.6,31.6 M984.2-293.4l63.1-63.1 M984.2-356.6l63.1,63.1 M1023.6-293.4l-7.9-7.9
			l-7.9,7.9 M1023.6-356.6l-7.9,7.9l-7.9-7.9 M1047.3-317.1l-7.9-7.9l7.9-7.9 M1047.3-309.2l-15.8,15.8 M1047.3-340.8l-15.8-15.8
			 M984.2-340.8l15.8-15.8 M984.2-309.2l15.8,15.8 M1039.4-356.6l7.9,7.9 M1047.3-301.3l-7.9,7.9 M992.1-356.6l-7.9,7.9
			 M984.2-301.3l7.9,7.9 M984.2-317.1l7.9-7.9l-7.9-7.9 M1015.7-332.9l-7.9,7.9l7.9,7.9l7.9-7.9L1015.7-332.9z M1031.5-317.1
			l-7.9,7.9l7.9,7.9l7.9-7.9L1031.5-317.1z M1000-317.1l-7.9,7.9l7.9,7.9l7.9-7.9L1000-317.1z M1031.5-348.7l-7.9,7.9l7.9,7.9
			l7.9-7.9L1031.5-348.7z M1000-348.7l-7.9,7.9l7.9,7.9l7.9-7.9L1000-348.7z M1031.5-356.6l-47.3,47.3 M1047.3-340.8l-47.3,47.3
			 M1000-356.6l47.3,47.3 M984.2-340.8l47.3,47.3"/>
		<path fill="none" stroke="#5E6A71" stroke-linecap="square" stroke-miterlimit="10" d="M1047.3-325l31.6-31.6 M1078.9-293.4
			l31.6-31.6 M1047.3-325l31.6,31.6 M1078.9-356.6l31.6,31.6 M1047.3-293.4l63.1-63.1 M1047.3-356.6l63.1,63.1 M1086.8-293.4
			l-7.9-7.9l-7.9,7.9 M1086.8-356.6l-7.9,7.9l-7.9-7.9 M1110.4-317.1l-7.9-7.9l7.9-7.9 M1110.4-309.2l-15.8,15.8 M1110.4-340.8
			l-15.8-15.8 M1047.3-340.8l15.8-15.8 M1047.3-309.2l15.8,15.8 M1102.5-356.6l7.9,7.9 M1110.4-301.3l-7.9,7.9 M1055.2-356.6
			l-7.9,7.9 M1047.3-301.3l7.9,7.9 M1047.3-317.1l7.9-7.9l-7.9-7.9 M1078.9-332.9l-7.9,7.9l7.9,7.9l7.9-7.9L1078.9-332.9z
			 M1094.6-317.1l-7.9,7.9l7.9,7.9l7.9-7.9L1094.6-317.1z M1063.1-317.1l-7.9,7.9l7.9,7.9l7.9-7.9L1063.1-317.1z M1094.6-348.7
			l-7.9,7.9l7.9,7.9l7.9-7.9L1094.6-348.7z M1063.1-348.7l-7.9,7.9l7.9,7.9l7.9-7.9L1063.1-348.7z M1094.6-356.6l-47.3,47.3
			 M1110.4-340.8l-47.3,47.3 M1063.1-356.6l47.3,47.3 M1047.3-340.8l47.3,47.3"/>
		<path fill="none" stroke="#5E6A71" stroke-linecap="square" stroke-miterlimit="10" d="M1110.4-325l31.6-31.6 M1142-293.4
			l31.6-31.6 M1110.4-325l31.6,31.6 M1142-356.6l31.6,31.6 M1110.4-293.4l63.1-63.1 M1110.4-356.6l63.1,63.1 M1149.9-293.4l-7.9-7.9
			l-7.9,7.9 M1149.9-356.6l-7.9,7.9l-7.9-7.9 M1173.6-317.1l-7.9-7.9l7.9-7.9 M1173.6-309.2l-15.8,15.8 M1173.6-340.8l-15.8-15.8
			 M1110.4-340.8l15.8-15.8 M1110.4-309.2l15.8,15.8 M1165.7-356.6l7.9,7.9 M1173.6-301.3l-7.9,7.9 M1118.3-356.6l-7.9,7.9
			 M1110.4-301.3l7.9,7.9 M1110.4-317.1l7.9-7.9l-7.9-7.9 M1142-332.9l-7.9,7.9l7.9,7.9l7.9-7.9L1142-332.9z M1157.8-317.1l-7.9,7.9
			l7.9,7.9l7.9-7.9L1157.8-317.1z M1126.2-317.1l-7.9,7.9l7.9,7.9l7.9-7.9L1126.2-317.1z M1157.8-348.7l-7.9,7.9l7.9,7.9l7.9-7.9
			L1157.8-348.7z M1126.2-348.7l-7.9,7.9l7.9,7.9l7.9-7.9L1126.2-348.7z M1157.8-356.6l-47.3,47.3 M1173.6-340.8l-47.3,47.3
			 M1126.2-356.6l47.3,47.3 M1110.4-340.8l47.3,47.3"/>
		<path fill="none" stroke="#5E6A71" stroke-linecap="square" stroke-miterlimit="10" d="M1173.6-325l31.6-31.6 M1205.1-293.4
			l31.6-31.6 M1173.6-325l31.6,31.6 M1205.1-356.6l31.6,31.6 M1173.6-293.4l63.1-63.1 M1173.6-356.6l63.1,63.1 M1213-293.4l-7.9-7.9
			l-7.9,7.9 M1213-356.6l-7.9,7.9l-7.9-7.9 M1236.7-317.1l-7.9-7.9l7.9-7.9 M1236.7-309.2l-15.8,15.8 M1236.7-340.8l-15.8-15.8
			 M1173.6-340.8l15.8-15.8 M1173.6-309.2l15.8,15.8 M1228.8-356.6l7.9,7.9 M1236.7-301.3l-7.9,7.9 M1181.5-356.6l-7.9,7.9
			 M1173.6-301.3l7.9,7.9 M1173.6-317.1l7.9-7.9l-7.9-7.9 M1205.1-332.9l-7.9,7.9l7.9,7.9l7.9-7.9L1205.1-332.9z M1220.9-317.1
			l-7.9,7.9l7.9,7.9l7.9-7.9L1220.9-317.1z M1189.3-317.1l-7.9,7.9l7.9,7.9l7.9-7.9L1189.3-317.1z M1220.9-348.7l-7.9,7.9l7.9,7.9
			l7.9-7.9L1220.9-348.7z M1189.3-348.7l-7.9,7.9l7.9,7.9l7.9-7.9L1189.3-348.7z M1220.9-356.6l-47.3,47.3 M1236.7-340.8l-47.3,47.3
			 M1189.3-356.6l47.3,47.3 M1173.6-340.8l47.3,47.3"/>
		<path fill="none" stroke="#5E6A71" stroke-linecap="square" stroke-miterlimit="10" d="M1236.7-325l31.6-31.6 M1268.3-293.4
			l31.6-31.6 M1236.7-325l31.6,31.6 M1268.3-356.6l31.6,31.6 M1236.7-293.4l63.1-63.1 M1236.7-356.6l54.9,54.9 M1276.2-293.4
			l-7.9-7.9l-7.9,7.9 M1276.2-356.6l-7.9,7.9l-7.9-7.9 M1299.8-317.1l-7.9-7.9l7.9-7.9 M1299.8-340.8l-15.8-15.8 M1236.7-340.8
			l15.8-15.8 M1236.7-309.2l15.8,15.8 M1291.9-356.6l7.9,7.9 M1244.6-356.6l-7.9,7.9 M1236.7-301.3l7.9,7.9 M1236.7-317.1l7.9-7.9
			l-7.9-7.9 M1268.3-332.9l-7.9,7.9l7.9,7.9l7.9-7.9L1268.3-332.9z M1284-317.1l-7.9,7.9l7.9,7.9l7.9-7.9L1284-317.1z M1252.5-317.1
			l-7.9,7.9l7.9,7.9l7.9-7.9L1252.5-317.1z M1284-348.7l-7.9,7.9l7.9,7.9l7.9-7.9L1284-348.7z M1252.5-348.7l-7.9,7.9l7.9,7.9
			l7.9-7.9L1252.5-348.7z M1284-356.6l-47.3,47.3 M1299.8-340.8l-47.3,47.3 M1252.5-356.6l47,47 M1236.7-340.8"/>
		<path fill="none" stroke="#5E6A71" stroke-linecap="square" stroke-miterlimit="10" d="M1299.8-325l31.6-31.6 M1299.8-325l7.6,7.6
			 M1331.4-356.6l7.6,7.6 M1299.8-356.6l23.3,23.3 M1339.3-356.6l-7.9,7.9l-7.9-7.9 M1299.8-340.8l15.8-15.8 M1307.7-356.6l-7.9,7.9
			 M1299.8-317.1l7.9-7.9l-7.9-7.9 M1315.6-348.7l-7.9,7.9l7.9,7.9l7.9-7.9L1315.6-348.7z M1315.6-356.6l15.4,15.4 M1299.8-340.8
			l15.6,15.3"/>
	</g>
</g>
</svg>
