<?xml version="1.0" encoding="utf-8"?>
<!-- Generator: Adobe Illustrator 17.1.0, SVG Export Plug-In . SVG Version: 6.00 Build 0)  -->
<!DOCTYPE svg PUBLIC "-//W3C//DTD SVG 1.1//EN" "http://www.w3.org/Graphics/SVG/1.1/DTD/svg11.dtd">
<svg version="1.1" id="svg8021" xmlns="http://www.w3.org/2000/svg" xmlns:xlink="http://www.w3.org/1999/xlink" x="0px" y="0px"
	 viewBox="0 0 500 500" enable-background="new 0 0 500 500" xml:space="preserve">
<path id="path4380" fill="#EC7A08" d="M129.4,500H500V127.7L129.4,500z"/>
<path id="path4384" fill="#FFB612" d="M84.1,500h45.3L500,129.2V84.1L84.1,500z"/>
<g transform="translate(0 1200)">
	<g transform="rotate(-45)">
		<path fill="none" stroke="#FFB612" stroke-miterlimit="10" d="M499.6-491.4 M519-491.4l-1.9,1.9 M521-483.7l-3.9,3.9 M521-474
			l-2.5,2.5 M460.9-433.3 M517.1-479.8l-3.5,3.5 M509.3-491.4l-5.4,5.4 M507.4-482.5v-6.9h9.7v9.7h-6.9"/>
		<path fill="none" stroke="#FFB612" stroke-miterlimit="10" d="M577.2-433.3l1.9-1.9 M538.4-491.4l-1.9,1.9 M557.8-491.4l-1.9,1.9
			 M577.2-491.4l-1.9,1.9 M579.1-483.7l-3.9,3.9 M579.1-474l-3.9,3.9 M579.1-454.6l-3.9,3.9 M565.5-479.8l-9.7,9.7 M526.8-479.8
			L521-474 M546.2-479.8l-9.7,9.7 M546.2-460.4l-8.3,8.3 M565.5-460.4l-9.7,9.7 M565.5-441l-7.8,7.8 M579.1-444.9l-11.6,11.6
			 M579.1-464.3l-26.7,26.7 M575.2-479.8l-32.5,32.5 M567.5-491.4L533-456.9 M565.5-450.7h9.7v9.7h-9.7V-450.7z M546.2-443.8v-6.9
			h9.7v9.7h-6.9 M565.5-470.1h9.7v9.7h-9.7V-470.1z M546.2-470.1h9.7v9.7h-9.7V-470.1z M526.8-463.2v-6.9h9.7v9.7h-6.9 M548.1-491.4
			l-24.8,24.8 M565.5-489.5h9.7v9.7h-9.7V-489.5z M546.2-489.5h9.7v9.7h-9.7V-489.5z M526.8-489.5h9.7v9.7h-9.7V-489.5z
			 M528.7-491.4l-7.8,7.8"/>
		<path fill="none" stroke="#FFB612" stroke-miterlimit="10" d="M635.3-433.3l1.9-1.9 M596.6-491.4l-1.9,1.9 M615.9-491.4l-1.9,1.9
			 M635.3-491.4l-1.9,1.9 M637.3-483.7l-3.9,3.9 M637.3-474l-3.9,3.9 M637.3-454.6l-3.9,3.9 M584.9-441l-7.8,7.8 M623.7-479.8
			l-9.7,9.7 M584.9-479.8l-5.8,5.8 M584.9-460.4l-5.8,5.8 M604.3-479.8l-9.7,9.7 M604.3-460.4l-9.7,9.7 M623.7-460.4l-9.7,9.7
			 M604.3-441l-7.8,7.8 M623.7-441l-7.8,7.8 M637.3-444.9l-11.6,11.6 M637.3-464.3l-31,31 M633.4-479.8l-46.5,46.5 M625.6-491.4
			l-46.5,46.5 M623.7-450.7h9.7v9.7h-9.7V-450.7z M604.3-450.7h9.7v9.7h-9.7V-450.7z M584.9-450.7h9.7v9.7h-9.7V-450.7z
			 M623.7-470.1h9.7v9.7h-9.7V-470.1z M604.3-470.1h9.7v9.7h-9.7V-470.1z M584.9-470.1h9.7v9.7h-9.7V-470.1z M606.2-491.4
			l-27.1,27.1 M623.7-489.5h9.7v9.7h-9.7V-489.5z M604.3-489.5h9.7v9.7h-9.7V-489.5z M584.9-489.5h9.7v9.7h-9.7V-489.5z
			 M586.9-491.4l-7.8,7.8"/>
		<path fill="none" stroke="#FFB612" stroke-miterlimit="10" d="M693.5-433.3l1.9-1.9 M654.7-491.4l-1.9,1.9 M674.1-491.4l-1.9,1.9
			 M693.5-491.4l-1.9,1.9 M695.4-483.7l-3.9,3.9 M695.4-474l-3.9,3.9 M695.4-454.6l-3.9,3.9 M643.1-441l-7.8,7.8 M681.8-479.8
			l-9.7,9.7 M643.1-479.8l-5.8,5.8 M643.1-460.4l-5.8,5.8 M662.5-479.8l-9.7,9.7 M662.5-460.4l-9.7,9.7 M681.8-460.4l-9.7,9.7
			 M662.5-441l-7.8,7.8 M681.8-441l-7.8,7.8 M695.4-444.9l-11.6,11.6 M695.4-464.3l-31,31 M691.5-479.8L645-433.3 M683.8-491.4
			l-46.5,46.5 M681.8-450.7h9.7v9.7h-9.7V-450.7z M662.5-450.7h9.7v9.7h-9.7V-450.7z M643.1-450.7h9.7v9.7h-9.7V-450.7z
			 M681.8-470.1h9.7v9.7h-9.7V-470.1z M662.5-470.1h9.7v9.7h-9.7V-470.1z M643.1-470.1h9.7v9.7h-9.7V-470.1z M664.4-491.4
			l-27.1,27.1 M681.8-489.5h9.7v9.7h-9.7V-489.5z M662.5-489.5h9.7v9.7h-9.7V-489.5z M643.1-489.5h9.7v9.7h-9.7V-489.5z M645-491.4
			l-7.8,7.8"/>
		<path fill="none" stroke="#FFB612" stroke-miterlimit="10" d="M751.6-433.3l1.9-1.9 M712.9-491.4l-1.9,1.9 M732.2-491.4l-1.9,1.9
			 M751.6-491.4l-1.9,1.9 M753.6-483.7l-3.9,3.9 M753.6-474l-3.9,3.9 M753.6-454.6l-3.9,3.9 M701.2-441l-7.8,7.8 M740-479.8
			l-9.7,9.7 M701.2-479.8l-5.8,5.8 M701.2-460.4l-5.8,5.8 M720.6-479.8l-9.7,9.7 M720.6-460.4l-9.7,9.7 M740-460.4l-9.7,9.7
			 M720.6-441l-7.8,7.8 M740-441l-7.8,7.8 M753.6-444.9l-11.6,11.6 M753.6-464.3l-31,31 M749.7-479.8l-46.5,46.5 M741.9-491.4
			l-46.5,46.5 M740-450.7h9.7v9.7H740V-450.7z M720.6-450.7h9.7v9.7h-9.7V-450.7z M701.2-450.7h9.7v9.7h-9.7V-450.7z M740-470.1h9.7
			v9.7H740V-470.1z M720.6-470.1h9.7v9.7h-9.7V-470.1z M701.2-470.1h9.7v9.7h-9.7V-470.1z M722.5-491.4l-27.1,27.1 M740-489.5h9.7
			v9.7H740V-489.5z M720.6-489.5h9.7v9.7h-9.7V-489.5z M701.2-489.5h9.7v9.7h-9.7V-489.5z M703.2-491.4l-7.8,7.8"/>
		<path fill="none" stroke="#FFB612" stroke-miterlimit="10" d="M809.8-433.3l1.9-1.9 M771-491.4l-1.9,1.9 M790.4-491.4l-1.9,1.9
			 M809.8-491.4l-1.9,1.9 M811.7-483.7l-3.9,3.9 M811.7-474l-3.9,3.9 M811.7-454.6l-3.9,3.9 M759.4-441l-7.8,7.8 M798.1-479.8
			l-9.7,9.7 M759.4-479.8l-5.8,5.8 M759.4-460.4l-5.8,5.8 M778.8-479.8l-9.7,9.7 M778.8-460.4l-9.7,9.7 M798.1-460.4l-9.7,9.7
			 M778.8-441l-7.8,7.8 M798.1-441l-7.8,7.8 M811.7-444.9l-11.6,11.6 M811.7-464.3l-31,31 M807.8-479.8l-46.5,46.5 M800.1-491.4
			l-46.5,46.5 M798.1-450.7h9.7v9.7h-9.7V-450.7z M778.8-450.7h9.7v9.7h-9.7V-450.7z M759.4-450.7h9.7v9.7h-9.7V-450.7z
			 M798.1-470.1h9.7v9.7h-9.7V-470.1z M778.8-470.1h9.7v9.7h-9.7V-470.1z M759.4-470.1h9.7v9.7h-9.7V-470.1z M780.7-491.4
			l-27.1,27.1 M798.1-489.5h9.7v9.7h-9.7V-489.5z M778.8-489.5h9.7v9.7h-9.7V-489.5z M759.4-489.5h9.7v9.7h-9.7V-489.5z
			 M761.3-491.4l-7.8,7.8"/>
		<path fill="none" stroke="#FFB612" stroke-miterlimit="10" d="M867.9-433.3l1.9-1.9 M829.2-491.4l-1.9,1.9 M848.5-491.4l-1.9,1.9
			 M867.9-491.4l-1.9,1.9 M869.9-483.7l-3.9,3.9 M869.9-474l-3.9,3.9 M869.9-454.6l-3.9,3.9 M817.5-441l-7.8,7.8 M856.3-479.8
			l-9.7,9.7 M817.5-479.8l-5.8,5.8 M817.5-460.4l-5.8,5.8 M836.9-479.8l-9.7,9.7 M836.9-460.4l-9.7,9.7 M856.3-460.4l-9.7,9.7
			 M836.9-441l-7.8,7.8 M856.3-441l-7.8,7.8 M869.9-444.9l-11.6,11.6 M869.9-464.3l-31,31 M866-479.8l-46.5,46.5 M858.2-491.4
			l-46.5,46.5 M856.3-450.7h9.7v9.7h-9.7V-450.7z M836.9-450.7h9.7v9.7h-9.7V-450.7z M817.5-450.7h9.7v9.7h-9.7V-450.7z
			 M856.3-470.1h9.7v9.7h-9.7V-470.1z M836.9-470.1h9.7v9.7h-9.7V-470.1z M817.5-470.1h9.7v9.7h-9.7V-470.1z M838.8-491.4
			l-27.1,27.1 M856.3-489.5h9.7v9.7h-9.7V-489.5z M836.9-489.5h9.7v9.7h-9.7V-489.5z M817.5-489.5h9.7v9.7h-9.7V-489.5z
			 M819.5-491.4l-7.8,7.8"/>
		<path fill="none" stroke="#FFB612" stroke-miterlimit="10" d="M926.1-433.3l1.9-1.9 M887.3-491.4l-1.9,1.9 M906.7-491.4l-1.9,1.9
			 M926.1-491.4l-1.9,1.9 M928-483.7l-3.9,3.9 M928-474l-3.9,3.9 M928-454.6l-3.9,3.9 M875.7-441l-7.8,7.8 M914.4-479.8l-9.7,9.7
			 M875.7-479.8l-5.8,5.8 M875.7-460.4l-5.8,5.8 M895.1-479.8l-9.7,9.7 M895.1-460.4l-9.7,9.7 M914.4-460.4l-9.7,9.7 M895.1-441
			l-7.8,7.8 M914.4-441l-7.8,7.8 M928-444.9l-11.6,11.6 M928-464.3l-31,31 M924.1-479.8l-46.5,46.5 M916.4-491.4l-46.5,46.5
			 M914.4-450.7h9.7v9.7h-9.7V-450.7z M895.1-450.7h9.7v9.7h-9.7V-450.7z M875.7-450.7h9.7v9.7h-9.7V-450.7z M914.4-470.1h9.7v9.7
			h-9.7V-470.1z M895.1-470.1h9.7v9.7h-9.7V-470.1z M875.7-470.1h9.7v9.7h-9.7V-470.1z M897-491.4l-27.1,27.1 M914.4-489.5h9.7v9.7
			h-9.7V-489.5z M895.1-489.5h9.7v9.7h-9.7V-489.5z M875.7-489.5h9.7v9.7h-9.7V-489.5z M877.6-491.4l-7.8,7.8"/>
		<path fill="none" stroke="#FFB612" stroke-miterlimit="10" d="M984.2-433.3l1.9-1.9 M945.5-491.4l-1.9,1.9 M964.8-491.4l-1.9,1.9
			 M984.2-491.4l-1.9,1.9 M986.2-483.7l-3.9,3.9 M986.2-474l-3.9,3.9 M986.2-454.6l-3.9,3.9 M933.8-441l-7.8,7.8 M972.6-479.8
			l-9.7,9.7 M933.8-479.8L928-474 M933.8-460.4l-5.8,5.8 M953.2-479.8l-9.7,9.7 M953.2-460.4l-9.7,9.7 M972.6-460.4l-9.7,9.7
			 M953.2-441l-7.8,7.8 M972.6-441l-7.8,7.8 M986.2-444.9l-11.6,11.6 M986.2-464.3l-31,31 M982.3-479.8l-46.5,46.5 M974.5-491.4
			L928-444.9 M972.6-450.7h9.7v9.7h-9.7V-450.7z M953.2-450.7h9.7v9.7h-9.7V-450.7z M933.8-450.7h9.7v9.7h-9.7V-450.7z M972.6-470.1
			h9.7v9.7h-9.7V-470.1z M953.2-470.1h9.7v9.7h-9.7V-470.1z M933.8-470.1h9.7v9.7h-9.7V-470.1z M955.1-491.4L928-464.3 M972.6-489.5
			h9.7v9.7h-9.7V-489.5z M953.2-489.5h9.7v9.7h-9.7V-489.5z M933.8-489.5h9.7v9.7h-9.7V-489.5z M935.8-491.4l-7.8,7.8"/>
		<path fill="none" stroke="#FFB612" stroke-miterlimit="10" d="M1042.4-433.3l1.9-1.9 M1003.6-491.4l-1.9,1.9 M1023-491.4l-1.9,1.9
			 M1042.4-491.4l-1.9,1.9 M1044.3-483.7l-3.9,3.9 M1044.3-474l-3.9,3.9 M1044.3-454.6l-3.9,3.9 M992-441l-7.8,7.8 M1030.7-479.8
			l-9.7,9.7 M992-479.8l-5.8,5.8 M992-460.4l-5.8,5.8 M1011.4-479.8l-9.7,9.7 M1011.4-460.4l-9.7,9.7 M1030.7-460.4l-9.7,9.7
			 M1011.4-441l-7.8,7.8 M1030.7-441l-7.8,7.8 M1044.3-444.9l-11.6,11.6 M1044.3-464.3l-31,31 M1040.4-479.8l-46.5,46.5
			 M1032.7-491.4l-46.5,46.5 M1030.7-450.7h9.7v9.7h-9.7V-450.7z M1011.4-450.7h9.7v9.7h-9.7V-450.7z M992-450.7h9.7v9.7H992V-450.7
			z M1030.7-470.1h9.7v9.7h-9.7V-470.1z M1011.4-470.1h9.7v9.7h-9.7V-470.1z M992-470.1h9.7v9.7H992V-470.1z M1013.3-491.4
			l-27.1,27.1 M1030.7-489.5h9.7v9.7h-9.7V-489.5z M1011.4-489.5h9.7v9.7h-9.7V-489.5z M992-489.5h9.7v9.7H992V-489.5z M993.9-491.4
			l-7.8,7.8"/>
		<path fill="none" stroke="#FFB612" stroke-miterlimit="10" d="M1100.5-433.3l1.9-1.9 M1061.7-491.4l-1.9,1.9 M1081.1-491.4
			l-1.9,1.9 M1100.5-491.4l-1.9,1.9 M1102.5-483.7l-3.9,3.9 M1102.5-474l-3.9,3.9 M1102.5-454.6l-3.9,3.9 M1050.1-441l-7.8,7.8
			 M1088.9-479.8l-9.7,9.7 M1050.1-479.8l-5.8,5.8 M1050.1-460.4l-5.8,5.8 M1069.5-479.8l-9.7,9.7 M1069.5-460.4l-9.7,9.7
			 M1088.9-460.4l-9.7,9.7 M1069.5-441l-7.8,7.8 M1088.9-441l-7.8,7.8 M1102.5-444.9l-11.6,11.6 M1102.5-464.3l-31,31 M1098.6-479.8
			l-46.5,46.5 M1090.8-491.4l-46.5,46.5 M1088.9-450.7h9.7v9.7h-9.7V-450.7z M1069.5-450.7h9.7v9.7h-9.7V-450.7z M1050.1-450.7h9.7
			v9.7h-9.7V-450.7z M1088.9-470.1h9.7v9.7h-9.7V-470.1z M1069.5-470.1h9.7v9.7h-9.7V-470.1z M1050.1-470.1h9.7v9.7h-9.7V-470.1z
			 M1071.4-491.4l-27.1,27.1 M1088.9-489.5h9.7v9.7h-9.7V-489.5z M1069.5-489.5h9.7v9.7h-9.7V-489.5z M1050.1-489.5h9.7v9.7h-9.7
			V-489.5z M1052.1-491.4l-7.8,7.8"/>
		<path fill="none" stroke="#FFB612" stroke-miterlimit="10" d="M1119.9-491.4l-1.9,1.9 M1139.3-491.4l-1.9,1.9 M1158.7-491.4
			l-1.9,1.9 M1160.6-483.7l-3.9,3.9 M1160.6-474l-3.9,3.9 M1160.6-454.6l-3.9,3.9 M1108.3-441l-7.8,7.8 M1147-479.8l-9.7,9.7
			 M1108.3-479.8l-5.8,5.8 M1108.3-460.4l-5.8,5.8 M1127.7-479.8l-9.7,9.7 M1127.7-460.4l-9.7,9.7 M1147-460.4l-9.7,9.7 M1127.7-441
			l-7.8,7.8 M1147-441l-7.8,7.8 M1160.6-464.3l-31,31 M1156.7-479.8l-46.5,46.5 M1149-491.4l-46.5,46.5 M1147-441v-9.7h9.7
			 M1127.7-450.7h9.7v9.7h-9.7V-450.7z M1108.3-450.7h9.7v9.7h-9.7V-450.7z M1147-470.1h9.7v9.7h-9.7V-470.1z M1127.7-470.1h9.7v9.7
			h-9.7V-470.1z M1108.3-470.1h9.7v9.7h-9.7V-470.1z M1129.6-491.4l-27.1,27.1 M1147-489.5h9.7v9.7h-9.7V-489.5z M1127.7-489.5h9.7
			v9.7h-9.7V-489.5z M1108.3-489.5h9.7v9.7h-9.7V-489.5z M1110.2-491.4l-7.8,7.8"/>
		<path fill="none" stroke="#FFB612" stroke-miterlimit="10" d="M1178-491.4l-1.9,1.9 M1197.4-491.4l-1.9,1.9 M1166.4-479.8
			l-5.8,5.8 M1166.4-460.4l-5.8,5.8 M1185.8-479.8l-9.7,9.7 M1166.4-460.4v-9.7h9.7 M1187.7-491.4l-27.1,27.1 M1185.8-479.8v-9.7
			h9.7 M1166.4-489.5h9.7v9.7h-9.7V-489.5z M1168.4-491.4l-7.8,7.8"/>
	</g>
</g>
</svg>
