<?xml version="1.0" encoding="utf-8"?>
<!-- Generator: Adobe Illustrator 17.1.0, SVG Export Plug-In . SVG Version: 6.00 Build 0)  -->
<!DOCTYPE svg PUBLIC "-//W3C//DTD SVG 1.1//EN" "http://www.w3.org/Graphics/SVG/1.1/DTD/svg11.dtd">
<svg version="1.1" id="svg8021" xmlns="http://www.w3.org/2000/svg" xmlns:xlink="http://www.w3.org/1999/xlink" x="0px" y="0px"
	 viewBox="0 0 500 500" enable-background="new 0 0 500 500" xml:space="preserve">
<path id="path4380" fill="#0088CE" d="M129.4,500H500V127.7L129.4,500z"/>
<path id="path4384" fill="#4E9FDD" d="M84.1,500h45.3L500,129.2V84.1L84.1,500z"/>
<g transform="translate(-200 1200)">
	<g transform="rotate(-45)">
		<path fill="none" stroke="#4E9FDD" stroke-linecap="square" stroke-miterlimit="10" d="M684.3-349.7l-7.4,7.4l-7.4-7.4
			 M706.4-312.9l-7.4-7.4l7.4-7.4 M706.4-305.5l-11,11 M706.4-335l-14.7-14.7 M651.2-338.7l11-11 M699.1-349.7l7.4,7.4 M706.4-298.2
			l-6.7,6.7 M654.9-349.7l-7.4,7.4 M677-327.6l-6.7,6.7l7.4,7.4l6.7-6.7L677-327.6z M691.7-312.9l-6.7,6.7l7.4,7.4l6.7-6.7
			L691.7-312.9z M691.7-342.4l-7.4,7.4l7.4,7.4l7.4-7.4L691.7-342.4z M662.2-342.4l-6.7,6.7l7.4,7.4l6.7-6.7L662.2-342.4z
			 M691.7-349.7L666-324 M706.4-335l-25.7,25.7 M662.2-349.7l44.2,44.2"/>
		<path fill="none" stroke="#4E9FDD" stroke-linecap="square" stroke-miterlimit="10" d="M743.3-290.8l-7.4-7.4l-7.4,7.4
			 M743.3-349.7l-7.4,7.4l-7.4-7.4 M765.4-312.9l-7.4-7.4l7.4-7.4 M765.4-305.5l-14.7,14.7 M765.4-335l-14.7-14.7 M706.4-335
			l14.7-14.7 M706.4-305.5l14.7,14.7 M758-349.7l7.4,7.4 M765.4-298.2l-7.4,7.4 M713.8-349.7l-7.4,7.4 M706.4-298.2l7.4,7.4
			 M706.4-312.9l7.4-7.4l-7.4-7.4 M735.9-327.6l-7.4,7.4l7.4,7.4l7.4-7.4L735.9-327.6z M750.6-312.9l-7.4,7.4l7.4,7.4l7.4-7.4
			L750.6-312.9z M721.2-312.9l-7.4,7.4l7.4,7.4l7.4-7.4L721.2-312.9z M750.6-342.4l-7.4,7.4l7.4,7.4l7.4-7.4L750.6-342.4z
			 M721.2-342.4l-7.4,7.4l7.4,7.4l7.4-7.4L721.2-342.4z M750.6-349.7l-44.2,44.2 M765.4-335l-44.2,44.2 M721.2-349.7l44.2,44.2
			 M706.4-335l44.2,44.2"/>
		<path fill="none" stroke="#4E9FDD" stroke-linecap="square" stroke-miterlimit="10" d="M802.2-290.8l-7.4-7.4l-7.4,7.4
			 M802.2-349.7l-7.4,7.4l-7.4-7.4 M824.3-312.9l-7.4-7.4l7.4-7.4 M824.3-305.5l-14.7,14.7 M824.3-335l-14.7-14.7 M765.4-335
			l14.7-14.7 M765.4-305.5l14.7,14.7 M816.9-349.7l7.4,7.4 M824.3-298.2l-7.4,7.4 M772.7-349.7l-7.4,7.4 M765.4-298.2l7.4,7.4
			 M765.4-312.9l7.4-7.4l-7.4-7.4 M794.8-327.6l-7.4,7.4l7.4,7.4l7.4-7.4L794.8-327.6z M809.6-312.9l-7.4,7.4l7.4,7.4l7.4-7.4
			L809.6-312.9z M780.1-312.9l-7.4,7.4l7.4,7.4l7.4-7.4L780.1-312.9z M809.6-342.4l-7.4,7.4l7.4,7.4l7.4-7.4L809.6-342.4z
			 M780.1-342.4l-7.4,7.4l7.4,7.4l7.4-7.4L780.1-342.4z M809.6-349.7l-44.2,44.2 M824.3-335l-44.2,44.2 M780.1-349.7l44.2,44.2
			 M765.4-335l44.2,44.2"/>
		<path fill="none" stroke="#4E9FDD" stroke-linecap="square" stroke-miterlimit="10" d="M861.1-290.8l-7.4-7.4l-7.4,7.4
			 M861.1-349.7l-7.4,7.4l-7.4-7.4 M883.2-312.9l-7.4-7.4l7.4-7.4 M883.2-305.5l-14.7,14.7 M883.2-335l-14.7-14.7 M824.3-335
			l14.7-14.7 M824.3-305.5l14.7,14.7 M875.9-349.7l7.4,7.4 M883.2-298.2l-7.4,7.4 M831.7-349.7l-7.4,7.4 M824.3-298.2l7.4,7.4
			 M824.3-312.9l7.4-7.4l-7.4-7.4 M853.8-327.6l-7.4,7.4l7.4,7.4l7.4-7.4L853.8-327.6z M868.5-312.9l-7.4,7.4l7.4,7.4l7.4-7.4
			L868.5-312.9z M839-312.9l-7.4,7.4l7.4,7.4l7.4-7.4L839-312.9z M868.5-342.4l-7.4,7.4l7.4,7.4l7.4-7.4L868.5-342.4z M839-342.4
			l-7.4,7.4l7.4,7.4l7.4-7.4L839-342.4z M868.5-349.7l-44.2,44.2 M883.2-335L839-290.8 M839-349.7l44.2,44.2 M824.3-335l44.2,44.2"
			/>
		<path fill="none" stroke="#4E9FDD" stroke-linecap="square" stroke-miterlimit="10" d="M920.1-290.8l-7.4-7.4l-7.4,7.4
			 M920.1-349.7l-7.4,7.4l-7.4-7.4 M942.2-312.9l-7.4-7.4l7.4-7.4 M942.2-305.5l-14.7,14.7 M942.2-335l-14.7-14.7 M883.2-335
			l14.7-14.7 M883.2-305.5l14.7,14.7 M934.8-349.7l7.4,7.4 M942.2-298.2l-7.4,7.4 M890.6-349.7l-7.4,7.4 M883.2-298.2l7.4,7.4
			 M883.2-312.9l7.4-7.4l-7.4-7.4 M912.7-327.6l-7.4,7.4l7.4,7.4l7.4-7.4L912.7-327.6z M927.4-312.9l-7.4,7.4l7.4,7.4l7.4-7.4
			L927.4-312.9z M898-312.9l-7.4,7.4l7.4,7.4l7.4-7.4L898-312.9z M927.4-342.4l-7.4,7.4l7.4,7.4l7.4-7.4L927.4-342.4z M898-342.4
			l-7.4,7.4l7.4,7.4l7.4-7.4L898-342.4z M927.4-349.7l-44.2,44.2 M942.2-335L898-290.8 M898-349.7l44.2,44.2 M883.2-335l44.2,44.2"
			/>
		<path fill="none" stroke="#4E9FDD" stroke-linecap="square" stroke-miterlimit="10" d="M979-290.8l-7.4-7.4l-7.4,7.4 M979-349.7
			l-7.4,7.4l-7.4-7.4 M1001.1-312.9l-7.4-7.4l7.4-7.4 M1001.1-305.5l-14.7,14.7 M1001.1-335l-14.7-14.7 M942.2-335l14.7-14.7
			 M942.2-305.5l14.7,14.7 M993.7-349.7l7.4,7.4 M1001.1-298.2l-7.4,7.4 M949.5-349.7l-7.4,7.4 M942.2-298.2l7.4,7.4 M942.2-312.9
			l7.4-7.4l-7.4-7.4 M971.6-327.6l-7.4,7.4l7.4,7.4l7.4-7.4L971.6-327.6z M986.4-312.9l-7.4,7.4l7.4,7.4l7.4-7.4L986.4-312.9z
			 M956.9-312.9l-7.4,7.4l7.4,7.4l7.4-7.4L956.9-312.9z M986.4-342.4L979-335l7.4,7.4l7.4-7.4L986.4-342.4z M956.9-342.4l-7.4,7.4
			l7.4,7.4l7.4-7.4L956.9-342.4z M986.4-349.7l-44.2,44.2 M1001.1-335l-44.2,44.2 M956.9-349.7l44.2,44.2 M942.2-335l44.2,44.2"/>
		<path fill="none" stroke="#4E9FDD" stroke-linecap="square" stroke-miterlimit="10" d="M1037.9-290.8l-7.4-7.4l-7.4,7.4
			 M1037.9-349.7l-7.4,7.4l-7.4-7.4 M1060-312.9l-7.4-7.4l7.4-7.4 M1060-305.5l-14.7,14.7 M1060-335l-14.7-14.7 M1001.1-335
			l14.7-14.7 M1001.1-305.5l14.7,14.7 M1052.7-349.7l7.4,7.4 M1060-298.2l-7.4,7.4 M1008.5-349.7l-7.4,7.4 M1001.1-298.2l7.4,7.4
			 M1001.1-312.9l7.4-7.4l-7.4-7.4 M1030.6-327.6l-7.4,7.4l7.4,7.4l7.4-7.4L1030.6-327.6z M1045.3-312.9l-7.4,7.4l7.4,7.4l7.4-7.4
			L1045.3-312.9z M1015.8-312.9l-7.4,7.4l7.4,7.4l7.4-7.4L1015.8-312.9z M1045.3-342.4l-7.4,7.4l7.4,7.4l7.4-7.4L1045.3-342.4z
			 M1015.8-342.4l-7.4,7.4l7.4,7.4l7.4-7.4L1015.8-342.4z M1045.3-349.7l-44.2,44.2 M1060-335l-44.2,44.2 M1015.8-349.7l44.2,44.2
			 M1001.1-335l44.2,44.2"/>
		<path fill="none" stroke="#4E9FDD" stroke-linecap="square" stroke-miterlimit="10" d="M1096.9-290.8l-7.4-7.4l-7.4,7.4
			 M1096.9-349.7l-7.4,7.4l-7.4-7.4 M1119-312.9l-7.4-7.4l7.4-7.4 M1119-305.5l-14.7,14.7 M1119-335l-14.7-14.7 M1060-335l14.7-14.7
			 M1060-305.5l14.7,14.7 M1111.6-349.7l7.4,7.4 M1119-298.2l-7.4,7.4 M1067.4-349.7l-7.4,7.4 M1060-298.2l7.4,7.4 M1060-312.9
			l7.4-7.4l-7.4-7.4 M1089.5-327.6l-7.4,7.4l7.4,7.4l7.4-7.4L1089.5-327.6z M1104.2-312.9l-7.4,7.4l7.4,7.4l7.4-7.4L1104.2-312.9z
			 M1074.8-312.9l-7.4,7.4l7.4,7.4l7.4-7.4L1074.8-312.9z M1104.2-342.4l-7.4,7.4l7.4,7.4l7.4-7.4L1104.2-342.4z M1074.8-342.4
			l-7.4,7.4l7.4,7.4l7.4-7.4L1074.8-342.4z M1104.2-349.7l-44.2,44.2 M1119-335l-44.2,44.2 M1074.8-349.7l44.2,44.2 M1060-335
			l44.2,44.2"/>
		<path fill="none" stroke="#4E9FDD" stroke-linecap="square" stroke-miterlimit="10" d="M1155.8-290.8l-7.4-7.4l-7.4,7.4
			 M1155.8-349.7l-7.4,7.4l-7.4-7.4 M1177.9-312.9l-7.4-7.4l7.4-7.4 M1177.9-305.5l-14.7,14.7 M1177.9-335l-14.7-14.7 M1119-335
			l14.7-14.7 M1119-305.5l14.7,14.7 M1170.5-349.7l7.4,7.4 M1177.9-298.2l-7.4,7.4 M1126.3-349.7l-7.4,7.4 M1119-298.2l7.4,7.4
			 M1119-312.9l7.4-7.4l-7.4-7.4 M1148.4-327.6l-7.4,7.4l7.4,7.4l7.4-7.4L1148.4-327.6z M1163.2-312.9l-7.4,7.4l7.4,7.4l7.4-7.4
			L1163.2-312.9z M1133.7-312.9l-7.4,7.4l7.4,7.4l7.4-7.4L1133.7-312.9z M1163.2-342.4l-7.4,7.4l7.4,7.4l7.4-7.4L1163.2-342.4z
			 M1133.7-342.4l-7.4,7.4l7.4,7.4l7.4-7.4L1133.7-342.4z M1163.2-349.7l-44.2,44.2 M1177.9-335l-44.2,44.2 M1133.7-349.7l44.2,44.2
			 M1119-335l44.2,44.2"/>
		<path fill="none" stroke="#4E9FDD" stroke-linecap="square" stroke-miterlimit="10" d="M1214.7-290.8l-7.4-7.4l-7.4,7.4
			 M1214.7-349.7l-7.4,7.4l-7.4-7.4 M1236.8-312.9l-7.4-7.4l7.4-7.4 M1236.8-305.5l-14.7,14.7 M1236.8-335l-14.7-14.7 M1177.9-335
			l14.7-14.7 M1177.9-305.5l14.7,14.7 M1229.5-349.7l7.4,7.4 M1236.8-298.2l-7.4,7.4 M1185.3-349.7l-7.4,7.4 M1177.9-298.2l7.4,7.4
			 M1177.9-312.9l7.4-7.4l-7.4-7.4 M1207.4-327.6l-7.4,7.4l7.4,7.4l7.4-7.4L1207.4-327.6z M1222.1-312.9l-7.4,7.4l7.4,7.4l7.4-7.4
			L1222.1-312.9z M1192.6-312.9l-7.4,7.4l7.4,7.4l7.4-7.4L1192.6-312.9z M1222.1-342.4l-7.4,7.4l7.4,7.4l7.4-7.4L1222.1-342.4z
			 M1192.6-342.4l-7.4,7.4l7.4,7.4l7.4-7.4L1192.6-342.4z M1222.1-349.7l-44.2,44.2 M1236.8-335l-44.2,44.2 M1192.6-349.7l44.2,44.2
			 M1177.9-335l44.2,44.2"/>
		<path fill="none" stroke="#4E9FDD" stroke-linecap="square" stroke-miterlimit="10" d="M1273.7-290.8l-7.4-7.4l-7.4,7.4
			 M1273.7-349.7l-7.4,7.4l-7.4-7.4 M1295.8-312.9l-7.4-7.4l7.4-7.4 M1295.8-335l-14.7-14.7 M1236.8-335l14.7-14.7 M1236.8-305.5
			l14.7,14.7 M1288.4-349.7l7.4,7.4 M1244.2-349.7l-7.4,7.4 M1236.8-298.2l7.4,7.4 M1236.8-312.9l7.4-7.4l-7.4-7.4 M1266.3-327.6
			l-7.4,7.4l7.4,7.4l7.4-7.4L1266.3-327.6z M1281-312.9l-7.4,7.4l7.4,7.4l7.4-7.4L1281-312.9z M1251.6-312.9l-7.4,7.4l7.4,7.4
			l7.4-7.4L1251.6-312.9z M1281-342.4l-7.4,7.4l7.4,7.4l7.4-7.4L1281-342.4z M1251.6-342.4l-7.4,7.4l7.4,7.4l7.4-7.4L1251.6-342.4z
			 M1281-349.7l-44.2,44.2 M1295.8-335l-44.2,44.2 M1251.6-349.7l44.1,44.1 M1236.8-335l43.8,43.8"/>
		<path fill="none" stroke="#4E9FDD" stroke-linecap="square" stroke-miterlimit="10" d="M1332.6-349.7l-7.4,7.4l-7.4-7.4
			 M1340-349.7 M1295.8-335l14.7-14.7 M1295.6-305.7 M1303.1-349.7l-7.4,7.4 M1295.8-312.9l7.4-7.4l-7.4-7.4 M1310.5-342.4l-7.4,7.4
			l7.4,7.4l7.4-7.4L1310.5-342.4z M1310.5-349.7l13.6,13.6l1,1 M1295.8-335l14.6,14.6"/>
	</g>
</g>
</svg>
