<?xml version="1.0" encoding="utf-8"?>
<!-- Generator: Adobe Illustrator 17.1.0, SVG Export Plug-In . SVG Version: 6.00 Build 0)  -->
<!DOCTYPE svg PUBLIC "-//W3C//DTD SVG 1.1//EN" "http://www.w3.org/Graphics/SVG/1.1/DTD/svg11.dtd">
<svg version="1.1" id="svg8021" xmlns="http://www.w3.org/2000/svg" xmlns:xlink="http://www.w3.org/1999/xlink" x="0px" y="0px"
	 viewBox="0 0 500 500" enable-background="new 0 0 500 500" xml:space="preserve">
<path id="path4380" fill="#3F9C35" d="M129.4,500H500V127.7L129.4,500z"/>
<path id="path4384" fill="#92D400" d="M84.1,500h45.3L500,129.2V84.1L84.1,500z"/>
<g transform="translate(300 1200)">
	<g transform="rotate(-45)">
		<path fill="none" stroke="#92D400" stroke-miterlimit="10" d="M293.6-696.3c1.2-2.1,3.5-3.6,6.1-3.6c3.8,0,7,3.1,7,7
			c0,2.6-1.4,4.9-3.6,6.1 M290.4-702.2v2.7 M306.3-683.7h2.2 M308.5-702.2h-20.8"/>
		<path fill="none" stroke="#92D400" stroke-miterlimit="10" d="M330.7-659.3c1.2-2.1,3.5-3.6,6.1-3.6l0,0c3.8,0,7,3.1,7,7l0,0
			c0,2.6-1.4,4.9-3.6,6.1 M362.3-655.9c0,3.8-3.1,7-7,7l0,0c-3.8,0-7-3.1-7-7l0,0c0-3.8,3.1-7,7-7l0,0
			C359.1-662.8,362.3-659.7,362.3-655.9L362.3-655.9z M362.3-693c0,3.8-3.1,7-7,7c-3.8,0-7-3.1-7-7s3.1-7,7-7
			C359.1-699.9,362.3-696.8,362.3-693z M343.7-693c0,3.8-3.1,7-7,7c-3.8,0-7-3.1-7-7s3.1-7,7-7C340.6-699.9,343.7-696.8,343.7-693z
			 M325.2-693c0,3.8-3.1,7-7,7c-3.8,0-7-3.1-7-7s3.1-7,7-7C322.1-699.9,325.2-696.8,325.2-693z M312.2-677.8
			c1.2-2.1,3.5-3.6,6.1-3.6c3.8,0,7,3.1,7,7c0,2.6-1.4,4.9-3.6,6.1 M362.3-674.4c0,3.8-3.1,7-7,7l0,0c-3.8,0-7-3.1-7-7l0,0
			c0-3.8,3.1-7,7-7C359.1-681.4,362.3-678.3,362.3-674.4z M343.7-674.4c0,3.8-3.1,7-7,7l0,0c-3.8,0-7-3.1-7-7l0,0c0-3.8,3.1-7,7-7
			C340.6-681.4,343.7-678.3,343.7-674.4z M346-702.2v55.1 M327.5-702.2v39.8 M324.8-665.1h39.3 M309-683.7h55.1 M364.1-702.2H309
			v21.2"/>
		<path fill="none" stroke="#92D400" stroke-miterlimit="10" d="M380.8-655.9c0,3.8-3.1,7-7,7l0,0c-3.8,0-7-3.1-7-7l0,0
			c0-3.8,3.1-7,7-7l0,0C377.7-662.8,380.8-659.7,380.8-655.9L380.8-655.9z M399.3-655.9c0,3.8-3.1,7-7,7l0,0c-3.8,0-7-3.1-7-7l0,0
			c0-3.8,3.1-7,7-7l0,0C396.2-662.8,399.3-659.7,399.3-655.9L399.3-655.9z M417.9-655.9c0,3.8-3.1,7-7,7l0,0c-3.8,0-7-3.1-7-7l0,0
			c0-3.8,3.1-7,7-7l0,0C414.8-662.8,417.9-659.7,417.9-655.9L417.9-655.9z M417.9-693c0,3.8-3.1,7-7,7s-7-3.1-7-7s3.1-7,7-7
			S417.9-696.8,417.9-693z M399.3-693c0,3.8-3.1,7-7,7s-7-3.1-7-7s3.1-7,7-7S399.3-696.8,399.3-693z M380.8-693c0,3.8-3.1,7-7,7
			s-7-3.1-7-7s3.1-7,7-7S380.8-696.8,380.8-693z M380.8-674.4c0,3.8-3.1,7-7,7l0,0c-3.8,0-7-3.1-7-7l0,0c0-3.8,3.1-7,7-7
			S380.8-678.3,380.8-674.4z M417.9-674.4c0,3.8-3.1,7-7,7l0,0c-3.8,0-7-3.1-7-7l0,0c0-3.8,3.1-7,7-7S417.9-678.3,417.9-674.4z
			 M399.3-674.4c0,3.8-3.1,7-7,7l0,0c-3.8,0-7-3.1-7-7l0,0c0-3.8,3.1-7,7-7S399.3-678.3,399.3-674.4z M401.6-702.2v55.1
			 M383.1-702.2v55.1 M364.6-665.1h55.1 M364.6-683.7h55.1 M419.7-702.2h-55.1v55.1"/>
		<path fill="none" stroke="#92D400" stroke-miterlimit="10" d="M436.4-655.9c0,3.8-3.1,7-7,7l0,0c-3.8,0-7-3.1-7-7l0,0
			c0-3.8,3.1-7,7-7l0,0C433.3-662.8,436.4-659.7,436.4-655.9L436.4-655.9z M454.9-655.9c0,3.8-3.1,7-7,7l0,0c-3.8,0-7-3.1-7-7l0,0
			c0-3.8,3.1-7,7-7l0,0C451.8-662.8,454.9-659.7,454.9-655.9L454.9-655.9z M473.5-655.9c0,3.8-3.1,7-7,7l0,0c-3.8,0-7-3.1-7-7l0,0
			c0-3.8,3.1-7,7-7l0,0C470.4-662.8,473.5-659.7,473.5-655.9L473.5-655.9z M473.5-693c0,3.8-3.1,7-7,7s-7-3.1-7-7s3.1-7,7-7
			S473.5-696.8,473.5-693z M454.9-693c0,3.8-3.1,7-7,7s-7-3.1-7-7s3.1-7,7-7S454.9-696.8,454.9-693z M436.4-693c0,3.8-3.1,7-7,7
			s-7-3.1-7-7s3.1-7,7-7S436.4-696.8,436.4-693z M436.4-674.4c0,3.8-3.1,7-7,7l0,0c-3.8,0-7-3.1-7-7l0,0c0-3.8,3.1-7,7-7
			S436.4-678.3,436.4-674.4z M473.5-674.4c0,3.8-3.1,7-7,7l0,0c-3.8,0-7-3.1-7-7l0,0c0-3.8,3.1-7,7-7S473.5-678.3,473.5-674.4z
			 M454.9-674.4c0,3.8-3.1,7-7,7l0,0c-3.8,0-7-3.1-7-7l0,0c0-3.8,3.1-7,7-7S454.9-678.3,454.9-674.4z M457.2-702.2v55.1
			 M438.7-702.2v55.1 M420.2-665.1h55.1 M420.2-683.7h55.1 M475.3-702.2h-55.1v55.1"/>
		<path fill="none" stroke="#92D400" stroke-miterlimit="10" d="M492-655.9c0,3.8-3.1,7-7,7l0,0c-3.8,0-7-3.1-7-7l0,0
			c0-3.8,3.1-7,7-7l0,0C488.9-662.8,492-659.7,492-655.9L492-655.9z M510.5-655.9c0,3.8-3.1,7-7,7l0,0c-3.8,0-7-3.1-7-7l0,0
			c0-3.8,3.1-7,7-7l0,0C507.4-662.8,510.5-659.7,510.5-655.9L510.5-655.9z M529.1-655.9c0,3.8-3.1,7-7,7l0,0c-3.8,0-7-3.1-7-7l0,0
			c0-3.8,3.1-7,7-7l0,0C526-662.8,529.1-659.7,529.1-655.9L529.1-655.9z M529.1-693c0,3.8-3.1,7-7,7c-3.8,0-7-3.1-7-7s3.1-7,7-7
			C526-699.9,529.1-696.8,529.1-693z M510.5-693c0,3.8-3.1,7-7,7s-7-3.1-7-7s3.1-7,7-7S510.5-696.8,510.5-693z M492-693
			c0,3.8-3.1,7-7,7s-7-3.1-7-7s3.1-7,7-7S492-696.8,492-693z M492-674.4c0,3.8-3.1,7-7,7l0,0c-3.8,0-7-3.1-7-7l0,0c0-3.8,3.1-7,7-7
			S492-678.3,492-674.4z M529.1-674.4c0,3.8-3.1,7-7,7l0,0c-3.8,0-7-3.1-7-7l0,0c0-3.8,3.1-7,7-7C526-681.4,529.1-678.3,529.1-674.4
			z M510.5-674.4c0,3.8-3.1,7-7,7l0,0c-3.8,0-7-3.1-7-7l0,0c0-3.8,3.1-7,7-7S510.5-678.3,510.5-674.4z M512.9-702.2v55.1
			 M494.3-702.2v55.1 M475.8-665.1h55.1 M475.8-683.7h55.1 M530.9-702.2h-55.1v55.1"/>
		<path fill="none" stroke="#92D400" stroke-miterlimit="10" d="M547.6-655.9c0,3.8-3.1,7-7,7l0,0c-3.8,0-7-3.1-7-7l0,0
			c0-3.8,3.1-7,7-7l0,0C544.5-662.8,547.6-659.7,547.6-655.9L547.6-655.9z M566.1-655.9c0,3.8-3.1,7-7,7l0,0c-3.8,0-7-3.1-7-7l0,0
			c0-3.8,3.1-7,7-7l0,0C563-662.8,566.1-659.7,566.1-655.9L566.1-655.9z M584.7-655.9c0,3.8-3.1,7-7,7l0,0c-3.8,0-7-3.1-7-7l0,0
			c0-3.8,3.1-7,7-7l0,0C581.6-662.8,584.7-659.7,584.7-655.9L584.7-655.9z M584.7-693c0,3.8-3.1,7-7,7c-3.8,0-7-3.1-7-7s3.1-7,7-7
			C581.6-699.9,584.7-696.8,584.7-693z M566.1-693c0,3.8-3.1,7-7,7c-3.8,0-7-3.1-7-7s3.1-7,7-7C563-699.9,566.1-696.8,566.1-693z
			 M547.6-693c0,3.8-3.1,7-7,7c-3.8,0-7-3.1-7-7s3.1-7,7-7C544.5-699.9,547.6-696.8,547.6-693z M547.6-674.4c0,3.8-3.1,7-7,7l0,0
			c-3.8,0-7-3.1-7-7l0,0c0-3.8,3.1-7,7-7C544.5-681.4,547.6-678.3,547.6-674.4z M584.7-674.4c0,3.8-3.1,7-7,7l0,0c-3.8,0-7-3.1-7-7
			l0,0c0-3.8,3.1-7,7-7C581.6-681.4,584.7-678.3,584.7-674.4z M566.1-674.4c0,3.8-3.1,7-7,7l0,0c-3.8,0-7-3.1-7-7l0,0
			c0-3.8,3.1-7,7-7C563-681.4,566.1-678.3,566.1-674.4z M568.5-702.2v55.1 M549.9-702.2v55.1 M531.4-665.1h55.1 M531.4-683.7h55.1
			 M586.5-702.2h-55.1v55.1"/>
		<path fill="none" stroke="#92D400" stroke-miterlimit="10" d="M603.2-655.9c0,3.8-3.1,7-7,7l0,0c-3.8,0-7-3.1-7-7l0,0
			c0-3.8,3.1-7,7-7l0,0C600.1-662.8,603.2-659.7,603.2-655.9L603.2-655.9z M621.7-655.9c0,3.8-3.1,7-7,7l0,0c-3.8,0-7-3.1-7-7l0,0
			c0-3.8,3.1-7,7-7l0,0C618.6-662.8,621.7-659.7,621.7-655.9L621.7-655.9z M640.3-655.9c0,3.8-3.1,7-7,7l0,0c-3.8,0-7-3.1-7-7l0,0
			c0-3.8,3.1-7,7-7l0,0C637.2-662.8,640.3-659.7,640.3-655.9L640.3-655.9z M640.3-693c0,3.8-3.1,7-7,7s-7-3.1-7-7s3.1-7,7-7
			S640.3-696.8,640.3-693z M621.7-693c0,3.8-3.1,7-7,7s-7-3.1-7-7s3.1-7,7-7S621.7-696.8,621.7-693z M603.2-693c0,3.8-3.1,7-7,7
			s-7-3.1-7-7s3.1-7,7-7S603.2-696.8,603.2-693z M603.2-674.4c0,3.8-3.1,7-7,7l0,0c-3.8,0-7-3.1-7-7l0,0c0-3.8,3.1-7,7-7
			S603.2-678.3,603.2-674.4z M640.3-674.4c0,3.8-3.1,7-7,7l0,0c-3.8,0-7-3.1-7-7l0,0c0-3.8,3.1-7,7-7S640.3-678.3,640.3-674.4z
			 M621.7-674.4c0,3.8-3.1,7-7,7l0,0c-3.8,0-7-3.1-7-7l0,0c0-3.8,3.1-7,7-7S621.7-678.3,621.7-674.4z M624.1-702.2v55.1
			 M605.5-702.2v55.1 M587-665.1h55.1 M587-683.7h55.1 M642.1-702.2H587v55.1"/>
		<path fill="none" stroke="#92D400" stroke-miterlimit="10" d="M658.8-655.9c0,3.8-3.1,7-7,7l0,0c-3.8,0-7-3.1-7-7l0,0
			c0-3.8,3.1-7,7-7l0,0C655.7-662.8,658.8-659.7,658.8-655.9L658.8-655.9z M677.4-655.9c0,3.8-3.1,7-7,7l0,0c-3.8,0-7-3.1-7-7l0,0
			c0-3.8,3.1-7,7-7l0,0C674.2-662.8,677.4-659.7,677.4-655.9L677.4-655.9z M695.9-655.9c0,3.8-3.1,7-7,7l0,0c-3.8,0-7-3.1-7-7l0,0
			c0-3.8,3.1-7,7-7l0,0C692.8-662.8,695.9-659.7,695.9-655.9L695.9-655.9z M695.9-693c0,3.8-3.1,7-7,7s-7-3.1-7-7s3.1-7,7-7
			S695.9-696.8,695.9-693z M677.4-693c0,3.8-3.1,7-7,7s-7-3.1-7-7s3.1-7,7-7S677.4-696.8,677.4-693z M658.8-693c0,3.8-3.1,7-7,7
			s-7-3.1-7-7s3.1-7,7-7S658.8-696.8,658.8-693z M658.8-674.4c0,3.8-3.1,7-7,7l0,0c-3.8,0-7-3.1-7-7l0,0c0-3.8,3.1-7,7-7
			S658.8-678.3,658.8-674.4z M695.9-674.4c0,3.8-3.1,7-7,7l0,0c-3.8,0-7-3.1-7-7l0,0c0-3.8,3.1-7,7-7S695.9-678.3,695.9-674.4z
			 M677.4-674.4c0,3.8-3.1,7-7,7l0,0c-3.8,0-7-3.1-7-7l0,0c0-3.8,3.1-7,7-7S677.4-678.3,677.4-674.4z M679.7-702.2v55.1
			 M661.1-702.2v55.1 M642.6-665.1h55.1 M642.6-683.7h55.1 M697.7-702.2h-55.1v55.1"/>
		<path fill="none" stroke="#92D400" stroke-miterlimit="10" d="M714.4-655.9c0,3.8-3.1,7-7,7l0,0c-3.8,0-7-3.1-7-7l0,0
			c0-3.8,3.1-7,7-7l0,0C711.3-662.8,714.4-659.7,714.4-655.9L714.4-655.9z M733-655.9c0,3.8-3.1,7-7,7l0,0c-3.8,0-7-3.1-7-7l0,0
			c0-3.8,3.1-7,7-7l0,0C729.8-662.8,733-659.7,733-655.9L733-655.9z M751.5-655.9c0,3.8-3.1,7-7,7l0,0c-3.8,0-7-3.1-7-7l0,0
			c0-3.8,3.1-7,7-7l0,0C748.4-662.8,751.5-659.7,751.5-655.9L751.5-655.9z M751.5-693c0,3.8-3.1,7-7,7s-7-3.1-7-7s3.1-7,7-7
			S751.5-696.8,751.5-693z M733-693c0,3.8-3.1,7-7,7s-7-3.1-7-7s3.1-7,7-7S733-696.8,733-693z M714.4-693c0,3.8-3.1,7-7,7
			s-7-3.1-7-7s3.1-7,7-7S714.4-696.8,714.4-693z M714.4-674.4c0,3.8-3.1,7-7,7l0,0c-3.8,0-7-3.1-7-7l0,0c0-3.8,3.1-7,7-7
			S714.4-678.3,714.4-674.4z M751.5-674.4c0,3.8-3.1,7-7,7l0,0c-3.8,0-7-3.1-7-7l0,0c0-3.8,3.1-7,7-7S751.5-678.3,751.5-674.4z
			 M733-674.4c0,3.8-3.1,7-7,7l0,0c-3.8,0-7-3.1-7-7l0,0c0-3.8,3.1-7,7-7S733-678.3,733-674.4z M735.3-702.2v55.1 M716.7-702.2v55.1
			 M698.2-665.1h55.1 M698.2-683.7h55.1 M753.3-702.2h-55.1v55.1"/>
		<path fill="none" stroke="#92D400" stroke-miterlimit="10" d="M770-655.9c0,3.8-3.1,7-7,7l0,0c-3.8,0-7-3.1-7-7l0,0
			c0-3.8,3.1-7,7-7l0,0C766.9-662.8,770-659.7,770-655.9L770-655.9z M788.6-655.9c0,3.8-3.1,7-7,7l0,0c-3.8,0-7-3.1-7-7l0,0
			c0-3.8,3.1-7,7-7l0,0C785.4-662.8,788.6-659.7,788.6-655.9L788.6-655.9z M807.1-655.9c0,3.8-3.1,7-7,7l0,0c-3.8,0-7-3.1-7-7l0,0
			c0-3.8,3.1-7,7-7l0,0C804-662.8,807.1-659.7,807.1-655.9L807.1-655.9z M807.1-693c0,3.8-3.1,7-7,7c-3.8,0-7-3.1-7-7s3.1-7,7-7
			C804-699.9,807.1-696.8,807.1-693z M788.6-693c0,3.8-3.1,7-7,7c-3.8,0-7-3.1-7-7s3.1-7,7-7C785.4-699.9,788.6-696.8,788.6-693z
			 M770-693c0,3.8-3.1,7-7,7c-3.8,0-7-3.1-7-7s3.1-7,7-7C766.9-699.9,770-696.8,770-693z M770-674.4c0,3.8-3.1,7-7,7l0,0
			c-3.8,0-7-3.1-7-7l0,0c0-3.8,3.1-7,7-7C766.9-681.4,770-678.3,770-674.4z M807.1-674.4c0,3.8-3.1,7-7,7l0,0c-3.8,0-7-3.1-7-7l0,0
			c0-3.8,3.1-7,7-7C804-681.4,807.1-678.3,807.1-674.4z M788.6-674.4c0,3.8-3.1,7-7,7l0,0c-3.8,0-7-3.1-7-7l0,0c0-3.8,3.1-7,7-7
			C785.4-681.4,788.6-678.3,788.6-674.4z M790.9-702.2v55.1 M772.3-702.2v55.1 M753.8-665.1h55.1 M753.8-683.7h55.1 M808.9-702.2
			h-55.1v55.1"/>
		<path fill="none" stroke="#92D400" stroke-miterlimit="10" d="M825.6-655.9c0,3.8-3.1,7-7,7l0,0c-3.8,0-7-3.1-7-7l0,0
			c0-3.8,3.1-7,7-7l0,0C822.5-662.8,825.6-659.7,825.6-655.9L825.6-655.9z M844.2-655.9c0,3.8-3.1,7-7,7l0,0c-3.8,0-7-3.1-7-7l0,0
			c0-3.8,3.1-7,7-7l0,0C841.1-662.8,844.2-659.7,844.2-655.9L844.2-655.9z M862.7-655.9c0,3.8-3.1,7-7,7l0,0c-3.8,0-7-3.1-7-7l0,0
			c0-3.8,3.1-7,7-7l0,0C859.6-662.8,862.7-659.7,862.7-655.9L862.7-655.9z M862.7-693c0,3.8-3.1,7-7,7c-3.8,0-7-3.1-7-7s3.1-7,7-7
			C859.6-699.9,862.7-696.8,862.7-693z M844.2-693c0,3.8-3.1,7-7,7c-3.8,0-7-3.1-7-7s3.1-7,7-7C841.1-699.9,844.2-696.8,844.2-693z
			 M825.6-693c0,3.8-3.1,7-7,7c-3.8,0-7-3.1-7-7s3.1-7,7-7C822.5-699.9,825.6-696.8,825.6-693z M825.6-674.4c0,3.8-3.1,7-7,7l0,0
			c-3.8,0-7-3.1-7-7l0,0c0-3.8,3.1-7,7-7C822.5-681.4,825.6-678.3,825.6-674.4z M862.7-674.4c0,3.8-3.1,7-7,7l0,0c-3.8,0-7-3.1-7-7
			l0,0c0-3.8,3.1-7,7-7C859.6-681.4,862.7-678.3,862.7-674.4z M844.2-674.4c0,3.8-3.1,7-7,7l0,0c-3.8,0-7-3.1-7-7l0,0
			c0-3.8,3.1-7,7-7C841.1-681.4,844.2-678.3,844.2-674.4z M846.5-702.2v55.1 M827.9-702.2v55.1 M809.4-665.1h55.1 M809.4-683.7h55.1
			 M864.6-702.2h-55.1v55.1"/>
		<path fill="none" stroke="#92D400" stroke-miterlimit="10" d="M881.2-655.9c0,3.8-3.1,7-7,7l0,0c-3.8,0-7-3.1-7-7l0,0
			c0-3.8,3.1-7,7-7l0,0C878.1-662.8,881.2-659.7,881.2-655.9L881.2-655.9z M899.8-655.9c0,3.8-3.1,7-7,7l0,0c-3.8,0-7-3.1-7-7l0,0
			c0-3.8,3.1-7,7-7l0,0C896.7-662.8,899.8-659.7,899.8-655.9L899.8-655.9z M918.3-655.9c0,3.8-3.1,7-7,7l0,0c-3.8,0-7-3.1-7-7l0,0
			c0-3.8,3.1-7,7-7l0,0C915.2-662.8,918.3-659.7,918.3-655.9L918.3-655.9z M918.3-693c0,3.8-3.1,7-7,7s-7-3.1-7-7s3.1-7,7-7
			S918.3-696.8,918.3-693z M899.8-693c0,3.8-3.1,7-7,7s-7-3.1-7-7s3.1-7,7-7S899.8-696.8,899.8-693z M881.2-693c0,3.8-3.1,7-7,7
			s-7-3.1-7-7s3.1-7,7-7S881.2-696.8,881.2-693z M881.2-674.4c0,3.8-3.1,7-7,7l0,0c-3.8,0-7-3.1-7-7l0,0c0-3.8,3.1-7,7-7
			S881.2-678.3,881.2-674.4z M918.3-674.4c0,3.8-3.1,7-7,7l0,0c-3.8,0-7-3.1-7-7l0,0c0-3.8,3.1-7,7-7S918.3-678.3,918.3-674.4z
			 M899.8-674.4c0,3.8-3.1,7-7,7l0,0c-3.8,0-7-3.1-7-7l0,0c0-3.8,3.1-7,7-7S899.8-678.3,899.8-674.4z M902.1-702.2v55.1
			 M883.6-702.2v55.1 M865-665.1h55.1 M865-683.7h55.1 M920.2-702.2H865v55.1"/>
		<path fill="none" stroke="#92D400" stroke-miterlimit="10" d="M932.2-649.3c-0.7,0.2-1.5,0.4-2.3,0.4l0,0c-3.8,0-7-3.1-7-7l0,0
			c0-3.8,3.1-7,7-7l0,0c3.8,0,7,3.1,7,7l0,0c0,0.8-0.1,1.6-0.4,2.3 M948.4-662.8L948.4-662.8 M941.5-655.9L941.5-655.9 M969.2-686.4
			c-0.7,0.2-1.5,0.4-2.3,0.4c-3.8,0-7-3.1-7-7s3.1-7,7-7s7,3.1,7,7c0,0.8-0.1,1.6-0.4,2.3 M955.4-693c0,3.8-3.1,7-7,7s-7-3.1-7-7
			s3.1-7,7-7S955.4-696.8,955.4-693z M936.8-693c0,3.8-3.1,7-7,7s-7-3.1-7-7s3.1-7,7-7S936.8-696.8,936.8-693z M936.8-674.4
			c0,3.8-3.1,7-7,7l0,0c-3.8,0-7-3.1-7-7l0,0c0-3.8,3.1-7,7-7S936.8-678.3,936.8-674.4z M967-681.4 M960-674.4L960-674.4
			 M950.7-667.8c-0.7,0.2-1.5,0.4-2.3,0.4l0,0c-3.8,0-7-3.1-7-7l0,0c0-3.8,3.1-7,7-7s7,3.1,7,7c0,0.8-0.1,1.6-0.4,2.3 M957.7-702.2
			v27.4 M939.2-702.2v45.9 M920.6-665.1H948 M920.6-683.7h45.9 M975.8-702.2h-55.1v55.1"/>
		<path fill="none" stroke="#92D400" stroke-miterlimit="10" d="M985.5-699.9 M978.5-693 M985.1-702.2h-8.8v8.8"/>
	</g>
</g>
</svg>
